<svg width="153" height="228" viewBox="0 0 153 228" fill="none" xmlns="http://www.w3.org/2000/svg">
<path fill-rule="evenodd" clip-rule="evenodd" d="M38.7468 10.6094L118.735 12.0056C118.59 20.2886 111.758 26.8861 103.475 26.7415L53.4828 25.8689C45.1997 25.7243 38.6022 18.8924 38.7468 10.6094Z" fill="#C6C6C6"/>
<path d="M102.598 19.7252L52.6052 18.8525L51.4185 86.8422L101.411 87.7148L102.598 19.7252Z" fill="#C6C6C6"/>
<path d="M74.4886 226.266C115.628 226.984 149.559 194.216 150.277 153.077C150.996 111.938 118.228 78.0066 77.089 77.2885C35.95 76.5704 2.01822 109.338 1.30014 150.477C0.582055 191.616 33.3496 225.548 74.4886 226.266Z" fill="#CCCCCC"/>
<path fill-rule="evenodd" clip-rule="evenodd" d="M132.339 119.259C138.21 129.314 141.486 141.05 141.268 153.536C140.633 189.917 110.573 218.895 74.1282 218.258C37.683 217.622 8.65309 187.614 9.28813 151.232C9.50608 138.746 13.19 127.132 19.4084 117.287L132.339 119.259Z" fill="#88CFE4"/>
<path d="M76.5418 137.288C107.465 137.828 132.67 130.432 132.839 120.768C133.007 111.105 108.076 102.834 77.1526 102.294C46.2294 101.754 21.0244 109.15 20.8557 118.814C20.687 128.477 45.6185 136.749 76.5418 137.288Z" fill="#46B6D3"/>
<path d="M78.4019 145.322C81.1629 145.37 83.4402 143.171 83.4884 140.41C83.5366 137.649 81.3374 135.372 78.5764 135.324C75.8154 135.275 73.5381 137.475 73.4899 140.236C73.4417 142.997 75.6409 145.274 78.4019 145.322Z" fill="white"/>
<path d="M91.5332 166.554C95.6747 166.627 99.0907 163.328 99.163 159.186C99.2353 155.045 95.9365 151.629 91.795 151.557C87.6535 151.484 84.2375 154.783 84.1652 158.925C84.093 163.066 87.3917 166.482 91.5332 166.554Z" fill="white"/>
<path d="M78.0816 192.324C83.8797 192.425 88.6621 187.807 88.7633 182.008C88.8645 176.21 84.2462 171.428 78.4481 171.327C72.65 171.226 67.8677 175.844 67.7665 181.642C67.6653 187.44 72.2835 192.222 78.0816 192.324Z" fill="white"/>
<path fill-rule="evenodd" clip-rule="evenodd" d="M74.7931 225.271C76.9605 225.309 112.253 211.458 113.292 151.934C114.331 92.4103 77.376 77.2935 74.4862 77.2431C34.7677 76.5498 1.98723 111.114 1.30882 149.98C0.630412 188.846 32.5344 224.533 74.7931 225.271Z" fill="#4A4A4A" fill-opacity="0.0828238"/>
<path d="M78.5837 20.3056C100.672 20.6911 118.652 16.751 118.743 11.5051C118.835 6.25919 101.003 1.694 78.9153 1.30845C56.8273 0.9229 38.8472 4.863 38.7556 10.1089C38.664 15.3548 56.4957 19.92 78.5837 20.3056Z" fill="#C6C6C6"/>
<path d="M78.1362 17.2978C91.113 17.5243 101.683 14.7982 101.746 11.2089C101.809 7.61962 91.3398 4.52629 78.3631 4.29978C65.3864 4.07327 54.8159 6.79935 54.7533 10.3887C54.6906 13.978 65.1595 17.0713 78.1362 17.2978Z" fill="#919191"/>
<path d="M74.3401 34.2337L63.3417 34.0417C62.2373 34.0225 61.3264 34.9021 61.3071 36.0065C61.2879 37.1109 62.1675 38.0219 63.2719 38.0411L74.2703 38.2331C75.3747 38.2524 76.2856 37.3727 76.3049 36.2683C76.3241 35.1639 75.4445 34.253 74.3401 34.2337Z" fill="#919191"/>
<path d="M73.415 87.2259L62.4167 87.0339C61.3123 87.0147 60.4014 87.8943 60.3821 88.9987C60.3628 90.1031 61.2425 91.014 62.3469 91.0333L73.3452 91.2253C74.4496 91.2446 75.3605 90.3649 75.3798 89.2605C75.3991 88.1561 74.5194 87.2452 73.415 87.2259Z" fill="#919191"/>
<path d="M72.5075 139.218L61.5092 139.026C60.4048 139.007 59.4939 139.887 59.4746 140.991C59.4553 142.095 60.335 143.006 61.4394 143.026L72.4377 143.217C73.5421 143.237 74.4531 142.357 74.4723 141.253C74.4916 140.148 73.6119 139.237 72.5075 139.218Z" fill="#919191"/>
<path d="M71.5302 195.209L60.5319 195.017C59.4275 194.998 58.5166 195.878 58.4973 196.982C58.478 198.087 59.3577 198.997 60.4621 199.017L71.4604 199.209C72.5648 199.228 73.4758 198.348 73.495 197.244C73.5143 196.14 72.6346 195.229 71.5302 195.209Z" fill="#919191"/>
<path d="M73.8513 62.2298L62.853 62.0378C61.7486 62.0186 60.8376 62.8982 60.8184 64.0026C60.7991 65.107 61.6788 66.0179 62.7832 66.0372L73.7815 66.2292C74.8859 66.2485 75.7968 65.3688 75.8161 64.2644C75.8354 63.16 74.9557 62.2491 73.8513 62.2298Z" fill="#919191"/>
<path d="M72.9438 114.222L61.9455 114.03C60.8411 114.011 59.9302 114.89 59.9109 115.995C59.8916 117.099 60.7713 118.01 61.8757 118.029L72.874 118.221C73.9784 118.241 74.8893 117.361 74.9086 116.257C74.9279 115.152 74.0482 114.241 72.9438 114.222Z" fill="#919191"/>
<path d="M72.0188 167.214L61.0204 167.022C59.916 167.003 59.0051 167.883 58.9858 168.987C58.9666 170.091 59.8462 171.002 60.9506 171.022L71.949 171.214C73.0534 171.233 73.9643 170.353 73.9836 169.249C74.0028 168.144 73.1232 167.233 72.0188 167.214Z" fill="#919191"/>
</svg>
