<svg height="504" viewBox="0 0 236 504" width="236" xmlns="http://www.w3.org/2000/svg"><g fill="none" fill-rule="evenodd" transform="translate(0 .687502)"><path d="m4 114.312498h-4v363h4z" fill="#3d4042" fill-rule="nonzero"/><path d="m177 17.3124979-173 99.3300001v360.67l173-96.424z" fill="#434749"/><path d="m0 114.834498v-12.035c0-3.5960001 1.93087-6.9151001 5.05691-8.6927001l164.80509-93.71463c1.088-.61862 2.446-.49692 3.406.30533l3.732 3.11675-2.971 12.18695-170.06118 101.3073001z" fill="#f5f5f5"/><path d="m4 117.312498v-13.378c0-2.844 1.50982-5.4740001 3.96566-6.9080001l164.52134-96.07853c1.431-.83553 3.268-.35302 4.104 1.07773.268.4591.409.98121.409 1.51287v14.28583z" fill="#dedede"/><path d="m127.184 352.531498 108.308 62.143-60.028 35.078-108.3353-61.474z" fill="#63d3f8"/><path d="m67.1287 388.278498 108.3353 61.474v53.116l-107.8042-61.461z" fill="#57b9d9"/><path d="m175.464 449.752498 60.027-35.152v53.104l-60.027 35.164z" fill="#4395af"/><g fill-rule="nonzero"><path d="m104.029 403.370498c8.245 0 14.928-3.926 14.928-8.77 0-4.843-6.683-8.769-14.928-8.769-8.2442 0-14.9277 3.926-14.9277 8.769 0 4.844 6.6835 8.77 14.9277 8.77z" fill="#4395af"/><path d="m118.957 383.103498h-29.8557v12.862h29.8557z" fill="#4395af"/><path d="m104.029 391.677498c8.245 0 14.928-3.926 14.928-8.769 0-4.844-6.683-8.77-14.928-8.77-8.2442 0-14.9277 3.926-14.9277 8.77 0 4.843 6.6835 8.769 14.9277 8.769z" fill="#57b9d9"/><path d="m136.987 422.079498c8.245 0 14.928-3.926 14.928-8.77 0-4.843-6.683-8.769-14.928-8.769-8.244 0-14.928 3.926-14.928 8.769 0 4.844 6.684 8.77 14.928 8.77z" fill="#4395af"/><path d="m151.915 401.812498h-29.856v12.862h29.856z" fill="#4395af"/><path d="m136.987 410.386498c8.245 0 14.928-3.926 14.928-8.769 0-4.844-6.683-8.77-14.928-8.77-8.244 0-14.928 3.926-14.928 8.77 0 4.843 6.684 8.769 14.928 8.769z" fill="#57b9d9"/><path d="m170.72 440.788498c8.245 0 14.928-3.927 14.928-8.77s-6.683-8.769-14.928-8.769c-8.244 0-14.928 3.926-14.928 8.769s6.684 8.77 14.928 8.77z" fill="#4395af"/><path d="m185.648 420.520498h-29.856v12.862h29.856z" fill="#4395af"/><path d="m203.678 421.300498c8.245 0 14.928-3.927 14.928-8.77s-6.683-8.77-14.928-8.77c-8.244 0-14.928 3.927-14.928 8.77s6.684 8.77 14.928 8.77z" fill="#4395af"/><path d="m218.606 401.032498h-29.856v12.862h29.856z" fill="#4395af"/><path d="m170.72 403.370498c8.245 0 14.928-3.926 14.928-8.77 0-4.843-6.683-8.769-14.928-8.769-8.244 0-14.928 3.926-14.928 8.769 0 4.844 6.684 8.77 14.928 8.77z" fill="#4395af"/><path d="m185.648 383.103498h-29.856v12.862h29.856z" fill="#4395af"/><path d="m170.72 391.677498c8.245 0 14.928-3.926 14.928-8.769 0-4.844-6.683-8.77-14.928-8.77-8.244 0-14.928 3.926-14.928 8.77 0 4.843 6.684 8.769 14.928 8.769z" fill="#57b9d9"/><path d="m136.987 384.662498c8.245 0 14.928-3.926 14.928-8.77 0-4.843-6.683-8.769-14.928-8.769-8.244 0-14.928 3.926-14.928 8.769 0 4.844 6.684 8.77 14.928 8.77z" fill="#4395af"/><path d="m151.915 364.395498h-29.856v12.862h29.856z" fill="#4395af"/><path d="m136.987 372.969498c8.245 0 14.928-3.926 14.928-8.769 0-4.844-6.683-8.77-14.928-8.77-8.244 0-14.928 3.926-14.928 8.77 0 4.843 6.684 8.769 14.928 8.769z" fill="#57b9d9"/></g><path d="m127.441 308.962498 66.384 35.571-60.146 34.999-66.0191-39.219z" fill="#fec207"/><path d="m67.3257 340.111498 66.3533 39.421v52.995l-66.3533-41.37z" fill="#ffbf00"/><path d="m133.679 379.532498 60.145-35.073v52.984l-60.145 35.084z" fill="#e99900"/><path d="m170.72 429.095498c8.245 0 14.928-3.926 14.928-8.769 0-4.844-6.683-8.77-14.928-8.77-8.244 0-14.928 3.926-14.928 8.77 0 4.843 6.684 8.769 14.928 8.769z" fill="#57b9d9" fill-rule="nonzero"/><path d="m203.678 409.607498c8.245 0 14.928-3.926 14.928-8.77 0-4.843-6.683-8.769-14.928-8.769-8.244 0-14.928 3.926-14.928 8.769 0 4.844 6.684 8.77 14.928 8.77z" fill="#57b9d9" fill-rule="nonzero"/><path d="m95.1254 351.921498c8.2606 0 14.9576-3.918 14.9576-8.75s-6.697-8.75-14.9576-8.75c-8.2607 0-14.9574 3.918-14.9574 8.75s6.6967 8.75 14.9574 8.75z" fill="#e99900" fill-rule="nonzero"/><path d="m110.083 331.700498h-29.915v12.833h29.915z" fill="#e99900" fill-rule="nonzero"/><path d="m95.1254 340.255498c8.2606 0 14.9576-3.918 14.9576-8.75s-6.697-8.75-14.9576-8.75c-8.2607 0-14.9574 3.918-14.9574 8.75s6.6967 8.75 14.9574 8.75z" fill="#ffbf00" fill-rule="nonzero"/><path d="m128.925 370.587498c8.261 0 14.958-3.918 14.958-8.75s-6.697-8.75-14.958-8.75c-8.26 0-14.957 3.918-14.957 8.75s6.697 8.75 14.957 8.75z" fill="#e99900" fill-rule="nonzero"/><path d="m143.883 350.366498h-29.915v12.833h29.915z" fill="#e99900" fill-rule="nonzero"/><path d="m128.925 333.255498c8.261 0 14.958-3.918 14.958-8.75s-6.697-8.75-14.958-8.75c-8.26 0-14.957 3.918-14.957 8.75s6.697 8.75 14.957 8.75z" fill="#e99900" fill-rule="nonzero"/><path d="m143.883 313.034498h-29.915v12.833h29.915z" fill="#e99900" fill-rule="nonzero"/><path d="m128.925 321.589498c8.261 0 14.958-3.918 14.958-8.75s-6.697-8.75-14.958-8.75c-8.26 0-14.957 3.918-14.957 8.75s6.697 8.75 14.957 8.75z" fill="#ffbf00" fill-rule="nonzero"/><path d="m123.881 254.988498 36.943 16.545-60.145 34.999-33.8868-19.11z" fill="#34d0b2"/><path d="m66.7922 287.422498 33.8868 19.11v52.996l-33.8233-19.769z" fill="#40b29c"/><path d="m100.679 306.532498 60.145-35.073v52.984l-60.145 35.084z" fill="#207766"/><path d="m95.9252 297.588498c8.2608 0 14.9578-3.918 14.9578-8.75s-6.697-8.75-14.9578-8.75c-8.2607 0-14.9574 3.918-14.9574 8.75s6.6967 8.75 14.9574 8.75z" fill="#207766" fill-rule="nonzero"/><path d="m110.883 277.367498h-29.9152v12.833h29.9152z" fill="#207766" fill-rule="nonzero"/><path d="m95.9252 285.922498c8.2608 0 14.9578-3.918 14.9578-8.75s-6.697-8.75-14.9578-8.75c-8.2607 0-14.9574 3.918-14.9574 8.75s6.6967 8.75 14.9574 8.75z" fill="#40b29c" fill-rule="nonzero"/><path d="m128.948 278.144498c8.261 0 14.958-3.918 14.958-8.75 0-4.833-6.697-8.75-14.958-8.75s-14.957 3.917-14.957 8.75c0 4.832 6.696 8.75 14.957 8.75z" fill="#207766" fill-rule="nonzero"/><path d="m143.906 257.922498h-29.915v12.833h29.915z" fill="#207766" fill-rule="nonzero"/><path d="m128.948 266.478498c8.261 0 14.958-3.918 14.958-8.75 0-4.833-6.697-8.75-14.958-8.75s-14.957 3.917-14.957 8.75c0 4.832 6.696 8.75 14.957 8.75z" fill="#40b29c" fill-rule="nonzero"/><path d="m128.925 358.921498c8.261 0 14.958-3.918 14.958-8.75s-6.697-8.75-14.958-8.75-14.957 3.918-14.957 8.75 6.696 8.75 14.957 8.75z" fill="#ffbf00" fill-rule="nonzero"/><path d="m161.948 351.144498c8.261 0 14.958-3.918 14.958-8.75 0-4.833-6.697-8.75-14.958-8.75s-14.957 3.917-14.957 8.75c0 4.832 6.696 8.75 14.957 8.75z" fill="#e99900" fill-rule="nonzero"/><path d="m176.906 330.921498h-29.915v12.833h29.915z" fill="#e99900" fill-rule="nonzero"/><path d="m161.948 339.477498c8.261 0 14.958-3.917 14.958-8.749 0-4.833-6.697-8.75-14.958-8.75s-14.957 3.917-14.957 8.75c0 4.832 6.696 8.749 14.957 8.749z" fill="#ffbf00" fill-rule="nonzero"/><path d="m41.3646 121.263498 34.9183-20.561c1.3779-.8110001 3.1528-.352 3.9642 1.026.2621.445.4004.952.4004 1.469 0 3.139-1.6602 6.043-4.3646 7.635l-34.9183 20.562c-1.3779.811-3.1528.352-3.9642-1.026-.2621-.445-.4004-.953-.4004-1.469 0-3.139 1.6602-6.043 4.3646-7.636z" fill="#3e4245"/><path d="m41.3646 175.263498 34.9183-20.561c1.3779-.811 3.1528-.352 3.9642 1.026.2621.445.4004.952.4004 1.469 0 3.139-1.6602 6.043-4.3646 7.635l-34.9183 20.562c-1.3779.811-3.1528.352-3.9642-1.026-.2621-.445-.4004-.953-.4004-1.469 0-3.139 1.6602-6.043 4.3646-7.636z" fill="#3e4245"/><path d="m47.3646 279.263498 34.9183-20.561c1.3779-.811 3.1528-.352 3.9642 1.026.2621.445.4004.952.4004 1.469 0 3.139-1.6602 6.043-4.3646 7.635l-34.9183 20.562c-1.3779.811-3.1528.352-3.9642-1.026-.2621-.445-.4004-.953-.4004-1.469 0-3.139 1.6602-6.043 4.3646-7.636z" fill="#ffbf00"/><path d="m113.365 213.263498 34.918-20.561c1.378-.811 3.153-.352 3.964 1.026.262.445.4.952.4 1.469 0 3.139-1.66 6.043-4.364 7.635l-34.918 20.562c-1.378.811-3.153.352-3.965-1.026-.262-.445-.4-.953-.4-1.469 0-3.139 1.66-6.043 4.365-7.636z" fill="#3e4245"/><path d="m20.3646 214.263498 34.9183-20.561c1.3779-.811 3.1528-.352 3.9642 1.026.2621.445.4004.952.4004 1.469 0 3.139-1.6602 6.043-4.3646 7.635l-34.9183 20.562c-1.3779.811-3.1528.352-3.9642-1.026-.2621-.445-.4004-.953-.4004-1.469 0-3.139 1.6602-6.043 4.3646-7.636z" fill="#3e4245"/><path d="m90.3646 173.263498 34.9184-20.561c1.378-.811 3.153-.352 3.964 1.026.262.445.4.952.4 1.469 0 3.139-1.66 6.043-4.364 7.635l-34.9184 20.562c-1.3779.811-3.1528.352-3.9642-1.026-.2621-.445-.4004-.953-.4004-1.469 0-3.139 1.6602-6.043 4.3646-7.636z" fill="#3e4245"/><path d="m89.3858 92.6556979 50.1112-28.9506c1.398-.8077 3.186-.3291 3.994 1.0689.257.4445.392.9489.392 1.4624 0 3.1344-1.672 6.0309-4.386 7.5989l-50.1112 28.9502001c-1.398.808-3.1861.33-3.9937-1.068-.2569-.445-.3921-.949-.3921-1.463 0-3.1343001 1.6717-6.0308001 4.3858-7.5988001z" fill="#3e4245"/><path d="m89.3858 146.655498 50.1112-28.95c1.398-.808 3.186-.33 3.994 1.068.257.445.392.949.392 1.463 0 3.134-1.672 6.031-4.386 7.599l-50.1112 28.95c-1.398.808-3.1861.33-3.9937-1.068-.2569-.445-.3921-.949-.3921-1.463 0-3.134 1.6717-6.031 4.3858-7.599z" fill="#3e4245"/><path d="m65.3858 213.655498 50.1112-28.95c1.398-.808 3.186-.33 3.994 1.068.257.445.392.949.392 1.463 0 3.134-1.672 6.031-4.386 7.599l-50.1112 28.95c-1.398.808-3.1861.33-3.9937-1.068-.2569-.445-.3921-.949-.3921-1.463 0-3.134 1.6717-6.031 4.3858-7.599z" fill="#3e4245"/><path d="m21.3858 265.655498 50.1112-28.95c1.398-.808 3.186-.33 3.9937 1.068.2568.445.3921.949.3921 1.463 0 3.134-1.6718 6.031-4.3858 7.599l-50.1112 28.95c-1.398.808-3.1861.33-3.9937-1.068-.2569-.445-.3921-.949-.3921-1.463 0-3.134 1.6717-6.031 4.3858-7.599z" fill="#3e4245"/><path d="m20.4515 132.135498 8.2313-4.468c1.4628-.794 3.2923-.252 4.0864 1.211.2396.441.3651.935.3651 1.438 0 3.121-1.7083 5.992-4.4515 7.481l-8.2313 4.469c-1.4628.794-3.2923.252-4.0864-1.211-.2396-.442-.3651-.936-.3651-1.438 0-3.121 1.7083-5.992 4.4515-7.482z" fill="#3e4245"/><path d="m20.4515 186.135498 8.2313-4.468c1.4628-.794 3.2923-.252 4.0864 1.211.2396.441.3651.935.3651 1.438 0 3.121-1.7083 5.992-4.4515 7.481l-8.2313 4.469c-1.4628.794-3.2923.252-4.0864-1.211-.2396-.442-.3651-.936-.3651-1.438 0-3.121 1.7083-5.992 4.4515-7.482z" fill="#3e4245"/><path d="m89.4515 227.135498 8.2313-4.468c1.4628-.794 3.2922-.252 4.0862 1.211.24.441.365.935.365 1.438 0 3.121-1.708 5.992-4.4512 7.481l-8.2313 4.469c-1.4628.794-3.2923.252-4.0864-1.211-.2396-.442-.3651-.936-.3651-1.438 0-3.121 1.7083-5.992 4.4515-7.482z" fill="#3e4245"/><path d="m20.4515 157.135498 8.2313-4.468c1.4628-.794 3.2923-.252 4.0864 1.211.2396.441.3651.935.3651 1.438 0 3.121-1.7083 5.992-4.4515 7.481l-8.2313 4.469c-1.4628.794-3.2923.252-4.0864-1.211-.2396-.442-.3651-.936-.3651-1.438 0-3.121 1.7083-5.992 4.4515-7.482z" fill="#3e4245"/><path d="m20.4515 238.135498 8.2313-4.468c1.4628-.794 3.2923-.252 4.0864 1.211.2396.441.3651.935.3651 1.438 0 3.121-1.7083 5.992-4.4515 7.481l-8.2313 4.469c-1.4628.794-3.2923.252-4.0864-1.211-.2396-.442-.3651-.936-.3651-1.438 0-3.121 1.7083-5.992 4.4515-7.482z" fill="#3e4245"/><path d="m20.4515 294.135498 8.2313-4.468c1.4628-.794 3.2923-.252 4.0864 1.211.2396.441.3651.935.3651 1.438 0 3.121-1.7083 5.992-4.4515 7.481l-8.2313 4.469c-1.4628.794-3.2923.252-4.0864-1.211-.2396-.442-.3651-.936-.3651-1.438 0-3.121 1.7083-5.992 4.4515-7.482z" fill="#fff"/><path d="m98.4515 249.135498 8.2315-4.468c1.463-.794 3.292-.252 4.086 1.211.24.441.365.935.365 1.438 0 3.121-1.708 5.992-4.451 7.481l-8.2315 4.469c-1.4628.794-3.2923.252-4.0864-1.211-.2396-.442-.3651-.936-.3651-1.438 0-3.121 1.7083-5.992 4.4515-7.482z" fill="#7efcbd"/><path d="m123.451 236.135498 8.232-4.468c1.463-.794 3.292-.252 4.086 1.211.24.441.365.935.365 1.438 0 3.121-1.708 5.992-4.451 7.481l-8.232 4.469c-1.462.794-3.292.252-4.086-1.211-.239-.442-.365-.936-.365-1.438 0-3.121 1.708-5.992 4.451-7.482z" fill="#ed5556"/><path d="m41.4515 146.135498 8.2313-4.468c1.4628-.794 3.2923-.252 4.0864 1.211.2396.441.3651.935.3651 1.438 0 3.121-1.7083 5.992-4.4515 7.481l-8.2313 4.469c-1.4628.794-3.2923.252-4.0864-1.211-.2396-.442-.3651-.936-.3651-1.438 0-3.121 1.7083-5.992 4.4515-7.482z" fill="#3e4245"/><path d="m41.4515 227.135498 8.2313-4.468c1.4628-.794 3.2923-.252 4.0864 1.211.2396.441.3651.935.3651 1.438 0 3.121-1.7083 5.992-4.4515 7.481l-8.2313 4.469c-1.4628.794-3.2923.252-4.0864-1.211-.2396-.442-.3651-.936-.3651-1.438 0-3.121 1.7083-5.992 4.4515-7.482z" fill="#3e4245"/><path d="m62.4515 134.135498 8.2313-4.468c1.4628-.794 3.2923-.252 4.0864 1.211.2396.441.3651.935.3651 1.438 0 3.121-1.7083 5.992-4.4515 7.481l-8.2313 4.469c-1.4628.794-3.2923.252-4.0864-1.211-.2396-.442-.3651-.936-.3651-1.438 0-3.121 1.7083-5.992 4.4515-7.482z" fill="#3e4245"/><path d="m69.4515 185.135498 8.2313-4.468c1.4628-.794 3.2923-.252 4.0864 1.211.2396.441.3651.935.3651 1.438 0 3.121-1.7083 5.992-4.4515 7.481l-8.2313 4.469c-1.4628.794-3.2923.252-4.0864-1.211-.2396-.442-.3651-.936-.3651-1.438 0-3.121 1.7083-5.992 4.4515-7.482z" fill="#3e4245"/><path d="m130.451 175.135498 8.232-4.468c1.463-.794 3.292-.252 4.086 1.211.24.441.365.935.365 1.438 0 3.121-1.708 5.992-4.451 7.481l-8.232 4.469c-1.462.794-3.292.252-4.086-1.211-.239-.442-.365-.936-.365-1.438 0-3.121 1.708-5.992 4.451-7.482z" fill="#3e4245"/><path d="m151.451 56.1357979 8.232-4.4684c1.463-.794 3.292-.252 4.086 1.2108.24.4414.365.9356.365 1.4378 0 3.1214-1.708 5.9924-4.451 7.4816l-8.232 4.4684c-1.462.7941-3.292.252-4.086-1.2108-.239-.4413-.365-.9356-.365-1.4378 0-3.1213 1.708-5.9924 4.451-7.4816z" fill="#3e4245"/><path d="m71.3646 114.263498 34.9184-20.5609001c1.378-.8114 3.153-.3521 3.964 1.0259.262.4452.4.9525.4 1.4692 0 3.1388-1.66 6.0428001-4.364 7.6348001l-34.9184 20.562c-1.3779.811-3.1528.352-3.9642-1.026-.2621-.445-.4004-.953-.4004-1.469 0-3.139 1.6602-6.043 4.3646-7.636z" fill="#fff"/><path d="m71.3646 168.263498 34.9184-20.561c1.378-.811 3.153-.352 3.964 1.026.262.445.4.952.4 1.469 0 3.139-1.66 6.043-4.364 7.635l-34.9184 20.562c-1.3779.811-3.1528.352-3.9642-1.026-.2621-.445-.4004-.953-.4004-1.469 0-3.139 1.6602-6.043 4.3646-7.636z" fill="#63d3f8"/><path d="m115.365 212.263498 34.918-20.561c1.378-.811 3.153-.352 3.964 1.026.262.445.4.952.4 1.469 0 3.139-1.66 6.043-4.364 7.635l-34.918 20.562c-1.378.811-3.153.352-3.965-1.026-.262-.445-.4-.953-.4-1.469 0-3.139 1.66-6.043 4.365-7.636z" fill="#7efcbd"/><path d="m50.3646 207.263498 34.9183-20.561c1.3779-.811 3.1528-.352 3.9642 1.026.2621.445.4004.952.4004 1.469 0 3.139-1.6602 6.043-4.3646 7.635l-34.9183 20.562c-1.3779.811-3.1528.352-3.9642-1.026-.2621-.445-.4004-.953-.4004-1.469 0-3.139 1.6602-6.043 4.3646-7.636z" fill="#fec207"/><path d="m120.365 166.263498 34.918-20.561c1.378-.811 3.153-.352 3.964 1.026.262.445.4.952.4 1.469 0 3.139-1.66 6.043-4.364 7.635l-34.918 20.562c-1.378.811-3.153.352-3.965-1.026-.262-.445-.4-.953-.4-1.469 0-3.139 1.66-6.043 4.365-7.636z" fill="#7efcbd"/><path d="m119.386 85.6556979 50.111-28.9506c1.398-.8077 3.186-.3291 3.994 1.0689.257.4445.392.9489.392 1.4624 0 3.1344-1.672 6.0309-4.386 7.5989l-50.111 28.9506c-1.398.8077-3.186.3291-3.994-1.0689-.257-.4446-.392-.949-.392-1.4624 0-3.1344 1.672-6.0309 4.386-7.5989z" fill="#fec207"/><path d="m119.386 139.655498 50.111-28.95c1.398-.808 3.186-.33 3.994 1.068.257.445.392.949.392 1.463 0 3.134-1.672 6.031-4.386 7.599l-50.111 28.95c-1.398.808-3.186.33-3.994-1.068-.257-.445-.392-.949-.392-1.463 0-3.134 1.672-6.031 4.386-7.599z" fill="#fff"/><path d="m95.3858 206.655498 50.1112-28.95c1.398-.808 3.186-.33 3.994 1.068.257.445.392.949.392 1.463 0 3.134-1.672 6.031-4.386 7.599l-50.1112 28.95c-1.398.808-3.1861.33-3.9937-1.068-.2569-.445-.3921-.949-.3921-1.463 0-3.134 1.6717-6.031 4.3858-7.599z" fill="#ed5556"/><path d="m23.3858 264.655498 50.1112-28.95c1.398-.808 3.186-.33 3.9937 1.068.2568.445.3921.949.3921 1.463 0 3.134-1.6718 6.031-4.3858 7.599l-50.1112 28.95c-1.398.808-3.1861.33-3.9937-1.068-.2569-.445-.3921-.949-.3921-1.463 0-3.134 1.6717-6.031 4.3858-7.599z" fill="#7ac8f0"/><path d="m50.4515 125.135498 8.2313-4.468c1.4628-.794 3.2923-.252 4.0864 1.211.2396.441.3651.935.3651 1.438 0 3.121-1.7083 5.992-4.4515 7.481l-8.2313 4.469c-1.4628.794-3.2923.252-4.0864-1.211-.2396-.442-.3651-.936-.3651-1.438 0-3.121 1.7083-5.992 4.4515-7.482z" fill="#7efcbd"/><path d="m50.4515 179.135498 8.2313-4.468c1.4628-.794 3.2923-.252 4.0864 1.211.2396.441.3651.935.3651 1.438 0 3.121-1.7083 5.992-4.4515 7.481l-8.2313 4.469c-1.4628.794-3.2923.252-4.0864-1.211-.2396-.442-.3651-.936-.3651-1.438 0-3.121 1.7083-5.992 4.4515-7.482z" fill="#7efcbd"/><path d="m91.4515 226.135498 8.2313-4.468c1.4632-.794 3.2922-.252 4.0862 1.211.24.441.365.935.365 1.438 0 3.121-1.708 5.992-4.4512 7.481l-8.2313 4.469c-1.4628.794-3.2923.252-4.0864-1.211-.2396-.442-.3651-.936-.3651-1.438 0-3.121 1.7083-5.992 4.4515-7.482z" fill="#fff"/><path d="m50.4515 150.135498 8.2313-4.468c1.4628-.794 3.2923-.252 4.0864 1.211.2396.441.3651.935.3651 1.438 0 3.121-1.7083 5.992-4.4515 7.481l-8.2313 4.469c-1.4628.794-3.2923.252-4.0864-1.211-.2396-.442-.3651-.936-.3651-1.438 0-3.121 1.7083-5.992 4.4515-7.482z" fill="#fff"/><path d="m50.4515 231.135498 8.2313-4.468c1.4628-.794 3.2923-.252 4.0864 1.211.2396.441.3651.935.3651 1.438 0 3.121-1.7083 5.992-4.4515 7.481l-8.2313 4.469c-1.4628.794-3.2923.252-4.0864-1.211-.2396-.442-.3651-.936-.3651-1.438 0-3.121 1.7083-5.992 4.4515-7.482z" fill="#7efcbd"/><path d="m71.4515 139.135498 8.2313-4.468c1.4628-.794 3.2923-.252 4.0864 1.211.2396.441.3651.935.3651 1.438 0 3.121-1.7083 5.992-4.4515 7.481l-8.2313 4.469c-1.4628.794-3.2923.252-4.0864-1.211-.2396-.442-.3651-.936-.3651-1.438 0-3.121 1.7083-5.992 4.4515-7.482z" fill="#63d3f8"/><path d="m71.4515 220.135498 8.2313-4.468c1.4628-.794 3.2923-.252 4.0864 1.211.2396.441.3651.935.3651 1.438 0 3.121-1.7083 5.992-4.4515 7.481l-8.2313 4.469c-1.4628.794-3.2923.252-4.0864-1.211-.2396-.442-.3651-.936-.3651-1.438 0-3.121 1.7083-5.992 4.4515-7.482z" fill="#fff"/><path d="m92.4515 127.135498 8.2315-4.468c1.463-.794 3.292-.252 4.086 1.211.24.441.365.935.365 1.438 0 3.121-1.708 5.992-4.451 7.481l-8.2315 4.469c-1.4628.794-3.2923.252-4.0864-1.211-.2396-.442-.3651-.936-.3651-1.438 0-3.121 1.7083-5.992 4.4515-7.482z" fill="#fec207"/><path d="m99.4515 178.135498 8.2315-4.468c1.463-.794 3.292-.252 4.086 1.211.24.441.365.935.365 1.438 0 3.121-1.708 5.992-4.451 7.481l-8.2315 4.469c-1.4628.794-3.2923.252-4.0864-1.211-.2396-.442-.3651-.936-.3651-1.438 0-3.121 1.7083-5.992 4.4515-7.482z" fill="#63d3f8"/><path d="m160.451 168.135498 8.232-4.468c1.463-.794 3.292-.252 4.086 1.211.24.441.365.935.365 1.438 0 3.121-1.708 5.992-4.451 7.481l-8.232 4.469c-1.462.794-3.292.252-4.086-1.211-.239-.442-.365-.936-.365-1.438 0-3.121 1.708-5.992 4.451-7.482z" fill="#fff"/><path d="m181.451 49.1357979 8.232-4.4684c1.463-.794 3.292-.252 4.086 1.2108.24.4414.365.9356.365 1.4378 0 3.1214-1.708 5.9924-4.451 7.4816l-8.232 4.4684c-1.462.7941-3.292.252-4.086-1.2108-.239-.4413-.365-.9356-.365-1.4378 0-3.1213 1.708-5.9924 4.451-7.4816z" fill="#ed5556"/><path d="m113.965 114.135498 8.231-4.468c1.463-.794 3.292-.252 4.086 1.211.24.441.365.935.365 1.438 0 3.121-1.708 5.992-4.451 7.481l-8.231 4.469c-1.463.794-3.293.252-4.087-1.211-.239-.442-.365-.936-.365-1.438 0-3.121 1.708-5.992 4.452-7.482z" fill="#ed5556"/></g></svg>