<svg height="387" viewBox="0 0 576 387" width="576" xmlns="http://www.w3.org/2000/svg"><g fill="none" fill-rule="evenodd" transform="translate(-.000002)"><path d="m312.904002 122.054 64.315 31.448 198.78 41.458v17.598c-.548 3.674-1.249 6.386-2.102 8.136-1.795 3.678-4.666 6.722-8.231 8.726l-238.95 148.756c-19.47 10.944-43.063 11.639-63.143 1.861l-218.1879996-110.16c-1.259-.613-2.426-1.341-3.494-2.164l-30.565-14.885c-7.05-3.434-11.198-10.444-11.324-17.789v-24.895l188.2489996-51.577 61.276-34.625c19.527-11.034 43.228-11.741 63.377-1.888z" fill="#000"/><path d="m312.904002 109.566 64.315 31.448 198.78 41.458v19.598c-.548 3.674-1.249 6.386-2.102 8.135-1.795 3.679-4.666 6.723-8.231 8.727l-238.95 148.756c-19.47 10.944-43.063 11.639-63.143 1.861l-218.1879996-110.16c-1.259-.613-2.426-1.341-3.494-2.164l-30.565-14.885c-7.05-3.434-11.198-10.444-11.324-17.789v-26.895l188.2489996-51.577 61.276-34.625c19.527-11.034 43.228-11.741 63.377-1.888z" fill="#bbd4e9"/><path d="m345.708002 58.958-32.803-16.039c-20.149-9.853-43.85-9.147-63.377 1.888l-239.2899996 135.22c-3.557 2.01-6.419 5.056-8.206 8.733-4.862 10.007-.7 22.065 9.295 26.933l251.5819996 121.556c20.081 9.779 43.673 9.084 63.144-1.861l239.669-139.717c3.566-2.004 6.437-5.048 8.232-8.726 4.878-9.999.736-22.064-9.252-26.948l-208.45-96.929c-3.424-1.675-6.952-3.045-10.544-4.11z" fill="#dff2ff" fill-rule="nonzero"/><path d="m251.245002 232.789c-.972.802-3.283 5.227-4.317 7.339l2.718 18.331 2.783 2.554 13.304-3.945v-7.662-6.595l-1.407-10.022-9.339-2.877c-.842.625-2.77 2.076-3.742 2.877z" fill="#101010" fill-rule="nonzero"/><path d="m271.260002 243.361-5.137-.565-1.837-9.227 1.055-.764 1.769.299 5.341 4.713 3.708 1.859 4.422 4.315.34 1.56-1.054-.896c-.488-.066-1.653-.159-2.415 0s-1.18 1.328-1.293 1.892z" fill="#101010" fill-rule="nonzero"/><path d="m340.591002 268.245-45.204-17.358-94.387 37.248 85.708 40.504z" fill="#dfebf3" fill-rule="nonzero"/><path d="m239.694002 246.909 10.126-2.532 3.254 17.359-11.21 4.34z" fill="#394881"/><path d="m239.695002 246.909 2.165 19.122-2.729 1.742-1.966-19.056z" fill="#394881"/><path d="m260.078002 295.812-10.364.914 9.45-3.963-1.524-3.353 2.438 3.049 8.231-2.134-3.963 3.048 6.402 1.829 1.219 1.524-9.755-1.219.915 6.097-2.134-5.487z" fill="#3d414e" fill-rule="nonzero"/><path d="m261.243002 295.667 1.946 6.046.497-.071v-2.065l-2.443-6.939z" fill="#394881"/><path d="m257.711002 288.952v.409l2.841 4.993.111-2.571-2.59-2.831z" fill="#394881"/><path d="m261.537002 294.784 6.819-4.43v-.821l-6.819 2.313z" fill="#394881"/><path d="m260.072002 277.627 2.052 1.592.082 15.719c-.055.559-.41.839-1.067.839-.656 0-1.012-.28-1.067-.839z" fill="#26325b"/><path d="m238.972002 272.329 19.393-11.316 23.1 11.61-19.342 11.269z" fill="#394881"/><path d="m238.972002 272.329 23.151 11.479v3.238l-23.151-11.479z" fill="#394881"/><path d="m262.124002 283.808 19.341-11.185v3.238l-19.341 11.185z" fill="#26325b"/><path d="m260.071002 295.362-10.257 1.163v-1.163l10.257-3.028z" fill="#394881"/><path d="m262.123002 295.373 9.671 1.162v-1.162l-9.671-3.029z" fill="#394881"/><path d="m277.305002 253.057 37.436 18.219-28.354 16.471-37.652-18.279z" fill="#75aac9"/><path d="m304.427002 237.868 37.61 15.55-27.484 15.189-36.525-18.082z" fill="#75aac9"/><path d="m248.735002 269.33 37.652 18.417v3.532l-37.652-18.416z" fill="#394881"/><path d="m278.028002 250.525 36.525 18.082v2.893l-36.525-18.082z" fill="#394881"/><path d="m286.386002 287.747 28.427-16.658-.403 40.542-28.426 17.369z" fill="#26325b"/><path d="m314.554002 268.607 27.703-15.127v41.154l-28.426 17.369z" fill="#26325b"/><path d="m261.393002 267.644.693-6.416 12.795-8.895c3.876.061 11.832.321 12.649.875s1.045 1.179 1.057 1.422l.474 8.275-10.081 10.462c-.117.176-.285.359-.527.547-.494.384-1.956-.268-2.588-.584l-5.65-4.483z" fill="#26325b" fill-rule="nonzero"/><path d="m273.641002 262.03-11.191-.547c3.524-.146 10.834-.35 11.884 0s1.288.851 1.276 1.057l2.989 11.337-1.604-5.686c-.522-1.677-1.699-5.155-2.224-5.651-.525-.495-.972-.547-1.13-.51z" fill="#75aac9" fill-rule="nonzero"/><path d="m275.099002 260.207-9.623-.401v-1.531l9.368.438 7.692-6.38v1.021z" fill="#101010" fill-rule="nonzero"/><path d="m273.933002 252.333-8.494 5.942 9.369.474 7.728-6.416z" fill="#75aac9" fill-rule="nonzero"/><path d="m248.736002 269.5 37.61 18.5-.362 41-37.61-18.443z" fill="#101010" fill-rule="nonzero"/><path d="m284.428002 253.057-.614-10.084 13.67-.765 2.966 10.466z" fill="#fff" fill-rule="nonzero"/><path d="m251.236002 240.527c-.268-.295-1.134-.95-2.451-1.213l-2.276 2.097-1.366 11.172-.385 9.403c.047 1.584.273 4.902.805 5.505.666.753 2.031.688 3.222.753.953.053 6.303-1.747 8.86-2.654l5.918-2.719-.735-5.308-2.032 1.213-5.182.95h-4.378l2.207-12.876-.666-4.063z" fill="#101010" fill-rule="nonzero"/><path d="m266.456002 251.858-3.298 2.685-3.333 2.853-.79-1.611-2.164-9.229v-2.786l-4.157-11.646 1.924-3.659.721.94v2.417l1.512 6.242 1.134 2.887.446-.873 1.752-2.014 1.443-4.463h1.065l.447.704-.447 5.068-1.065-.939-1.443 2.047z" fill="#f3f8f9" fill-rule="nonzero"/><path d="m261.521002 232.17v2.228l-.166 1.417-2.162 5.669-3.161-3.239-1.872-5.022.832-3.442 1.206-2.875-.166-2.835 5.323-6.115c2.066-.202 6.396-.526 7.195-.202.798.324 1.83 2.241 2.246 3.158v2.025l-.957 1.458c-.055.338-.166 1.077-.166 1.336 0 .26.748 1.998 1.123 2.835h-1.789v1.62l-1.289.162v.607l-.832.284c-.111.378-.407 1.215-.707 1.539-.299.324-.984.351-1.289.324z" fill="#f7d7c3" fill-rule="nonzero"/><path d="m262.876002 226.475-2.785-.979h-2.097l-.651 1.523-1.736-.254-2.17-1.269 2.17-1.009.362-2.4 1.374-5.113 3.399-2.539 4.448-.435c1.049.484 3.378 1.61 4.304 2.248.926.639 1.736 2.587 2.025 3.482l-.832 2.357v-1.523h-.832l-2.133 2.067-1.447-1.197-.687 4.678z" fill="#563c24" fill-rule="nonzero"/><path d="m268.517002 256.505-.768 1.696-4.47 4.258c-.122-.721-.38-2.315-.433-2.927-.054-.612.266-1.918.433-2.495l2.202-1.131 2.268-2.195 3.136-2.129 3.836 2.628-1.935 1.297-2.635-1.297-.4.565 2.635 1.131-.801.599z" fill="#f6d7c3" fill-rule="nonzero"/><path d="m279.058002 249.553-1.068-3.626-.634-.798c.045-.233.234-.785.634-1.131.401-.346 1.435-.366 1.902-.333l.734 1.464 2.969 1.497 1.868.432.767.699 1.201 1.43-.267 1.563-1.701-1.762h-1.235l.634.898 1.368.864v.832l-1.368-.832-4.236-1.197.967 2.827h-.967z" fill="#f6d7c3" fill-rule="nonzero"/><path d="m366.814002 108.772 42.756-24.674v25.891l-42.756 25.138z" fill="#26325b"/><path d="m290.915002 25.858 118.654 58.24-42.647 24.729-119.388-58.484z" fill="#75aac9"/><path d="m247.096002 50.005 119.28 58.428v26.312l-119.28-58.429z" fill="#101010"/><path d="m292.484002 80.908 4.641 2.273v10.103l-4.641-2.273z" fill="#fff"/><path d="m299.335002 84.444 4.641 2.273v10.103l-4.641-2.273z" fill="#fff"/><path d="m306.628002 87.98 4.642 2.273v10.103l-4.642-2.273z" fill="#fff"/><path d="m313.480002 91.295 4.641 2.273v10.104l-4.641-2.274z" fill="#fff"/><path d="m334.917002 101.682 4.641 2.274v10.103l-4.641-2.273z" fill="#fff"/><path d="m341.769002 104.998 4.641 2.273v10.103l-4.641-2.273z" fill="#fff"/><path d="m320.773002 94.831 4.641 2.274v10.103l-4.641-2.274z" fill="#fff"/><path d="m327.624002 98.146 4.641 2.274v10.103l-4.641-2.273z" fill="#fff"/><path d="m349.062002 108.534 4.641 2.273v10.103l-4.641-2.273z" fill="#fff"/><path d="m355.913002 111.849 4.641 2.273v10.103l-4.641-2.273z" fill="#fff"/><path d="m250.051002 60.133 4.641 2.274v10.103l-4.641-2.274z" fill="#534e4e"/><path d="m271.488002 70.521 4.642 2.273v10.103l-4.642-2.273z" fill="#534e4e"/><path d="m278.340002 73.836 4.641 2.273v10.103l-4.641-2.273z" fill="#534e4e"/><path d="m257.344002 63.669 4.641 2.274v10.103l-4.641-2.273z" fill="#534e4e"/><path d="m264.195002 66.984 4.641 2.274v10.103l-4.641-2.273z" fill="#534e4e"/><path d="m373.886002 112.67 4.641-2.81v10.103l-4.641 2.81z" fill="#fff"/><path d="m391.567002 102.282 4.641-2.809v10.103l-4.641 2.81z" fill="#fff"/><path d="m382.727002 107.366 4.641-2.81v10.103l-4.641 2.81z" fill="#fff"/><path d="m400.407002 96.978 4.641-2.81v10.104l-4.641 2.809z" fill="#fff"/><path d="m243.556002 94.122 43.538-24.328v26.355l-43.538 24.328z" fill="#26325b"/><path d="m247.818002 50.611 39.276 19.183-43.43 24.383-39.227-19.081z" fill="#75aac9"/><path d="m204.000002 74.611 39.118 19.216v26.311l-39.118-19.216z" fill="#101010"/><path d="m209.449002 86.479 4.641 2.274v10.103l-4.641-2.273z" fill="#fff"/><path d="m216.300002 89.795 4.641 2.273v10.103l-4.641-2.273z" fill="#fff"/><path d="m222.930002 93.109 4.642 2.274v10.103l-4.642-2.273z" fill="#fff"/><path d="m229.782002 96.425 4.641 2.273v10.103l-4.641-2.273z" fill="#fff"/><path d="m250.849002 99.235 4.641-2.81v10.103l-4.641 2.81z" fill="#fff"/><path d="m268.529002 88.847 4.641-2.81v10.104l-4.641 2.809z" fill="#fff"/><path d="m259.689002 93.93 4.641-2.81v10.104l-4.641 2.81z" fill="#fff"/><path d="m277.370002 83.543 4.641-2.81v10.103l-4.641 2.81z" fill="#fff"/><path d="m287.094002 43.511 43.538-24.328v26.355l-43.538 24.328z" fill="#26325b"/><path d="m291.357002 0 39.275 19.183-43.43 24.383-39.226-19.08z" fill="#75aac9"/><path d="m247.538002 24 39.119 19.216v26.311l-39.119-19.216z" fill="#101010"/><path d="m252.987002 35.869 4.641 2.273v10.103l-4.641-2.273z" fill="#fff"/><path d="m259.839002 39.184 4.641 2.273v10.103l-4.641-2.273z" fill="#fff"/><path d="m266.469002 42.499 4.641 2.273v10.103l-4.641-2.273z" fill="#fff"/><path d="m273.320002 45.814 4.641 2.273v10.103l-4.641-2.273z" fill="#fff"/><path d="m294.387002 48.624 4.641-2.81v10.103l-4.641 2.81z" fill="#fff"/><path d="m312.068002 38.237 4.641-2.81v10.103l-4.641 2.81z" fill="#fff"/><path d="m303.228002 43.32 4.641-2.81v10.103l-4.641 2.81z" fill="#fff"/><path d="m320.908002 32.933 4.641-2.81v10.103l-4.641 2.81z" fill="#fff"/><path d="m229.227002 175.574c-2.541-.436-5.285 2.349-6.194 6.34-.792 3.479.065 6.753 1.936 8.026l2.933 1.277c.071.022.143.042.216.059 2.592.606 5.447-2.216 6.378-6.303.811-3.563-.107-6.911-2.073-8.114z" fill="#26325b"/><path d="m245.772002 197.708c-1.396-.322-2.116-2.366-1.608-4.566.508-2.199 2.052-3.721 3.448-3.399 1.397.323 2.117 2.367 1.609 4.566-.508 2.2-2.052 3.722-3.449 3.399z" fill="#fdfefe" fill-rule="nonzero"/><path d="m250.813002 187.56c-2.541-.436-5.285 2.349-6.194 6.34-.792 3.479.065 6.753 1.936 8.026l2.933 1.277c.071.022.143.042.216.059 2.592.606 5.447-2.215 6.378-6.303.811-3.563-.108-6.911-2.073-8.114z" fill="#26325b"/><path d="m251.016002 200.106c-1.397-.322-2.117-2.367-1.609-4.566.508-2.2 2.052-3.722 3.449-3.399 1.396.322 2.117 2.366 1.609 4.566-.508 2.199-2.052 3.721-3.449 3.399z" fill="#fdfefe" fill-rule="nonzero"/><path d="m228.546002 187.696c-1.263-.291-1.92-2.113-1.468-4.07s1.842-3.307 3.105-3.016c1.262.291 1.919 2.114 1.467 4.071-.452 1.956-1.842 3.307-3.104 3.015z" fill="#fdfefe" fill-rule="nonzero"/><path d="m324.132002 131.181-62.958 30.564v29.366l62.958-30.564z" fill="#b0cfe5"/><path d="m324.132002 152.756-62.958 30.564v7.791l62.958-30.564z" fill="#26325b"/><path d="m295.951002 115-62.359 30.564 27.582 16.181 62.958-30.564z" fill="#e7ebff"/><path d="m261.174002 161.745-27.582-16.181v29.366l27.582 16.181z" fill="#26325b"/><path d="m233.592002 155.752-12.592 5.993 23.385 14.383 13.191-6.592z" fill="#c5ebfe"/><path d="m257.576002 169.536-13.191 6.592v23.373l2.666-1.602c.221-5.724 1.731-8.786 4.529-9.185 2.798-.4 4.359 1.217 4.683 4.851l1.313-.656z" fill="#fdfefe"/><path d="m244.385002 176.128-23.385-14.383v24.571l23.385 13.185z" fill="#c5ebfe"/><path d="m314.974002 161.224c-1.325-.309-2.724.318-3.876 1.567-.425-.239-3.275.228-8.552 1.4.423 3.797.412 6.191 2.722 7.359.049.025 5.702 3.724 6.459 3.901 2.486.58 5.227-2.134 6.124-6.062.897-3.929-.391-7.584-2.877-8.165z" fill="#26325b"/><path d="m312.978002 172.497c-1.398-.323-2.125-2.341-1.625-4.509.501-2.167 2.04-3.663 3.438-3.34 1.398.322 2.126 2.341 1.625 4.508-.501 2.168-2.04 3.664-3.438 3.341z" fill="#fdfefe" fill-rule="nonzero"/><path d="m286.671002 175.01c-1.377-.318-2.829.326-4.026 1.607-.441-.244-3.402.235-8.881 1.437.439 3.897.428 6.353 2.826 7.551.051.026 5.922 3.822 6.709 4.003 2.581.596 5.428-2.189 6.36-6.22.931-4.031-.407-7.782-2.988-8.378z" fill="#26325b"/><path d="m284.415002 186.637c-1.452-.335-2.206-2.437-1.684-4.695.521-2.257 2.121-3.815 3.573-3.48s2.206 2.436 1.685 4.694c-.522 2.257-2.122 3.816-3.574 3.481z" fill="#fdfefe" fill-rule="nonzero"/><path d="m304.781002 166.018c-1.326-.309-2.724.318-3.876 1.567-.425-.239-3.276.228-8.552 1.4.423 3.798.412 6.191 2.722 7.359.049.025 5.702 3.724 6.459 3.901 2.486.581 5.227-2.133 6.124-6.062.896-3.929-.392-7.584-2.877-8.165z" fill="#26325b"/><path d="m302.785002 177.291c-1.398-.322-2.126-2.341-1.625-4.508.501-2.168 2.04-3.664 3.438-3.341s2.125 2.341 1.624 4.509c-.5 2.167-2.039 3.663-3.437 3.34z" fill="#fdfefe" fill-rule="nonzero"/><path d="m275.704002 180.292c-1.376-.318-2.828.326-4.025 1.607-.441-.244-3.402.234-8.881 1.437.438 3.897.428 6.353 2.826 7.551.051.026 5.922 3.822 6.708 4.003 2.582.596 5.429-2.189 6.36-6.22.932-4.032-.406-7.782-2.988-8.378z" fill="#26325b"/><path d="m273.449002 191.919c-1.452-.335-2.206-2.437-1.685-4.695.522-2.257 2.121-3.816 3.573-3.481s2.207 2.437 1.685 4.695c-.521 2.257-2.121 3.816-3.573 3.481z" fill="#fdfefe" fill-rule="nonzero"/><path d="m244.385002 176.128-23.385-13.784v9.589l23.385 13.784z" fill="#26325b"/><path d="m256.377002 170.735-10.793 5.393v8.99l10.793-5.394z" fill="#26325b"/><ellipse cx="176.500002" cy="130.5" fill="#dfebf3" fill-rule="nonzero" rx="23.5" ry="10.5"/><path d="m167.660002 120.984 6.106.277-1.11 5.828h-4.441z" fill="#272727" fill-rule="nonzero"/><path d="m186.000002 60.744c0 1.727 2.196 4.182 1.919 4.737-.278.555 2.345 3.926 4.162 3.053 1.856-.892-.234-4.803 0-5.273 0-1.11.278-.833 0-1.665l-.999-1.727-2.642-10.177-1.909-4.469-4.031-.979z" fill="#26325b"/><path d="m167.643002 129.222.395 6.368c1.308 1.883 2.64 2.711 3.997 2.483 1.358-.227 2.244-1.571 2.66-4.032l-1.27-3.522-.577-2.666-.432-1.332c-.706-.523-1.449-.784-2.228-.784-.778 0-1.495.46-2.15 1.38z" fill="#272727"/><path d="m177.534002 123.353v2.384c.55.349.934.524 1.15.524s.95.155 2.2.465c.587.058 1.018.178 1.292.359.273.181 1.081.655 2.422 1.421 1.145.658 2.167 1.022 3.068 1.092.9.071 1.973-.036 3.219-.318.234-.1.234-.358 0-.774-.351-.624-4.709-3.246-5.332-3.883-.415-.425-1.151-1.268-2.207-2.529l-.422-2.22-5.39-.278s.117 1.665 0 2.498z" fill="#272727"/><path d="m166.774002 80.883.869 20.51v21.622c1.811 1.425 2.228 2.89 3.347 2.409.435-.282 2.52-1.13 3.053-1.665l.377-19.597v-1.543l1.602-9.997h.405l.45 11.754.496 15.775c.735.402 1.828.833 2.22.833s1.012-.093 3.885-.278l.698-16.33.345-10.363.782-8.719v-7.054c-3.768 1.762-6.048 2.643-6.841 2.643-.792 0-4.749-.574-11.87-1.723z" fill="#26325b"/><path d="m170.172002 47.02c1.108-.998 2.047-1.497 2.818-1.497s2.378-.37 4.82-1.111l4.376 3.486 1.807 7.691v22.652l-1.143 1.95c-1.024.891-1.866 1.337-2.525 1.337-.66 0-2.949-.215-6.869-.645l-4.091-28.725z" fill="#26325b"/><path d="m170.172002 47.02c1.281 3.726 2.208 6.122 2.782 7.189s2.087 3.907 4.54 8.522l.771 6.756 1.049 11.966c-1.459 3.651-2.58 5.477-3.365 5.477-.784 0-1.937-.646-3.458-1.938l-5.786 3.544c-.419-5.582-.419-8.83 0-9.744.419-.913.81-2.983 1.171-6.209l-1.171-14.704c-1.036963-4.803-1.296-7.441-.778-7.915.519-.474 1.934-1.456 4.245-2.944z" fill="#26325b"/><path d="m179.315002 47.02c1.057 1.165 1.82 2.411 2.288 3.736s.468 4.539 0 9.642l-.969 10.466c.082 4.101.405 6.56.969 7.376.564.817 1.213 3.714 1.946 8.69h1.754l.358-28.396c.41-3.148.551-5.74.422-7.778-.194-3.057.599-3.125-1.266-5.518-1.244-1.595-2.638-2.288-4.183-2.081l-4.068 1.606z" fill="#26325b"/><path d="m186.000002 57.744-3.5-8-3.5-6-1.072.646 3.572 4.854-8.5 1-.622-3.079 1.11-2.22-2.488 1.299-2.559 16.082-4.666 3.532.636 45.164s3.742 1.662 6.302 1.942c2.594.285 6.66-.555 6.66-.555l3.608-1.387 1.665 1.387 5.731-2.218-.849-43.295z" fill="#eaf7ff" fill-rule="nonzero"/><path d="m168.551002 64.649v-8.144l-.867-4.086c-1.662-2.392 2.817-5.175 2.316-5.175s-6.584 2.168-7.129 3.33l-1.871 6.866v12.062l1.871 3.472 10.617-3.472v-4.853z" fill="#26325b" fill-rule="nonzero"/><path d="m179.248002 44.764c-.593 1.157.623 3.152-1.875 3.635-.695.226-3.33-.483-3.33-.483l-1.379-1.028v-2.966l-3.144-4.422-.75-2.808.278-2.498.472-2.863c1.853-1.502 3.234-2.254 4.145-2.254s3.064.328 6.459.983l2.376 1.271-1 2.413-.797 6.761-1.787 1.981z" fill="#d7bea6"/><path d="m184.500002 60.744-11.5 4.5 3 2 2-.5-2 1.5 8.5-6 1 1 3.5-2 .5-.5-1-1.5v-1l-.5-.5h-2l-1 1.5z" fill="#c5ebfe" fill-rule="nonzero"/><path d="m172.142002 69.085-.387-4.219c1.832-.78 2.895-1.105 3.19-.978.443.192-1.301 1.181-1.072 1.47.153.192.825.098 2.017-.28l3.426-1.19v.761l-3.426 1.387 2.821-.678-.505 2.621-1.895 1.735-3.789-.352z" fill="#d7bea6"/><ellipse cx="189.566002" cy="65.028" fill="#26325b" fill-rule="nonzero" rx="3.45245" ry="4.86877" transform="matrix(.95832407 -.28568335 .28568335 .95832407 -10.677077 56.865953)"/><path d="m185.976002 64.165 1.663 2.981 1.667-6.66-3.33.951z" fill="#d7bea6"/><path d="m166.587002 32.623.412-1.602 1.128-.694 4.692-2.053 3.515-.959 2.645.371 3.287 1.157.975.717.835 1.872-.346-.089-1.147-1.072-3.559-.917-2.932.333-5.336 2.301-2.033 1.548-1.497.287z" fill="#75aac9" fill-rule="nonzero"/><path d="m177.633002 30.377-4.594 1.364-3.039 1.259-1 4-1.5-2v-1.5l3.526-1.655 5.539-2.535 3.029-.295c1.146.276 3.476.849 3.626.933s.698.765.953 1.095l-.675 1.58-1.747 1.362.178-.69.638-1.647c-.365-.32-1.18-1.006-1.52-1.184-.341-.178-2.418-.132-3.414-.087z" fill="#26325b" fill-rule="nonzero"/><path d="m179.500002 32.244c0-.8-1-1.667-1.5-2h3.5l1 1.5-1 2-1.5 1.5v-2l-1 .5c.167-.167.5-.7.5-1.5z" fill="#000" fill-rule="nonzero"/><path d="m169.601002 213.709 35.736-20.62v21.636l-35.736 21.007z" fill="#26325b"/><path d="m106.164002 144.421 99.172 48.669-35.644 20.665-99.7859996-48.872z" fill="#75aac9"/><path d="m69.9060024 164.883 99.6949996 48.826v21.987l-99.6949996-48.826z" fill="#373636"/><path d="m107.777002 190.26 3.879 1.895v8.423l-3.879-1.895z" fill="#534e4e"/><path d="m113.502002 193.208 3.879 1.895v8.423l-3.879-1.895z" fill="#534e4e"/><path d="m119.597002 196.156 3.879 1.895v8.423l-3.879-1.895z" fill="#534e4e"/><path d="m125.324002 198.92 3.878 1.895v8.423l-3.878-1.895z" fill="#534e4e"/><path d="m143.240002 207.579 3.879 1.896v8.423l-3.879-1.896z" fill="#534e4e"/><path d="m148.966002 210.343 3.879 1.895v8.423l-3.879-1.895z" fill="#534e4e"/><path d="m131.419002 201.868 3.879 1.895v8.423l-3.879-1.895z" fill="#534e4e"/><path d="m137.144002 204.631 3.879 1.896v8.423l-3.879-1.896z" fill="#534e4e"/><path d="m155.061002 213.291 3.879 1.896v8.423l-3.879-1.896z" fill="#534e4e"/><path d="m160.787002 216.055 3.879 1.895v8.423l-3.879-1.895z" fill="#534e4e"/><path d="m72.4430024 173.007 3.866 1.921v8.536l-3.866-1.921z" fill="#534e4e"/><path d="m90.3000024 181.783 3.866 1.921v8.536l-3.866-1.921z" fill="#534e4e"/><path d="m96.0070024 184.584 3.866 1.921v8.536l-3.866-1.921z" fill="#534e4e"/><path d="m78.5170024 175.995 3.866 1.92v8.537l-3.866-1.921z" fill="#534e4e"/><path d="m84.2250024 178.796 3.866 1.92v8.537l-3.866-1.921z" fill="#534e4e"/><path d="m102.082002 187.572 3.867 1.921v8.536l-3.867-1.921z" fill="#534e4e"/><path d="m175.444002 216.82 4.108-2.324v8.356l-4.108 2.324z" fill="#dff2ff"/><path d="m190.234002 208.193 4.109-2.324v8.356l-4.109 2.325z" fill="#dff2ff"/><path d="m182.839002 212.301 4.109-2.324v8.356l-4.109 2.325z" fill="#dff2ff"/><path d="m197.220002 204.086 4.109-2.324v8.356l-4.109 2.324z" fill="#dff2ff"/><path d="m129.017002 192.367 40.676-23.329v66.632l-40.676 23.329z" fill="#26325b"/><path d="m70.3920024 120.566 99.2999996 48.369-40.516 23.517-99.1759996-48.111z" fill="#75aac9"/><path d="m152.025002 162.416 17.667-10.22v16.892l-17.667 10.22z" fill="#26325b"/><path d="m52.5980024 113.944 17.666-10.22v16.892l-17.666 10.22z" fill="#d8d8d8" stroke="#979797"/><path d="m70.3740024 103.724 99.3179996 48.509-17.771 10.233-99.3229996-48.499z" fill="#75aac9"/><path d="m67.3890024 67.844 10.092.728 1.001 46.192-.04-.004c-.308 1.613-3.07 2.713-6.338 2.482-3.395-.24-6.051-1.825-5.933-3.541l-.002.044-.013-.001z" fill="#26325b"/><path d="m72.2630024 70.724c2.793.195 5.137-.793 5.236-2.207.099-1.415-2.085-2.719-4.878-2.915-2.793-.195-5.137.793-5.236 2.207-.099 1.415 2.085 2.719 4.878 2.915z" fill="#1d1d1d" fill-rule="nonzero"/><path d="m89.9270024 59.914c.659-.923.444-2.206-.48-2.865-.923-.658-2.206-.444-2.865.48-.056.079-.106.161-.15.245-.201-.369-.487-.7-.853-.96-1.293-.923-3.089-.622-4.011.671-.022.031-.043.062-.064.094-.36-.669-.876-1.269-1.537-1.74-1.998-1.425-4.669-1.214-6.419.365-.674-.031-1.349.269-1.77.859-.282.396-.404.856-.379 1.306-.098-.111-.211-.212-.337-.302-.923-.659-2.206-.444-2.865.48s-.444 2.206.48 2.865c.413.295.899.415 1.368.374-.221.198-.424.424-.604.676-1.317 1.847-.888 4.413.959 5.73 1.847 1.318 4.412.888 5.73-.96.001-.001.003-.003.004-.005 1.368.846 3.178.496 4.126-.834.143-.199.258-.41.347-.628 1.19.449 2.579.063 3.353-1.022.59-.827.68-1.86.33-2.738.761-.101 1.479-.506 1.96-1.18.182-.256.317-.531.405-.814.114.142.25.272.407.383.923.659 2.206.444 2.865-.48zm-18.012.919-.069.015c-.103.024-.204.052-.305.084.149-.209.254-.435.315-.669.009.191.028.381.059.57z" fill="#dfebf3"/><path d="m180.292002 60.601c-.02-.681.514-1.249 1.195-1.27.68-.02 1.248.515 1.269 1.195.02.681-.515 1.249-1.195 1.269-.68.021-1.248-.514-1.269-1.194z" fill="#dfebf3" fill-rule="nonzero"/><path d="m183.079002 57.639c-.013-.453.343-.832.797-.846.453-.013.832.343.846.797.013.453-.343.832-.797.846-.453.014-.832-.343-.846-.797z" fill="#dfebf3" fill-rule="nonzero"/><path d="m115.869002 90.436 10.092.729 1.001 46.192-.039-.004c-.308 1.613-3.07 2.713-6.338 2.482-3.396-.24-6.052-1.825-5.933-3.541l-.002.044-.013-.001z" fill="#26325b"/><path d="m120.743002 93.316c2.793.196 5.137-.793 5.236-2.207s-2.085-2.719-4.877-2.914c-2.793-.195-5.138.793-5.237 2.207-.098 1.414 2.085 2.719 4.878 2.914z" fill="#1d1d1d" fill-rule="nonzero"/><path d="m92.8610024 79.345 10.0919996.729 1.001 46.192-.04-.004c-.307 1.613-3.069 2.713-6.3379996 2.482-3.395-.24-6.051-1.825-5.932-3.541l-.002.044-.014-.001z" fill="#26325b"/><path d="m97.7360024 82.225c2.7929996.196 5.1369996-.792 5.2359996-2.207.099-1.414-2.085-2.719-4.8779996-2.914-2.793-.195-5.137.793-5.236 2.207s2.085 2.719 4.878 2.914z" fill="#1d1d1d" fill-rule="nonzero"/><path d="m116.169002 72.761c.887.707 1.032 2 .324 2.886-.708.887-2 1.032-2.887.324-.076-.061-.147-.126-.212-.195-.092.411-.276.807-.557 1.158-.99 1.241-2.8 1.444-4.041.453-.03-.023-.059-.048-.087-.072-.163.742-.495 1.46-1.002 2.094-1.531 1.919-4.157 2.448-6.273 1.408-.639.215-1.371.111-1.9379996-.341-.379-.303-.623-.713-.722-1.152-.064.134-.145.262-.241.383-.708.886-2 1.031-2.887.324-.887-.708-1.032-2.001-.324-2.887.317-.397.751-.646 1.214-.735-.267-.13-.525-.292-.766-.485-1.774-1.415-2.064-4-.649-5.773 1.416-1.773 4-2.063 5.7739996-.647.002.001.003.002.005.004 1.084-1.189 2.921-1.348 4.197-.329.192.153.36.324.505.509 1.022-.758 2.464-.767 3.506.064.793.634 1.163 1.602 1.067 2.542.759-.11 1.561.082 2.209.599.245.195.449.423.612.672.071-.169.166-.331.286-.481.708-.886 2-1.031 2.887-.323zm-17.5739996 4.052-.071.005c-.105.005-.21.005-.316.002.201.16.363.35.487.558-.045-.186-.078-.375-.1-.565z" fill="#dfebf3"/><path d="m118.163002 77.506c.532.425 1.308.338 1.732-.194.425-.532.338-1.307-.194-1.732s-1.308-.338-1.732.194c-.425.532-.338 1.308.194 1.732z" fill="#dfebf3" fill-rule="nonzero"/><path d="m122.205002 77.053c.355.284.872.226 1.155-.129s.225-.872-.13-1.155-.872-.225-1.155.13c-.283.354-.225.871.13 1.154z" fill="#dfebf3" fill-rule="nonzero"/><path d="m91.3240024 56.566c-1.135 0-2.054.92-2.054 2.054s.919 2.054 2.054 2.054c.097 0 .193-.007.287-.02-.184.378-.287.803-.287 1.252 0 1.588 1.288 2.876 2.876 2.876.038 0 .076-.001.113-.003-.336.682-.524 1.45-.524 2.262 0 2.454 1.723 4.507 4.025 5.014.365.567 1.002.942 1.727.942.4849996 0 .9309996-.168 1.2829996-.449-.033.144-.05.295-.05.449 0 1.135.919 2.054 2.054 2.054s2.054-.919 2.054-2.054c0-.508-.184-.973-.49-1.331.29.065.592.099.901.099 2.269 0 4.109-1.839 4.109-4.108s-1.84-4.108-4.109-4.108c-.002 0-.004 0-.006 0-.106-1.605-1.442-2.875-3.075-2.875-.246 0-.484.029-.713.083-.325-1.23-1.447-2.137-2.7799996-2.137-1.015 0-1.908.526-2.42 1.321-.524-.56-1.271-.91-2.099-.91-.314 0-.616.05-.898.143.05-.176.076-.362.076-.554 0-1.134-.92-2.054-2.054-2.054zm11.2069996 14.131.052.048c.079.069.161.135.245.199-.256-.001-.501.046-.728.132.151-.118.295-.245.431-.379z" fill="#dfebf3"/><path d="m86.8050024 59.031c-.681 0-1.233-.552-1.233-1.233 0-.68.552-1.232 1.233-1.232.68 0 1.232.552 1.232 1.232 0 .681-.552 1.233-1.232 1.233z" fill="#dfebf3" fill-rule="nonzero"/><path d="m83.9290024 56.155c-.454 0-.822-.367-.822-.821s.368-.822.822-.822c.453 0 .821.368.821.822s-.368.821-.821.821z" fill="#dfebf3" fill-rule="nonzero"/><path d="m164.504002 84.579c.414-1.056-.108-2.248-1.164-2.661s-2.248.108-2.661 1.165c-.036.09-.064.182-.086.274-.285-.309-.644-.56-1.062-.723-1.479-.579-3.147.151-3.726 1.63-.013.035-.027.071-.039.106-.513-.561-1.159-1.016-1.915-1.312-2.286-.894-4.824-.038-6.136 1.921-.661.134-1.243.591-1.507 1.265-.176.452-.182.929-.048 1.359-.123-.084-.257-.154-.401-.211-1.056-.413-2.248.108-2.661 1.165s.108 2.248 1.164 2.661c.473.186.974.183 1.419.029-.166.246-.308.515-.421.803-.827 2.113.216 4.496 2.328 5.323 2.113.827 4.496-.216 5.323-2.329.001-.002.002-.004.002-.007 1.534.487 3.204-.295 3.798-1.815.09-.229.15-.461.183-.694 1.264.145 2.517-.569 3.003-1.81.37-.946.205-1.969-.349-2.735.713-.284 1.311-.852 1.613-1.623.114-.293.177-.592.194-.889.146.111.309.203.488.273 1.056.413 2.248-.108 2.661-1.165zm-17.243 5.287-.063.032c-.094.048-.185.1-.275.156.094-.239.139-.484.142-.726.055.183.121.363.196.538z" fill="#dfebf3"/><path d="m141.126002 70.589c.413-1.057-.108-2.248-1.164-2.662-1.057-.413-2.248.109-2.662 1.165-.035.091-.064.183-.086.275-.285-.31-.643-.56-1.061-.724-1.479-.579-3.147.151-3.726 1.631-.014.035-.027.07-.039.106-.513-.561-1.159-1.017-1.915-1.312-2.286-.895-4.825-.038-6.136 1.921-.661.134-1.243.59-1.507 1.265-.177.452-.183.929-.049 1.358-.122-.083-.256-.154-.4-.21-1.056-.414-2.248.108-2.661 1.164-.414 1.057.107 2.249 1.164 2.662.473.185.973.183 1.418.029-.166.246-.307.514-.42.803-.827 2.113.215 4.496 2.328 5.323 2.113.826 4.496-.217 5.322-2.33.001-.002.002-.004.003-.006 1.534.487 3.203-.295 3.798-1.816.089-.228.15-.461.183-.694 1.264.146 2.517-.568 3.002-1.81.37-.945.205-1.968-.348-2.735.713-.284 1.311-.852 1.613-1.623.114-.292.177-.591.194-.888.145.11.309.203.487.273 1.057.413 2.248-.109 2.662-1.165zm-17.243 5.287-.064.032c-.093.048-.185.1-.274.155.093-.238.139-.484.142-.726.055.184.12.363.196.539z" fill="#dfebf3"/><path d="m163.855002 79.473c.248-.634.963-.947 1.597-.699s.947.963.699 1.597-.963.946-1.597.698-.947-.963-.699-1.596z" fill="#dfebf3" fill-rule="nonzero"/><path d="m167.581002 77.842c.166-.423.642-.631 1.065-.466.422.165.631.642.465 1.065-.165.422-.642.631-1.064.466-.423-.166-.631-.642-.466-1.065z" fill="#dfebf3" fill-rule="nonzero"/><path d="m110.506002 54.406c.658-.924.444-2.206-.48-2.865-.923-.659-2.206-.444-2.865.48-.056.079-.106.161-.15.245-.201-.369-.487-.7-.853-.961-1.293-.922-3.089-.621-4.011.672-.022.031-.043.062-.064.094-.36-.67-.876-1.269-1.537-1.74-1.9979996-1.426-4.6689996-1.215-6.4189996.365-.674-.032-1.349.269-1.77.859-.282.395-.404.856-.379 1.306-.098-.111-.211-.213-.337-.302-.923-.659-2.206-.444-2.865.48-.659.923-.444 2.206.479 2.865.414.295.9.414 1.369.374-.221.198-.424.424-.604.676-1.317 1.847-.888 4.413.959 5.73s4.412.888 5.73-.96c.001-.002.002-.003.004-.005 1.368.846 3.178.495 4.1259996-.834.143-.2.258-.411.347-.628 1.19.449 2.579.063 3.353-1.023.59-.826.68-1.859.33-2.737.761-.102 1.479-.506 1.96-1.181.182-.255.317-.53.405-.814.114.143.25.272.407.384.923.659 2.206.444 2.865-.48zm-18.0129996.919-.068.015c-.103.024-.204.052-.305.084.149-.209.253-.436.315-.67.008.191.028.382.058.571z" fill="#dfebf3"/><path d="m115.887002 49.769c.384-.562 1.151-.705 1.713-.321s.705 1.151.321 1.713-1.151.706-1.713.321c-.562-.384-.705-1.151-.321-1.713z" fill="#dfebf3" fill-rule="nonzero"/><path d="m119.884002 49.019c.256-.374.767-.47 1.142-.214.374.256.47.768.214 1.142-.256.375-.768.471-1.142.215-.375-.257-.47-.768-.214-1.143z" fill="#dfebf3" fill-rule="nonzero"/><path d="m124.876002 49.29c.162-.237.485-.298.722-.136.236.162.297.485.135.722s-.485.297-.722.135c-.236-.162-.297-.485-.135-.721z" fill="#dfebf3" fill-rule="nonzero"/><path d="m76.8370024 54.431c-1.134 0-2.054.919-2.054 2.054 0 1.134.92 2.053 2.054 2.053.098 0 .194-.006.287-.019-.184.378-.287.803-.287 1.252 0 1.588 1.288 2.875 2.876 2.875.038 0 .076 0 .114-.002-.336.682-.524 1.45-.524 2.262 0 2.454 1.722 4.506 4.024 5.014.366.567 1.003.942 1.728.942.485 0 .931-.168 1.282-.45-.033.145-.05.295-.05.45 0 1.134.92 2.054 2.054 2.054 1.135 0 2.055-.92 2.055-2.054 0-.508-.185-.973-.49-1.332.289.065.591.1.901.1 2.269 0 4.108-1.84 4.108-4.108 0-2.269-1.839-4.108-4.108-4.108-.003 0-.005 0-.007 0-.106-1.606-1.442-2.876-3.075-2.876-.245 0-.484.029-.713.083-.325-1.23-1.446-2.136-2.779-2.136-1.016 0-1.908.526-2.42 1.321-.525-.561-1.271-.911-2.1-.911-.313 0-.615.051-.898.143.05-.176.077-.361.077-.553 0-1.135-.92-2.054-2.055-2.054zm11.207 14.131.052.047c.079.07.161.136.246.199-.257 0-.502.047-.728.132.15-.117.294-.244.43-.378z" fill="#dfebf3"/><path d="m72.3180024 56.895c-.681 0-1.232-.551-1.232-1.232s.551-1.232 1.232-1.232 1.233.551 1.233 1.232-.552 1.232-1.233 1.232z" fill="#dfebf3" fill-rule="nonzero"/><path d="m69.4420024 54.02c-.454 0-.822-.368-.822-.822 0-.453.368-.821.822-.821s.822.368.822.821c0 .454-.368.822-.822.822z" fill="#dfebf3" fill-rule="nonzero"/><path d="m130.778002 66.637c.756-.846.684-2.145-.161-2.901-.846-.756-2.144-.684-2.901.162-.065.073-.123.149-.176.227-.159-.389-.407-.749-.742-1.049-1.184-1.058-3.002-.957-4.061.227-.025.028-.05.057-.074.086-.284-.705-.731-1.357-1.336-1.898-1.829-1.637-4.507-1.721-6.42-.343-.667-.106-1.371.119-1.854.659-.324.362-.496.806-.52 1.256-.086-.121-.187-.234-.302-.337-.845-.757-2.144-.684-2.9.161-.757.846-.684 2.145.161 2.901.379.339.848.511 1.319.522-.241.173-.468.375-.674.606-1.513 1.691-1.369 4.288.322 5.801 1.691 1.512 4.288 1.367 5.801-.324.002-.002.003-.003.005-.005 1.267.992 3.104.842 4.193-.375.163-.183.301-.38.413-.586 1.134.577 2.557.346 3.446-.647.677-.757.88-1.774.629-2.685.767-.018 1.525-.341 2.078-.958.209-.234.373-.492.492-.765.098.155.219.299.362.427.845.756 2.144.683 2.9-.162zm-18.004-1.069-.07.008c-.104.013-.208.029-.312.05.171-.191.3-.405.387-.631-.013.191-.014.383-.005.573z" fill="#dfebf3"/><path d="m131.954002 61.625c.454-.508 1.233-.551 1.741-.097.507.453.55 1.232.096 1.74-.453.507-1.233.551-1.74.097s-.55-1.233-.097-1.74z" fill="#dfebf3" fill-rule="nonzero"/><path d="m136.015002 61.398c.302-.338.822-.367 1.16-.065.338.303.367.822.064 1.161-.302.338-.822.367-1.16.064-.338-.302-.367-.822-.064-1.16z" fill="#dfebf3" fill-rule="nonzero"/><path d="m133.340002 73.62c1.134 0 2.054.92 2.054 2.054 0 1.135-.92 2.054-2.054 2.054-.098 0-.194-.007-.287-.02.184.378.287.803.287 1.252 0 1.589-1.288 2.876-2.876 2.876-.038 0-.076-.001-.114-.002.336.682.525 1.449.525 2.261 0 2.455-1.723 4.507-4.025 5.015-.366.566-1.003.942-1.727.942-.486 0-.932-.169-1.283-.45.033.144.05.295.05.45 0 1.134-.92 2.053-2.054 2.053-1.135 0-2.055-.919-2.055-2.053 0-.509.185-.973.491-1.332-.29.065-.592.099-.901.099-2.27 0-4.109-1.839-4.109-4.108 0-2.268 1.839-4.107 4.109-4.107h.006c.106-1.606 1.442-2.876 3.075-2.876.245 0 .484.029.713.083.325-1.23 1.446-2.137 2.779-2.137 1.016 0 1.909.527 2.42 1.321.525-.56 1.271-.91 2.1-.91.313 0 .615.05.898.143-.05-.176-.077-.362-.077-.554 0-1.134.92-2.054 2.055-2.054zm-11.207 14.132-.052.047c-.079.069-.161.136-.245.199.256 0 .501.047.727.132-.15-.118-.294-.244-.43-.378z" fill="#dfebf3"/><path d="m137.859002 76.085c.681 0 1.233-.552 1.233-1.232 0-.681-.552-1.233-1.233-1.233s-1.233.552-1.233 1.233c0 .68.552 1.232 1.233 1.232z" fill="#dfebf3" fill-rule="nonzero"/><path d="m140.735002 73.21c.454 0 .822-.368.822-.822s-.368-.821-.822-.821-.822.367-.822.821.368.822.822.822z" fill="#dfebf3" fill-rule="nonzero"/><path d="m141.754002 101.938 10.092.729 1.001 46.191-.04-.003c-.308 1.613-3.07 2.713-6.338 2.482-3.395-.24-6.051-1.825-5.933-3.541l-.002.044-.013-.001z" fill="#26325b"/><path d="m146.628002 104.818c2.793.196 5.137-.793 5.236-2.207s-2.085-2.719-4.877-2.914c-2.793-.195-5.138.793-5.237 2.207-.098 1.414 2.085 2.719 4.878 2.914z" fill="#1d1d1d" fill-rule="nonzero"/><path d="m152.976002 69.357c.512-1.012.105-2.248-.907-2.759-1.013-.512-2.248-.105-2.76.908-.044.087-.081.175-.111.265-.255-.335-.588-.618-.989-.821-1.417-.716-3.147-.147-3.863 1.271-.017.034-.033.068-.049.102-.457-.607-1.058-1.121-1.782-1.487-2.191-1.107-4.8-.494-6.291 1.332-.67.071-1.292.47-1.619 1.117-.219.433-.27.907-.177 1.348-.114-.095-.241-.178-.379-.247-1.012-.512-2.248-.105-2.759.907-.512 1.013-.105 2.249.907 2.76.454.229.952.274 1.41.163-.189.229-.355.483-.495.759-1.023 2.026-.21 4.497 1.815 5.519 2.025 1.023 4.496.21 5.519-1.815.001-.002.002-.004.003-.006 1.48.629 3.216.009 3.952-1.449.111-.219.193-.445.248-.673 1.244.264 2.559-.328 3.16-1.518.458-.907.39-1.941-.088-2.756.736-.216 1.385-.724 1.759-1.463.141-.28.232-.573.277-.867.134.124.288.232.46.318 1.012.512 2.248.105 2.759-.908zm-17.666 3.634-.065.025c-.098.039-.194.082-.289.129.116-.229.185-.469.21-.709.038.187.086.373.144.555z" fill="#dfebf3"/><path d="m179.792002 77.608c.511-1.013.105-2.249-.908-2.76-1.012-.511-2.248-.105-2.759.908-.044.087-.081.176-.112.265-.254-.335-.587-.618-.988-.821-1.418-.715-3.147-.146-3.863 1.271-.017.034-.034.068-.049.103-.458-.608-1.058-1.122-1.783-1.488-2.191-1.106-4.799-.494-6.29 1.333-.671.07-1.293.47-1.619 1.117-.219.433-.27.907-.177 1.347-.114-.094-.241-.177-.379-.247-1.013-.511-2.248-.105-2.76.908-.511 1.012-.105 2.248.908 2.759.453.229.952.274 1.409.163-.188.229-.355.483-.494.76-1.023 2.025-.211 4.496 1.814 5.519 2.025 1.022 4.496.21 5.519-1.816.001-.002.002-.004.003-.006 1.481.63 3.217.009 3.953-1.448.11-.219.192-.445.247-.674 1.245.264 2.56-.328 3.161-1.518.457-.906.39-1.94-.089-2.755.737-.216 1.386-.725 1.759-1.464.142-.28.233-.572.277-.866.135.124.289.231.46.318 1.013.511 2.248.104 2.76-.908zm-17.666 3.633-.066.025c-.098.04-.194.083-.288.129.116-.228.184-.468.21-.709.037.188.085.373.144.555z" fill="#dfebf3"/><path d="m152.813002 64.212c.307-.608 1.048-.852 1.656-.545.607.307.851 1.048.544 1.656s-1.048.851-1.655.545c-.608-.307-.852-1.049-.545-1.656z" fill="#dfebf3" fill-rule="nonzero"/><path d="m156.677002 62.941c.204-.405.698-.568 1.103-.363.405.204.568.698.363 1.103-.204.406-.698.568-1.103.364-.405-.205-.568-.699-.363-1.104z" fill="#dfebf3" fill-rule="nonzero"/><path d="m52.5980024 113.994 99.4269996 48.472v16.706l-99.4269996-48.291z" fill="#101010"/><path d="m56.4630024 120.977 5.209 2.519v6.297l-5.209-2.519z" fill="#dff2ff"/><path d="m64.1520024 124.895 5.21 2.519v6.297l-5.21-2.519z" fill="#dff2ff"/><path d="m72.4860024 128.782 5.209 2.568v6.421l-5.209-2.569z" fill="#dff2ff"/><path d="m80.1760024 132.527 5.209 2.568v6.421l-5.209-2.568z" fill="#dff2ff"/><path d="m104.123002 144.391 5.209 2.569v6.42l-5.209-2.568z" fill="#dff2ff"/><path d="m111.813002 148.137 5.209 2.568v6.421l-5.209-2.569z" fill="#dff2ff"/><path d="m88.5100024 136.586 5.209 2.569v6.42l-5.209-2.568z" fill="#dff2ff"/><path d="m96.2000024 140.332 5.2089996 2.568v6.421l-5.2089996-2.569z" fill="#dff2ff"/><path d="m120.146002 152.196 5.21 2.568v6.421l-5.21-2.568z" fill="#dff2ff"/><path d="m127.835002 155.942 5.21 2.568v6.42l-5.21-2.568z" fill="#dff2ff"/><path d="m136.169002 160.001 5.21 2.568v6.421l-5.21-2.568z" fill="#dff2ff"/><path d="m143.859002 163.746 5.21 2.569v6.42l-5.21-2.568z" fill="#dff2ff"/><path d="m30.0000024 143.98 99.0169996 48.547v66.472l-99.0169996-48.547z" fill="#101010"/><g fill="#dff2ff"><path d="m32.6330024 153.018 5.214 2.557v11.366l-5.214-2.557z"/><path d="m40.3300024 156.996 5.213 2.557v11.366l-5.213-2.557z"/><path d="m48.5230024 160.974 5.214 2.557v11.366l-5.214-2.557z"/><path d="m56.2190024 164.703 5.214 2.558v11.366l-5.214-2.558z"/><path d="m80.3020024 176.389 5.214 2.557v11.366l-5.214-2.557z"/><path d="m87.9980024 180.118 5.214 2.558v11.366l-5.214-2.558z"/><path d="m64.4120024 168.682 5.214 2.557v11.366l-5.214-2.558z"/><path d="m72.1090024 172.411 5.214 2.557v11.366l-5.214-2.557z"/><path d="m96.1920024 184.097 5.2129996 2.557v11.366l-5.2129996-2.558z"/><path d="m103.888002 187.826 5.214 2.557v11.366l-5.214-2.557z"/><path d="m112.329002 192.053 5.214 2.557v11.366l-5.214-2.557z"/><path d="m120.026002 195.782 5.213 2.557v11.366l-5.213-2.557z"/><path d="m32.6330024 170.681 5.214 2.558v11.366l-5.214-2.558z"/><path d="m40.3300024 174.659 5.213 2.558v11.366l-5.213-2.558z"/><path d="m48.5230024 178.637 5.214 2.558v11.366l-5.214-2.558z"/><path d="m56.2190024 182.367 5.214 2.557v11.366l-5.214-2.557z"/><path d="m80.3020024 194.052 5.214 2.558v11.366l-5.214-2.558z"/><path d="m87.9980024 197.782 5.214 2.557v11.366l-5.214-2.557z"/><path d="m64.4120024 186.345 5.214 2.557v11.366l-5.214-2.557z"/><path d="m72.1090024 190.074 5.214 2.558v11.366l-5.214-2.558z"/><path d="m96.1920024 201.76 5.2129996 2.557v11.366l-5.2129996-2.557z"/><path d="m103.888002 205.49 5.214 2.557v11.366l-5.214-2.558z"/><path d="m112.329002 209.716 5.214 2.558v11.365l-5.214-2.557z"/><path d="m120.026002 213.446 5.213 2.557v11.366l-5.213-2.557z"/><path d="m32.6330024 188.345 5.214 2.557v11.366l-5.214-2.557z"/><path d="m40.3300024 192.323 5.213 2.557v11.366l-5.213-2.557z"/><path d="m48.5230024 196.301 5.214 2.557v11.366l-5.214-2.557z"/><path d="m56.2190024 200.03 5.214 2.558v11.366l-5.214-2.558z"/><path d="m80.3020024 211.716 5.214 2.557v11.366l-5.214-2.557z"/><path d="m87.9980024 215.446 5.214 2.557v11.366l-5.214-2.558z"/><path d="m64.4120024 204.009 5.214 2.557v11.366l-5.214-2.558z"/><path d="m72.1090024 207.738 5.214 2.557v11.366l-5.214-2.557z"/><path d="m96.1920024 219.424 5.2129996 2.557v11.366l-5.2129996-2.557z"/><path d="m103.888002 223.153 5.214 2.557v11.366l-5.214-2.557z"/><path d="m112.329002 227.38 5.214 2.557v11.366l-5.214-2.557z"/><path d="m120.026002 231.109 5.213 2.557v11.366l-5.213-2.557z"/></g><path d="m160.156002 86.685c1.134 0 2.054.919 2.054 2.054 0 1.134-.92 2.053-2.054 2.053-.097 0-.193-.006-.287-.019.184.378.287.803.287 1.252 0 1.588-1.288 2.875-2.876 2.875-.038 0-.076 0-.113-.002.335.682.524 1.45.524 2.262 0 2.454-1.723 4.506-4.025 5.014-.365.567-1.003.942-1.727.942-.486 0-.932-.168-1.283-.45.033.145.05.295.05.45 0 1.134-.92 2.054-2.054 2.054-1.135 0-2.054-.92-2.054-2.054 0-.508.184-.973.49-1.332-.29.065-.592.1-.901.1-2.269 0-4.109-1.84-4.109-4.108 0-2.269 1.84-4.108 4.109-4.108h.006c.106-1.606 1.442-2.876 3.075-2.876.246 0 .484.029.713.083.325-1.23 1.446-2.136 2.779-2.136 1.016 0 1.909.526 2.42 1.321.525-.561 1.272-.911 2.1-.911.314 0 .615.051.898.143-.05-.176-.076-.361-.076-.553 0-1.135.919-2.054 2.054-2.054zm-11.207 14.131-.052.047c-.079.07-.161.136-.245.199.256 0 .501.047.727.133-.15-.118-.294-.245-.43-.379z" fill="#dfebf3"/><path d="m164.675002 89.149c.681 0 1.233-.551 1.233-1.232s-.552-1.232-1.233-1.232c-.68 0-1.232.551-1.232 1.232s.552 1.232 1.232 1.232z" fill="#dfebf3" fill-rule="nonzero"/><path d="m167.552002 86.274c.454 0 .821-.368.821-.822 0-.453-.367-.821-.821-.821s-.822.368-.822.821c0 .454.368.822.822.822z" fill="#dfebf3" fill-rule="nonzero"/><path d="m431.017002 217 40.676-23v47.67l-40.676 23.329z" fill="#26325b"/><path d="m372.392002 145.614 99.3 48.369-40.516 23.517-99.176-48.111z" fill="#75aac9"/><path d="m398.083002 176.511 41.917-24.328v26.355l-41.917 24.328z" fill="#26325b"/><path d="m402.187002 133 37.813 19.183-41.813 24.383-37.766-19.08z" fill="#75aac9"/><path d="m360.000002 157 37.662 19.216v26.311l-37.662-19.216z" fill="#101010"/><path d="m365.246002 168.869 4.468 2.273v10.103l-4.468-2.273z" fill="#fff"/><path d="m371.842002 172.184 4.468 2.273v10.103l-4.468-2.273z" fill="#fff"/><path d="m378.226002 175.499 4.468 2.273v10.103l-4.468-2.273z" fill="#fff"/><path d="m384.822002 178.814 4.468 2.273v10.103l-4.468-2.273z" fill="#fff"/><path d="m405.104002 181.624 4.469-2.81v10.103l-4.469 2.81z" fill="#fff"/><path d="m422.127002 171.237 4.468-2.81v10.103l-4.468 2.81z" fill="#fff"/><path d="m413.616002 176.32 4.468-2.81v10.103l-4.468 2.81z" fill="#fff"/><path d="m430.638002 165.933 4.468-2.81v10.103l-4.468 2.81z" fill="#fff"/><path d="m332.000002 168.981 99.017 48.546v47.472l-99.017-48.547z" fill="#101010"/><path d="m334.633002 176.681 5.214 2.558v11.366l-5.214-2.558z" fill="#dff2ff"/><path d="m342.330002 180.66 5.213 2.557v11.366l-5.213-2.558z" fill="#dff2ff"/><path d="m350.523002 184.638 5.214 2.557v11.366l-5.214-2.557z" fill="#dff2ff"/><path d="m358.219002 188.367 5.214 2.557v11.366l-5.214-2.557z" fill="#dff2ff"/><path d="m382.302002 200.053 5.214 2.557v11.366l-5.214-2.557z" fill="#dff2ff"/><path d="m389.998002 203.782 5.214 2.557v11.366l-5.214-2.557z" fill="#dff2ff"/><path d="m366.412002 192.345 5.214 2.558v11.365l-5.214-2.557z" fill="#dff2ff"/><path d="m374.109002 196.075 5.214 2.557v11.366l-5.214-2.557z" fill="#dff2ff"/><path d="m398.192002 207.76 5.213 2.557v11.366l-5.213-2.557z" fill="#dff2ff"/><path d="m405.888002 211.49 5.214 2.557v11.366l-5.214-2.557z" fill="#dff2ff"/><path d="m414.329002 215.716 5.214 2.558v11.366l-5.214-2.558z" fill="#dff2ff"/><path d="m422.026002 219.446 5.213 2.557v11.366l-5.213-2.557z" fill="#dff2ff"/><path d="m334.633002 194.345 5.214 2.557v11.366l-5.214-2.557z" fill="#dff2ff"/><path d="m342.330002 198.323 5.213 2.557v11.366l-5.213-2.557z" fill="#dff2ff"/><path d="m350.523002 202.301 5.214 2.557v11.366l-5.214-2.557z" fill="#dff2ff"/><path d="m358.219002 206.03 5.214 2.558v11.366l-5.214-2.558z" fill="#dff2ff"/><path d="m382.302002 217.716 5.214 2.557v11.366l-5.214-2.557z" fill="#dff2ff"/><path d="m389.998002 221.446 5.214 2.557v11.366l-5.214-2.558z" fill="#dff2ff"/><path d="m366.412002 210.009 5.214 2.557v11.366l-5.214-2.558z" fill="#dff2ff"/><path d="m374.109002 213.738 5.214 2.557v11.366l-5.214-2.557z" fill="#dff2ff"/><path d="m398.192002 225.424 5.213 2.557v11.366l-5.213-2.557z" fill="#dff2ff"/><path d="m405.888002 229.153 5.214 2.557v11.366l-5.214-2.557z" fill="#dff2ff"/><path d="m414.329002 233.38 5.214 2.557v11.366l-5.214-2.557z" fill="#dff2ff"/><path d="m422.026002 237.109 5.213 2.557v11.366l-5.213-2.557z" fill="#dff2ff"/><path d="m440.000002 222.058 4.109-2.324v8.356l-4.109 2.324z" fill="#dff2ff"/><path d="m454.791002 213.432 4.108-2.324v8.356l-4.108 2.324z" fill="#dff2ff"/><path d="m447.396002 217.54 4.108-2.324v8.356l-4.108 2.324z" fill="#dff2ff"/><path d="m461.776002 209.324 4.109-2.324v8.356l-4.109 2.324z" fill="#dff2ff"/><path d="m440.000002 241.058 4.109-2.324v8.356l-4.109 2.324z" fill="#dff2ff"/><path d="m454.791002 232.432 4.108-2.324v8.356l-4.108 2.324z" fill="#dff2ff"/><path d="m447.396002 236.54 4.108-2.324v8.356l-4.108 2.324z" fill="#dff2ff"/><path d="m461.776002 228.324 4.109-2.324v8.356l-4.109 2.324z" fill="#dff2ff"/><path d="m512.855002 113.717-1.318-4.537-4.393 1.659 1.914 6.163-9.816 4.045-3.791.878-2.692 1.737.715 1.107 1.991 1.544.571-1.03 1.574.478 3.004-2.588c4.847-.704 7.658-1.147 8.432-1.33.775-.182 2.677-.844 5.707-1.984z" fill="#d7bea6"/><ellipse cx="513.000002" cy="175.724" fill="#dfebf3" fill-rule="nonzero" rx="27" ry="12.0638"/><path d="m521.060002 174.948-.409 6.591c-1.353 1.949-2.732 2.806-4.137 2.57-1.405-.235-2.323-1.626-2.753-4.173l1.314-3.645.598-2.759.447-1.38c.731-.541 1.499-.811 2.305-.811.807 0 1.549.476 2.226 1.428z" fill="#272727"/><path d="m510.823002 168.874v2.467c-.57.362-.967.543-1.191.543-.223 0-.982.16-2.276.481-.609.06-1.054.183-1.337.371-.284.188-1.119.678-2.508 1.471-1.185.681-2.243 1.058-3.175 1.131-.932.072-2.042-.038-3.332-.33-.242-.103-.242-.37 0-.801.364-.646 4.874-3.36 5.519-4.019.43-.44 1.191-1.312 2.284-2.618 2.09.427 3.417.641 3.98.641.564 0 1.242-.214 2.036-.641z" fill="#272727"/><path d="m521.959002 124.916-.899 21.228.899 26.67c-1.874 1.475-3.39 1.964-4.548 1.465-1.738-.747-.854-.14-1.529-.578-.45-.292-.95-.715-1.501-1.269l-.335-23.422v-1.597l-1.658-10.346h-.42l-.466 12.165-.41 18.668c-.76.416-1.344.624-1.749.624-.406 0-2.096-.096-5.07-.287l-.326-19.005-.356-10.726-.809-9.024v-7.301c3.899 1.824 6.259 2.735 7.08 2.735.82 0 4.915-.594 12.286-1.784z" fill="#101010"/><path d="m514.916002 119.961c-.147.157-3.414 1.408-6.789 2.193-3.645.848-7.412 1.228-7.412 1.228s.81-1.312.342-1.588c-.623-.966-.816-.841-1.837-.729l8.676-4.778-3.413-10.334-2.09-5.866 5.116-.505z" fill="#101010"/><path d="m518.443002 89.867c-1.147-1.033-2.119-1.55-2.917-1.55s-2.461-.383-4.989-1.15l-4.53 3.608-1.869 7.961v23.445l1.183 2.019c1.06.922 1.931 1.383 2.613 1.383.683 0 3.053-.222 7.11-.667l4.234-29.731z" fill="#fff"/><path d="m518.443002 89.867c-1.326 3.856-3.7 6.637-4.294 7.741s-2.298 2.872-3.285 8.52l-.798 6.993-1.086 12.385c1.51 3.779 2.671 5.669 3.483 5.669s2.005-.669 3.579-2.006l5.989 3.668c.434-5.778.434-9.139 0-10.085-.434-.945-.838-3.088-1.212-6.427l1.212-15.218c1.073-4.972 1.342-7.703.805-8.194-.537-.49-2.001-1.506-4.393-3.046z" fill="#101010"/><path d="m508.635002 92.199c-1.017 1.131.219 2.4-.231 3.686.575 1.149 1.849 4.814 2.298 9.766v9.766c-.078 3.979-.607 9.548-1.149 10.34s-4.283.341-4.988 5.17h-1.686l-.343-27.555c-.395-3.054.124-5.764 1.273-8.062.874-1.749 1.148-1.723 2.872-4.021l4.596-1.279z" fill="#101010"/><path d="m516.961002 89.866c-.614 1.198-1.281 1.913-2 2.147-.72.233-1.845.772-3.375 1.616l-1.44-.5v-4.135h-2.915l-.339-3.163v-.841l-.776-1.767.776-3.312v-3.948c1.918-1.556 3.348-2.333 4.29-2.333.943 0 3.171.339 6.685 1.017l1.597 3.141v3.034l-2.503 4.168-.344 2.518z" fill="#d7bea6"/><path d="m520.713002 77.138v1.885c0 .283-.171 1.021-.513 2.213l-2.241 3.361-1.22 1.234v-.782c.476-.755.476-1.339 0-1.754-.475-.415-.949-.303-1.423.334l-.75.968h-1.099v-4.746l.367-.828v-.552c-1.888 0-3.061 0-3.52 0-.458 0-1.404-.587-2.838-1.76l-1.36-2.529 3.238-1.597c2.115-.56 3.608-.84 4.48-.84 1.309 0 2.752.333 4.125 1.152 1.374.819 1.932 1.493 2.241 2.406.206.609.377 1.221.513 1.835z" fill="#f3f8f9"/><path d="m508.979002 86.693c-.46 0-1.341-.766-1.724-1.149l-.574-.574.574-.575 1.724.575 1.149 1.149c-.192.191-.69.574-1.149.574z" fill="#f3f8f9" fill-rule="nonzero"/><path d="m506.298002 87.268c.306 0 .702-1.341.957-1.724v-.574h-.574l-.383.574-.766 1.149c.128.192.459.575.766.575z" fill="#f3f8f9" fill-rule="nonzero"/><path d="m518.398002 101.061.897 13.451-2.409 10.824c.801.906 1.201 1.615 1.201 2.127 0 .511.53 1.398 1.588 2.661l6.538-13.208v-2.404-12.483l-1.937-7.107c-.564-1.203-1.105-1.805-1.624-1.805-.518 0-1.637 1.238-3.357 3.715z" fill="#101010"/><path d="m520.672002 128.269-3.486-2.66c-1.691 1.177-2.562 1.93-2.612 2.259-.075.494 1.751-.491 1.878-.131.084.239-.367.777-1.355 1.614l3.833 2.92 1.776-3.516z" fill="#d7bea6"/><path d="m495.192002 125.745h1.14894v45.9574h-1.14894z" fill="#101010" fill-rule="nonzero"/><path d="m508.346002 78.151c-2.102.062-3.999-1.154-4.686-1.769l.008-.184c.029-.742.833-1.202 1.511-.899 1.306.585 2.902 1.141 3.735.929 1.491-.381 4.969-1.268 6.602-1.091 1.112.12 3.162-1.403 4.447-2.525.353-.308.87-.353 1.259-.091l.612.412-.71 1.367-4.685 2.38c-1.822.465-5.992 1.409-8.093 1.471z" fill="#000" fill-rule="nonzero"/><path d="m520.695002 73.434c-1.781-3.111-3.652-6.149-7.999-5.803-4.066.324-7.622 5.746-6.64 8.823.485.352 2.713.877 7.746.164 5.033-.714 6.692-2.42 6.893-3.184z" fill="#000" fill-rule="nonzero"/><path d="m509.554002 96.447 1.723-2.873 1.724 2.298-1.724 1.149z" fill="#000" fill-rule="nonzero"/><path d="m509.554002 99.319 1.149-2.298.574-1.149 1.724 4.022-2.298 10.915z" fill="#000" fill-rule="nonzero"/></g></svg>