<svg width="121" height="192" viewBox="0 0 121 192" fill="none" xmlns="http://www.w3.org/2000/svg">
<path fill-rule="evenodd" clip-rule="evenodd" d="M71.774 0C72.2727 0 72.7629 0.12849 73.197 0.372991L117.728 25.4541C118.636 25.9652 119.197 26.9235 119.197 27.9622V123.835C119.197 124.646 118.861 125.378 118.32 125.902L118.329 125.944L118.088 126.103C117.968 126.197 117.841 126.281 117.707 126.356L114.021 128.788L114.345 126.041L70.3526 101.298C69.4442 100.787 68.8824 99.8284 68.8824 98.7891V4.06433L66.6865 2.84083L69.8191 0.758165C70.3338 0.287375 71.0202 0 71.774 0Z" fill="url(#paint0_linear_410_24303)"/>
<path fill-rule="evenodd" clip-rule="evenodd" d="M69.8944 2.58515L114.412 27.7482C115.319 28.261 115.88 29.2225 115.88 30.2646V126.451C115.88 128.047 114.586 129.341 112.99 129.341C112.492 129.341 112.002 129.212 111.569 128.968L67.0508 103.84C66.1427 103.328 65.5811 102.366 65.5811 101.323V5.10149C65.5811 3.50508 66.8753 2.21094 68.4718 2.21094C68.9703 2.21094 69.4604 2.33985 69.8944 2.58515Z" fill="#4A4A4A"/>
<path fill-rule="evenodd" clip-rule="evenodd" d="M68.4055 5.67623L112.202 30.4089C113.109 30.9208 113.669 31.8825 113.669 32.9251V125.711C113.669 126.19 113.282 126.577 112.805 126.577C112.656 126.577 112.51 126.539 112.381 126.466L68.1553 101.527C67.248 101.015 66.6865 100.053 66.6865 99.0095V6.68273C66.6865 6.04466 67.2027 5.5274 67.8395 5.5274C68.0378 5.5274 68.2328 5.57867 68.4055 5.67623Z" fill="#FFC65D"/>
<path fill-rule="evenodd" clip-rule="evenodd" d="M77.3006 9.59898L101.272 23.211C101.76 23.4884 102.062 24.0085 102.062 24.5722V29.9425C102.062 30.8061 101.365 31.5061 100.506 31.5061C100.238 31.5061 99.974 31.4366 99.7406 31.3042L75.7694 17.7114C75.2804 17.4341 74.978 16.9138 74.978 16.3497V10.9602C74.978 10.0966 75.6749 9.39655 76.5346 9.39655C76.803 9.39655 77.0669 9.46628 77.3006 9.59898Z" fill="#4A4A4A"/>
<path fill-rule="evenodd" clip-rule="evenodd" d="M63.0901 119.586L117.033 150.062C120.223 151.864 121.348 155.911 119.546 159.1C118.968 160.122 118.13 160.972 117.117 161.564L68.2594 190.113C64.0235 192.588 58.7927 192.631 54.5161 190.227L3.38357 161.481C0.190364 159.686 -0.942956 155.642 0.852236 152.448C1.44126 151.401 2.3039 150.533 3.34797 149.937L56.5414 119.599C58.5698 118.442 61.0571 118.437 63.0901 119.586Z" fill="#968F8F" fill-opacity="0.495924"/>
<path fill-rule="evenodd" clip-rule="evenodd" d="M63.0901 112.4L117.033 142.877C120.223 144.679 121.348 148.725 119.546 151.914C118.968 152.936 118.13 153.786 117.117 154.379L68.2594 182.927C64.0235 185.402 58.7927 185.446 54.5161 183.041L3.38357 154.295C0.190364 152.5 -0.942956 148.456 0.852236 145.263C1.44126 144.215 2.3039 143.347 3.34797 142.752L56.5414 112.414C58.5698 111.257 61.0571 111.252 63.0901 112.4Z" fill="url(#paint1_linear_410_24303)"/>
<path fill-rule="evenodd" clip-rule="evenodd" d="M63.0901 110.742L117.033 141.218C120.223 143.02 121.348 147.067 119.546 150.256C118.968 151.278 118.13 152.128 117.117 152.72L68.2594 181.269C64.0235 183.744 58.7927 183.787 54.5161 181.383L3.38357 152.637C0.190364 150.842 -0.942956 146.798 0.852236 143.605C1.44126 142.557 2.3039 141.689 3.34797 141.093L56.5414 110.755C58.5698 109.598 61.0571 109.593 63.0901 110.742Z" fill="url(#paint2_linear_410_24303)"/>
<path opacity="0.0685454" d="M52.5925 165.269C63.4296 165.269 72.2147 160.072 72.2147 153.662C72.2147 147.251 63.4296 142.054 52.5925 142.054C41.7554 142.054 32.9702 147.251 32.9702 153.662C32.9702 160.072 41.7554 165.269 52.5925 165.269Z" fill="url(#paint3_radial_410_24303)"/>
<path fill-rule="evenodd" clip-rule="evenodd" d="M72.2153 77.6071L72.9233 76.3119L74.9044 74.4014L77.7427 73.5147L77.4062 76.9142L75.8018 79.5948L72.2153 79.0276V77.6071Z" fill="#AB7C6D"/>
<path fill-rule="evenodd" clip-rule="evenodd" d="M75.5797 70.4158C75.6099 70.4299 75.6361 70.4511 75.6558 70.4774L77.6774 73.1743C77.7186 73.2293 77.7268 73.3002 77.699 73.3599L75.1306 78.8679C75.109 78.9143 75.0692 78.9468 75.0228 78.9617L75.0216 78.9646L74.9951 78.9683C74.9908 78.969 74.9865 78.9696 74.9822 78.97L74.6848 79.0065L74.778 78.8572L72.7799 76.1955C72.7387 76.1405 72.7304 76.0696 72.7582 76.0098L75.2959 70.5678L75.1959 70.4355L75.4481 70.4024C75.4901 70.3921 75.5365 70.3957 75.5797 70.4158Z" fill="url(#paint4_linear_410_24303)"/>
<path fill-rule="evenodd" clip-rule="evenodd" d="M75.2971 70.5923L77.2573 73.2384C77.2973 73.2923 77.305 73.3621 77.2775 73.421L74.7417 78.8592C74.6996 78.9494 74.5892 78.987 74.4951 78.9431C74.4658 78.9295 74.4403 78.9087 74.4212 78.883L72.46 76.2389C72.42 76.185 72.4123 76.1151 72.4397 76.0562L74.9765 70.616C75.0186 70.5258 75.129 70.4882 75.2231 70.5321C75.2525 70.5458 75.278 70.5665 75.2971 70.5923Z" fill="#4A4A4A"/>
<path fill-rule="evenodd" clip-rule="evenodd" d="M75.0348 70.776L76.9563 73.3548C76.996 73.4081 77.0038 73.4772 76.9767 73.5355L74.5587 78.7208C74.5462 78.7475 74.5135 78.7586 74.4855 78.7456C74.4768 78.7415 74.4692 78.7354 74.4635 78.7278L72.5223 76.1258C72.4825 76.0724 72.4747 76.0033 72.5019 75.945L74.9079 70.7853C74.9245 70.7497 74.9682 70.7349 75.0055 70.7523C75.0172 70.7577 75.0272 70.7659 75.0348 70.776Z" fill="white"/>
<path fill-rule="evenodd" clip-rule="evenodd" d="M75.6137 71.3077L76.7488 72.7877C76.7719 72.8179 76.7769 72.8565 76.7618 72.8888L76.6182 73.1969C76.5951 73.2465 76.5328 73.2663 76.479 73.2412C76.4622 73.2334 76.4476 73.2217 76.4365 73.2073L75.3009 71.7284C75.2778 71.6983 75.2728 71.6596 75.2879 71.6272L75.432 71.318C75.4551 71.2685 75.5175 71.2487 75.5712 71.2737C75.588 71.2816 75.6027 71.2933 75.6137 71.3077Z" fill="#4A4A4A"/>
<path fill-rule="evenodd" clip-rule="evenodd" d="M72.7676 78.7838L73.5419 76.0825L74.129 74.6201C74.3178 74.6201 74.4573 74.7681 74.5475 75.0642C74.6377 75.3603 74.6377 76.051 74.5475 77.1364L75.5313 78.2248V80.1598L73.5419 80.7002L72.7676 79.4844V78.7838Z" fill="#C18470"/>
<path d="M52.0803 59.3179H48.0532V64.6707H52.0803V59.3179Z" fill="#C18470"/>
<path d="M49.7021 61.1797C53.6925 61.1797 56.9272 58.0017 56.9272 54.0814C56.9272 50.1611 53.6925 46.983 49.7021 46.983C45.7118 46.983 42.4771 50.1611 42.4771 54.0814C42.4771 58.0017 45.7118 61.1797 49.7021 61.1797Z" fill="#353030"/>
<path fill-rule="evenodd" clip-rule="evenodd" d="M54.2987 63.1664C56.8419 62.9695 58.6 59.6982 58.2255 55.8597C57.8509 52.0212 55.4857 49.0691 52.9425 49.2659C50.3993 49.4628 48.6413 52.7341 49.0158 56.5726C49.0831 57.2624 50.7167 57.6727 50.9021 58.2921C50.9831 58.5629 49.5724 59.0767 49.6731 59.3305C50.624 61.726 52.4124 63.3124 54.2987 63.1664Z" fill="#C18470"/>
<path fill-rule="evenodd" clip-rule="evenodd" d="M50.8957 58.1543C52.989 58.1543 52.9811 56.1224 52.9811 53.616C52.9811 51.1096 52.989 49.0777 50.8957 49.0777C48.8024 49.0777 47.1055 51.1096 47.1055 53.616C47.1055 56.1224 48.8024 58.1543 50.8957 58.1543Z" fill="#353030"/>
<path d="M51.6067 59.3179C52.5225 59.3179 53.2649 58.6407 53.2649 57.8052C53.2649 56.9697 52.5225 56.2924 51.6067 56.2924C50.6909 56.2924 49.9485 56.9697 49.9485 57.8052C49.9485 58.6407 50.6909 59.3179 51.6067 59.3179Z" fill="#C18470"/>
<path fill-rule="evenodd" clip-rule="evenodd" d="M41.6277 150.251C41.261 151.914 41.1698 152.996 41.3544 153.496C41.6693 154.349 42.9364 154.768 43.4816 154.768C45.0178 154.768 46.3468 153.863 48.0169 152.912C49.6869 151.962 53.4008 148.691 52.0117 147.776C51.0856 147.167 47.6243 147.992 41.6277 150.251Z" fill="#181818"/>
<path fill-rule="evenodd" clip-rule="evenodd" d="M53.6812 154.4C53.7068 156.009 53.7068 157.079 53.6812 157.611C53.6374 158.518 54.64 159.398 55.1418 159.611C56.556 160.21 58.1333 159.896 60.0423 159.673C61.9514 159.451 66.6497 157.89 65.7287 156.506C65.2513 155.789 62.7121 154.851 58.1208 154.4C57.2453 154.314 55.7654 154.314 53.6812 154.4Z" fill="#181818"/>
<path fill-rule="evenodd" clip-rule="evenodd" d="M39.7939 93.4132C39.5404 94.4719 39.5404 95.3184 39.7939 95.9526C40.0473 96.5868 40.2873 97.4398 40.5137 98.5116L41.1458 113.079L41.5946 125.253L40.5137 149.496C40.6062 150.46 40.9665 150.941 41.5946 150.941C42.5369 150.941 44.5319 151.565 45.199 150.941C45.6438 150.525 46.1208 150.044 46.6299 149.496L48.0644 131.883C48.3146 128.959 48.4397 126.946 48.4397 125.843C48.4397 124.74 48.4397 117.26 48.4397 103.403L50.4438 104.38L52.2372 128.095L53.24 153.917C53.7714 155.048 54.6621 155.495 55.9123 155.259C57.1624 155.023 58.11 154.454 58.7552 153.552L59.5024 129.606L58.7552 100.752C54.5699 100.265 51.1314 99.5185 48.4397 98.5116C45.748 97.5047 42.8661 95.8053 39.7939 93.4132Z" fill="#D8D8D8"/>
<path fill-rule="evenodd" clip-rule="evenodd" d="M46.6553 99.8967C48.6976 100.697 52.6757 101.116 58.5896 101.152L57.7494 88.7218C58.7845 90.3002 59.8085 91.0894 60.8213 91.0894C61.8342 91.0894 63.2422 90.3002 65.0452 88.7218L73.4042 82.1155C74.2047 80.7663 73.9805 79.6097 72.7316 78.6456C71.4828 77.6815 70.2902 77.6815 69.1539 78.6456L62.5043 83.8021L60.2257 72.37C54.1213 66.4523 50.4832 63.3885 49.3117 63.1786C48.1402 62.9687 46.2776 62.9687 43.7238 63.1786C43.2601 62.5223 42.3855 62.3154 41.0998 62.5578C39.8141 62.8002 37.2886 68.1628 33.5232 78.6456C33.5232 80.2647 33.897 81.3344 34.6445 81.8546C35.392 82.3749 37.316 82.3749 40.4165 81.8546L39.5577 93.5572C42.2471 96.9828 44.613 99.096 46.6553 99.8967Z" fill="#4A4A4A"/>
<path d="M52.2885 51.418C54.0229 52.1187 55.7614 51.8635 56.1717 50.848C56.582 49.8325 55.5086 48.4413 53.7743 47.7406C52.04 47.0398 50.3014 47.295 49.8911 48.3105C49.4809 49.326 50.5542 50.7173 52.2885 51.418Z" fill="#353030"/>
<defs>
<linearGradient id="paint0_linear_410_24303" x1="90.1921" y1="8.11962" x2="125.704" y2="96.699" gradientUnits="userSpaceOnUse">
<stop stop-color="#E3E2E2"/>
<stop offset="0.333095" stop-color="#BDB9B9"/>
<stop offset="1" stop-color="#B3B0B0"/>
</linearGradient>
<linearGradient id="paint1_linear_410_24303" x1="29.8457" y1="141.422" x2="112.47" y2="159.16" gradientUnits="userSpaceOnUse">
<stop stop-color="#A0A0A0"/>
<stop offset="1"/>
</linearGradient>
<linearGradient id="paint2_linear_410_24303" x1="11.0728" y1="146.52" x2="108.888" y2="146.52" gradientUnits="userSpaceOnUse">
<stop stop-color="#F7F5F5"/>
<stop offset="1" stop-color="#ECE8E8"/>
</linearGradient>
<radialGradient id="paint3_radial_410_24303" cx="0" cy="0" r="1" gradientUnits="userSpaceOnUse" gradientTransform="translate(-533.125 -662.314) rotate(180) scale(18.7416 10.3357)">
<stop/>
<stop offset="1" stop-color="#767373"/>
</radialGradient>
<linearGradient id="paint4_linear_410_24303" x1="76.4582" y1="71.3934" x2="76.2351" y2="77.4296" gradientUnits="userSpaceOnUse">
<stop stop-color="#E3E2E2"/>
<stop offset="0.333095" stop-color="#BDB9B9"/>
<stop offset="1" stop-color="#B3B0B0"/>
</linearGradient>
</defs>
</svg>
