<svg id="Layer_1" data-name="Layer 1" xmlns="http://www.w3.org/2000/svg" xmlns:xlink="http://www.w3.org/1999/xlink" viewBox="0 0 730 180"><defs><style>.cls-1{fill:none;}.cls-2{clip-path:url(#clip-path);}.cls-3{clip-path:url(#clip-path-2);}.cls-4{fill:url(#linear-gradient);}.cls-5{clip-path:url(#clip-path-3);}.cls-6{fill:#fff;}.cls-7{fill:#242425;}.cls-8{fill:#a7be3a;}</style><clipPath id="clip-path"><rect class="cls-1" x="15.48" y="10.47" width="700.31" height="161.21"/></clipPath><clipPath id="clip-path-2"><polyline class="cls-1" points="39.43 117.65 39.43 124.1 73.32 130.02 79.23 111.19 119.57 76.23 127.64 53.65 104.51 21.37 69.01 15.46 43.2 24.06 31.37 35.9 25.99 59.56 39.43 98.29 38.9 116.03"/></clipPath><linearGradient id="linear-gradient" x1="0.55" y1="179.76" x2="2.32" y2="179.76" gradientTransform="matrix(68.68, 0, 0, -68.68, -24.42, 12419.04)" gradientUnits="userSpaceOnUse"><stop offset="0" stop-color="#fef6d3"/><stop offset="0.51" stop-color="#fff29b"/><stop offset="0.84" stop-color="#fff07c"/><stop offset="1" stop-color="#fff07c"/></linearGradient><clipPath id="clip-path-3"><rect class="cls-1" x="15.48" y="10.47" width="700.31" height="161.21"/></clipPath></defs><title>logo-signupgenius-color</title><g id="Horizontal_Color" data-name="Horizontal Color"><g class="cls-2"><g class="cls-3"><rect class="cls-4" x="1.79" y="0.08" width="150.04" height="145.32" transform="translate(-24.59 102.89) rotate(-60)"/></g><g class="cls-5"><path class="cls-6" d="M46.27,118.7c5.78-15.19-4-29.52-9.83-43C33.56,69,31.35,62.18,32.8,54.92a33.14,33.14,0,0,1,10-17.15c11.92-11.3,28.73-14.19,44.35-10.5,14.9,3.53,29.75,13.93,34.81,28.84A27.05,27.05,0,0,1,123.2,69q-.12.62-.28,1.24.25-.89-.09.2-.2.59-.44,1.17c-.73,1.89.65-1.18-.27.62-.38.74-.81,1.45-1.25,2.15s-.46.7,0,.07c-.37.51-.77,1-1.17,1.5-4.07,5-11.09,9.65-17.23,13.67-13,8.49-30.17,19.36-28.64,37.28.24,2.84,2.28,4.36,5,2.87s5-5.16,4.78-8.28c0-.58-.08-1.16-.09-1.74,0-.08.13-1.91,0-.73.06-.54.17-1.08.28-1.61.36-1.73-.42,1.21.16-.46.1-.29.85-1.92.08-.35.24-.49.51-1,.79-1.43.94-1.59-.88,1.16.22-.36.45-.62.94-1.2,1.44-1.78,2.13-2.48,7.34-6.38,11-8.82C107.26,97.57,118,91.51,125.43,82c9.25-11.88,9.78-26.73,3.32-40.08-7.06-14.57-22.69-23.6-37.91-27.21-27-6.39-55,9.31-65.19,34.79a40.22,40.22,0,0,0-2.95,19c.69,6.29,2.93,12.15,5.5,17.89s5.48,11.27,7.74,17.12c1.72,4.48,3.39,10.11,1.76,14.41-.78,2.05-1.2,6.29,2,6.59s5.66-3.28,6.61-5.79"/><path class="cls-7" d="M43.48,115.92c5.78-15.19-4-29.52-9.83-43C30.78,66.25,28.56,59.4,30,52.14A33.14,33.14,0,0,1,40,35C51.92,23.69,68.74,20.8,84.35,24.5,99.25,28,114.1,38.43,119.17,53.34a27.05,27.05,0,0,1,1.25,12.86q-.12.62-.28,1.24.25-.89-.09.2-.2.59-.44,1.17c-.73,1.89.65-1.18-.27.62-.38.74-.81,1.45-1.25,2.15s-.46.7,0,.07c-.37.51-.77,1-1.17,1.5-4.07,5-11.09,9.65-17.23,13.67-13,8.49-30.17,19.36-28.64,37.28.24,2.84,2.28,4.36,5,2.87s5-5.16,4.78-8.28c0-.58-.08-1.16-.09-1.74,0-.08.13-1.91,0-.73.06-.54.17-1.08.28-1.61.36-1.73-.42,1.21.16-.46.1-.29.85-1.92.08-.35.24-.49.51-1,.79-1.43.94-1.59-.88,1.16.22-.36.45-.62.94-1.2,1.44-1.78,2.13-2.48,7.34-6.38,11-8.82,9.88-6.64,20.62-12.7,28.05-22.24,9.25-11.88,9.78-26.73,3.32-40.08C118.9,24.53,103.27,15.5,88,11.9,61,5.5,33,21.21,22.86,46.68a40.22,40.22,0,0,0-2.95,19c.69,6.29,2.93,12.15,5.5,17.89s5.48,11.27,7.74,17.12c1.72,4.48,3.39,10.11,1.76,14.41-.78,2.05-1.2,6.29,2,6.59s5.66-3.28,6.61-5.79"/><path class="cls-6" d="M83.32,132c-9.73-4.76-21.24-7.16-32-7.68-5.47-.27-11,.25-16,2.68-5.14,2.52-8.39,8.06-10,13.34-3.24,11,10,15.61,18.25,17.36a66.82,66.82,0,0,0,17,1.36c4.47-.21,10.17-.89,13.18-4.66s5.08-8,.58-11.18S63.87,139,58.69,138c-12.25-2.43-31.35-4.73-38.42,8.53-3.07,5.75-2.77,10,1.85,14.69,3.75,3.81,8.79,6,13.79,7.67,9.91,3.24,23.18,4.71,32.27-1.48a10.7,10.7,0,0,0,3.5-5.09c.24-.65.87-3.45-.79-2.32-6.11,4.16-14.36,4.12-21.41,3.17s-14.3-3.23-20.1-7.38a25.88,25.88,0,0,1-4.18-3.89,10.83,10.83,0,0,1-1.72-2.77l-.27-.78q-.4-1.69,0-.63c3.87-3.1,9.25-3.28,14-3.41a74.9,74.9,0,0,1,28.19,4.48c2.24.85,5.59,2.11,6.7,4.42-1.76-3.68,4.36-5,1.07-3.58-.39.17-.8.3-1.21.43a23.41,23.41,0,0,1-3.43.76,56.13,56.13,0,0,1-16.82-.24c-6.19-.9-24.86-5-21.37-15-.23.67-.59.89.17.2a10.49,10.49,0,0,1,2.16-1.36,19.94,19.94,0,0,1,5.89-1.76,49.67,49.67,0,0,1,14.68,0c8.66,1.07,17.75,3.26,25.62,7.12,1.89.93,6.14-7,4.5-7.8"/><path class="cls-7" d="M80.53,129.24c-9.73-4.76-21.24-7.16-32-7.68-5.47-.27-11,.25-16,2.68-5.14,2.52-8.39,8.06-10,13.34-3.24,11,10,15.61,18.25,17.36a66.82,66.82,0,0,0,17,1.36c4.47-.21,10.17-.89,13.18-4.66s5.08-8,.58-11.18-10.53-4.21-15.71-5.24c-12.25-2.43-31.35-4.73-38.42,8.53-3.07,5.75-2.77,10,1.85,14.69,3.75,3.81,8.79,6,13.79,7.67,9.91,3.24,23.18,4.71,32.27-1.48a10.7,10.7,0,0,0,3.5-5.09c.24-.65.87-3.45-.79-2.32-6.11,4.16-14.36,4.12-21.41,3.17S32.4,157.15,26.6,153a25.88,25.88,0,0,1-4.18-3.89,10.83,10.83,0,0,1-1.72-2.77l-.27-.78q-.4-1.69,0-.63c3.87-3.1,9.25-3.28,14-3.41A74.9,74.9,0,0,1,62.57,146c2.24.85,5.59,2.11,6.7,4.42-1.76-3.68,4.36-5,1.07-3.58-.39.17-.8.3-1.21.43a23.41,23.41,0,0,1-3.43.76,56.13,56.13,0,0,1-16.82-.24c-6.19-.9-24.86-5-21.37-15-.23.67-.59.89.17.2a10.49,10.49,0,0,1,2.16-1.36,19.94,19.94,0,0,1,5.89-1.76,49.67,49.67,0,0,1,14.68,0C59.07,131,68.16,133.19,76,137c1.89.93,6.14-7,4.5-7.8"/><path class="cls-6" d="M48,66.63c6.91,8.48,10.44,19.95,11.37,30.74.43,5,4.69,5.69,8.2,2.64,5-4.38,8.27-10.36,12.68-15.33,4.79-5.4,10.44-10,15.86-14.8,10.56-9.26,22-17.57,36-20.38,4.1-.82,7.08-5.88,7.78-9.63.63-3.36-.67-7.26-4.75-6.45C120.09,36.46,107,45.21,95.42,55c-6,5.11-12,10.36-17.58,16a87.45,87.45,0,0,0-8.37,9.52c-1.73,2.37-3.79,5.64-5.38,7l8.2,2.64C71.18,77.3,67.45,63.35,59.12,53.12,54,46.84,43.66,61.27,48,66.63"/><path class="cls-8" d="M133.12,31.35c-15.12,3-28.19,11.77-39.78,21.58-6,5.11-12,10.36-17.58,16a98.66,98.66,0,0,0-7.19,8C66.58,67.56,63,58.35,57,51c-5.12-6.29-15.46,8.14-11.09,13.51,6.91,8.48,10.44,20,11.37,30.74.43,5,4.69,5.69,8.2,2.64,5-4.38,8.27-10.36,12.68-15.33C83,77.2,88.63,72.56,94,67.81c10.56-9.26,22-17.57,36-20.38,4.1-.82,7.08-5.88,7.78-9.63.63-3.36-.66-7.26-4.75-6.45"/><path class="cls-6" d="M182.29,84.19c-2.14-3.7-7.16-10.29-11.85-10.29-2.88,0-6.75,3.87-6.75,6.75,0,8.64,37.13,4.12,37.13,24.28,0,17.2-17.86,27-33.26,27-13.91,0-21.9-9.47-25.52-22.06l17.29-1.56c2.8,3.79,8.23,8.31,13.17,8.31,3.7,0,7.66-2.55,7.66-6.59,0-10.12-35.15.49-35.15-22.06,0-17.54,13.5-27.25,30.13-27.25,9,0,24.7,7,25.85,17-6,2.64-12.43,4.36-18.69,6.42"/><path class="cls-6" d="M209.45,78.26c-.16-2.06-.16-4.2-.16-6.34v-3a40.14,40.14,0,0,1,.16-4.45l17.62-1.23L227.81,77Zm.49,52.44-.41-44.45,17.2-.16.33,43.38Z"/><path class="cls-6" d="M269.13,88.8c2.8,1.32,4.12,5.35,4.12,8.23,0,11.52-15.23,13.75-24,13.75l.08.25a8.4,8.4,0,0,0-2.8,1.89l.16.25c3.79-.25,7.49-.49,11.28-.49,9.22,0,19.34,1.15,19.34,12.84,0,14.08-14.9,16.47-25.93,16.47-2.31,0-4.61-.25-6.92-.16-.33-4.2-.16-8.31-.33-12.51,3,.25,6,.41,9,.41,2.31,0,13,0,13-3.29,0-3-5.43-3-7.49-3-5.76,0-11.53,1.23-17.29,1.23-.66,0-1.65.16-1.89-.66-3.13-.49-7-4-7-7.33,0-4.36,3.79-7.82,7.66-9.14-3-2.14-4.12-5.76-4.12-9.22,0-9.3,8.31-16,17.29-16a24.75,24.75,0,0,1,9.47,1.73c4-1.4,7.16-5.43,8.48-9.3l8.48,4.69a7.17,7.17,0,0,1,.08,1.32c0,3.54-7.82,7-10.7,8m-14.74.41c-4.28,0-6.17,5.35-6.17,8.89,0,3.38,1.65,6.34,5.35,6.34,4.28,0,6-3.13,6-7,0-3-1.56-8.23-5.19-8.23"/><path class="cls-6" d="M309.88,131.11c0-3,.16-5.93.16-8.89,0-6.5.49-24.78-9-24.78a7.79,7.79,0,0,0-4.28,1.15l-1.23,30.54-14,.49.49-45.28c5,.16,10,.66,15,1a23,23,0,0,0-.16,2.39,10.23,10.23,0,0,0,.25,2.22c2.39-2.63,6.42-3.13,9.71-3.13,11.44,0,18.69,8.56,18.77,19.67l.25,23.38Z"/><path class="cls-6" d="M386.77,103.54c-2.06,18.36-5.52,27.25-25.93,27.25-13.91,0-24-7.33-28.24-20.58a31.6,31.6,0,0,1-1.81-9.14V62.29l22.31-.41c-.49,10.21-1.89,20.33-1.89,30.54,0,6.59.49,23.21,10,23.21,10.87,0,8.31-38.69,8.31-45.85a51,51,0,0,1,.33-7.08H388V92.18c0,3.79-.82,7.57-1.23,11.36"/><path class="cls-6" d="M412.69,129c0,2.39.08,4.77.08,7.08,0,3.13-.08,6.17-.25,9.22H394.75l-.25-63,16.14-.74.08,5.68a22.29,22.29,0,0,1,8.89-2.06c12,0,20.33,10.78,20.33,22.23,0,15.31-12.92,23.46-27.25,21.57M412,95l-.08-.33c-.41,1.07-.33,4.69-.33,6.09,0,6.5.17,13.09.33,19.59V120c8.15-3.79,12.92-1.07,12.92-13.17,0-9.06-4.61-11.36-12.84-11.85"/><path class="cls-6" d="M470.24,131c-17.2,0-27.08-12.43-27.08-29,0-18.85,12.93-40.17,33.59-40.17,13.5,0,23.71,5.35,26.75,19.26-7.33.82-14.57,2.47-22,2.47-.33-4.12-2.55-9.06-7.33-9.06-9.3,0-10.46,16.38-10.46,23.05,0,7.16,2.14,19.35,11.44,19.35,4.12,0,9.22-6.83,9.22-10.7a1.54,1.54,0,0,0-.41-1.15,142.51,142.51,0,0,1-14.57,1.23l1.23-13.75L507,90.36a37.6,37.6,0,0,1,.66,7.41c0,23-16,33.26-37.46,33.26"/><path class="cls-6" d="M554.28,110.78c-8.64-.58-17.2-.66-25.85-.66a16,16,0,0,0-2,.08c.66,6,1.23,9.39,8.23,9.39a10,10,0,0,0,7.9-3.54c2.31,1.4,4.69,2.47,7,3.87-5.93,8-10.78,9.88-20.58,9.88-10.54,0-18.28-10.37-18.28-20.33,0-11.85,10.95-25.6,23.38-25.6,14.08,0,20.33,10.29,20.33,23.3a26.68,26.68,0,0,1-.16,3.62m-20-19.51c-4,0-8.23,5.27-8.23,9.14a2.62,2.62,0,0,0,.25,1.15h-.16a10.09,10.09,0,0,1,1.56-.08H541a9.53,9.53,0,0,0,.66-3.7c0-4.45-3.29-6.5-7.41-6.5"/><path class="cls-6" d="M585.15,131.11c0-3,.16-5.93.16-8.89,0-6.5.49-24.78-9-24.78a7.79,7.79,0,0,0-4.28,1.15l-1.23,30.54-14,.49.49-45.28c5,.16,10,.66,15,1a23,23,0,0,0-.16,2.39,10.23,10.23,0,0,0,.25,2.22c2.39-2.63,6.42-3.13,9.71-3.13,11.44,0,18.69,8.56,18.77,19.67l.25,23.38Z"/><path class="cls-6" d="M607.79,78.26c-.16-2.06-.16-4.2-.16-6.34v-3a40.15,40.15,0,0,1,.16-4.45L625.4,63.2,626.15,77Zm.49,52.44-.41-44.45,17.2-.16.33,43.38Z"/><path class="cls-6" d="M670.84,128.48c-4.12,0-8.23.33-12.35.33-1.23,0-.08-1.32-1.15-1.73a17.41,17.41,0,0,1-9.71,3.46,20.59,20.59,0,0,1-7.74-1.56c-8-3.29-8.48-19.51-8.48-26.92a123.77,123.77,0,0,1,.82-14.57h13.09c0,7-.16,14-.16,20.91,0,5.1.49,12.76,7.24,12.76,1.4,0,4.61-.74,3.79-2.8v.33c1.4-3.46,1.56-26.34,1.4-31.2l14,.66c0,13.42-.74,26.92-.74,40.34"/><path class="cls-6" d="M713.24,96.62c-5.76-3-11.11-5.52-17.62-5.52-3,0-6.34.08-6.34,3.87,0,6.67,23.71,2.31,23.71,19.51,0,9.14-8.07,19.76-17.78,19.76-5.76,0-13.91-5-19.18-7.49l3.62-10c4.2,2.63,10.87,6,15.89,6,2.8,0,5.35-1.56,5.35-4.61,0-7.24-22.8-.91-22.8-19.51,0-7.24,5.85-17.7,13.5-19.18a26.19,26.19,0,0,1,5.1-.41,30.06,30.06,0,0,1,19.1,7.08Z"/><path class="cls-7" d="M179.5,81.41c-2.14-3.7-7.16-10.29-11.85-10.29-2.88,0-6.75,3.87-6.75,6.75C160.9,86.51,198,82,198,102.15c0,17.2-17.86,27-33.26,27-13.91,0-21.9-9.47-25.52-22.06l17.29-1.56c2.8,3.79,8.23,8.31,13.17,8.31,3.7,0,7.66-2.55,7.66-6.59,0-10.12-35.15.49-35.15-22.06,0-17.54,13.5-27.25,30.13-27.25,9,0,24.7,7,25.85,17-6,2.64-12.43,4.36-18.69,6.42"/><path class="cls-7" d="M206.67,75.48c-.16-2.06-.16-4.2-.16-6.34v-3a40.14,40.14,0,0,1,.16-4.45l17.62-1.23L225,74.25Zm.49,52.44-.41-44.45L224,83.3l.33,43.38Z"/><path class="cls-7" d="M266.35,86c2.8,1.32,4.12,5.35,4.12,8.23,0,11.52-15.23,13.75-24,13.75l.08.25a8.4,8.4,0,0,0-2.8,1.89l.16.25c3.79-.25,7.49-.49,11.28-.49,9.22,0,19.34,1.15,19.34,12.84,0,14.08-14.9,16.47-25.93,16.47-2.31,0-4.61-.25-6.92-.16-.33-4.2-.16-8.31-.33-12.51,3,.25,6,.41,9,.41,2.31,0,13,0,13-3.29,0-3-5.43-3-7.49-3-5.76,0-11.53,1.23-17.29,1.23-.66,0-1.65.16-1.89-.66-3.13-.49-7-4-7-7.33,0-4.36,3.79-7.82,7.66-9.14-3-2.14-4.12-5.76-4.12-9.22,0-9.3,8.31-16,17.29-16A24.75,24.75,0,0,1,260,81.33c4-1.4,7.16-5.43,8.48-9.3L277,76.71a7.17,7.17,0,0,1,.08,1.32c0,3.54-7.82,7-10.7,8m-14.74.41c-4.28,0-6.17,5.35-6.17,8.89,0,3.38,1.65,6.34,5.35,6.34,4.28,0,6-3.13,6-7,0-3-1.56-8.23-5.19-8.23"/><path class="cls-7" d="M307.1,128.33c0-3,.16-5.93.16-8.89,0-6.5.49-24.78-9-24.78A7.79,7.79,0,0,0,294,95.81l-1.23,30.54-14,.49.49-45.28c5,.16,10,.66,15,1a23,23,0,0,0-.16,2.39,10.23,10.23,0,0,0,.25,2.22c2.39-2.63,6.42-3.13,9.71-3.13,11.44,0,18.69,8.56,18.77,19.67l.25,23.38Z"/><path class="cls-7" d="M384,100.75c-2.06,18.36-5.52,27.25-25.93,27.25-13.91,0-24-7.33-28.24-20.58A31.6,31.6,0,0,1,328,98.28V59.51l22.31-.41c-.49,10.21-1.89,20.33-1.89,30.54,0,6.59.49,23.21,10,23.21,10.87,0,8.31-38.69,8.31-45.85a51,51,0,0,1,.33-7.08h18.19V89.39c0,3.79-.82,7.57-1.23,11.36"/><path class="cls-7" d="M409.91,126.19c0,2.39.08,4.77.08,7.08,0,3.13-.08,6.17-.25,9.22H392l-.25-63,16.14-.74.08,5.68a22.29,22.29,0,0,1,8.89-2.06c12,0,20.33,10.78,20.33,22.23,0,15.31-12.92,23.46-27.25,21.57m-.74-34-.08-.33c-.41,1.07-.33,4.69-.33,6.09,0,6.5.17,13.09.33,19.59v-.33C417.24,113.43,422,116.15,422,104c0-9.06-4.61-11.36-12.84-11.85"/><path class="cls-7" d="M467.45,128.25c-17.2,0-27.08-12.43-27.08-29,0-18.85,12.93-40.17,33.59-40.17,13.5,0,23.71,5.35,26.75,19.26-7.33.82-14.57,2.47-22,2.47-.33-4.12-2.55-9.06-7.33-9.06-9.3,0-10.46,16.38-10.46,23.05,0,7.16,2.14,19.35,11.44,19.35,4.12,0,9.22-6.83,9.22-10.7a1.54,1.54,0,0,0-.41-1.15,142.51,142.51,0,0,1-14.57,1.23l1.23-13.75,36.39-2.22a37.6,37.6,0,0,1,.66,7.41c0,23-16,33.26-37.46,33.26"/><path class="cls-7" d="M551.5,108c-8.64-.58-17.2-.66-25.85-.66a16,16,0,0,0-2,.08c.66,6,1.23,9.39,8.23,9.39a10,10,0,0,0,7.9-3.54c2.31,1.4,4.69,2.47,7,3.87-5.93,8-10.78,9.88-20.58,9.88C515.69,127,508,116.64,508,106.68c0-11.85,10.95-25.6,23.38-25.6,14.08,0,20.33,10.29,20.33,23.3a26.68,26.68,0,0,1-.16,3.62m-20-19.51c-4,0-8.23,5.27-8.23,9.14a2.62,2.62,0,0,0,.25,1.15h-.16a10.07,10.07,0,0,1,1.56-.08h13.34a9.53,9.53,0,0,0,.66-3.7c0-4.45-3.29-6.5-7.41-6.5"/><path class="cls-7" d="M582.37,128.33c0-3,.16-5.93.16-8.89,0-6.5.49-24.78-9-24.78a7.79,7.79,0,0,0-4.28,1.15L568,126.35l-14,.49.49-45.28c5,.16,10,.66,15,1a23,23,0,0,0-.16,2.39,10.23,10.23,0,0,0,.25,2.22C572,84.54,576,84,579.32,84c11.44,0,18.69,8.56,18.77,19.67l.25,23.38Z"/><path class="cls-7" d="M605,75.48c-.16-2.06-.16-4.2-.16-6.34v-3a40.15,40.15,0,0,1,.16-4.45l17.62-1.23.74,13.83Zm.49,52.44-.41-44.45,17.2-.16.33,43.38Z"/><path class="cls-7" d="M668.06,125.7c-4.12,0-8.23.33-12.35.33-1.23,0-.08-1.32-1.15-1.73a17.41,17.41,0,0,1-9.71,3.46,20.59,20.59,0,0,1-7.74-1.56c-8-3.29-8.48-19.51-8.48-26.92a123.77,123.77,0,0,1,.82-14.57h13.09c0,7-.16,14-.16,20.91,0,5.1.49,12.76,7.24,12.76,1.4,0,4.61-.74,3.79-2.8v.33c1.4-3.46,1.56-26.34,1.4-31.2l14,.66c0,13.42-.74,26.92-.74,40.34"/><path class="cls-7" d="M710.45,93.84c-5.76-3-11.11-5.52-17.62-5.52-3,0-6.34.08-6.34,3.87,0,6.67,23.71,2.31,23.71,19.51,0,9.14-8.07,19.76-17.78,19.76-5.76,0-13.91-5-19.18-7.49l3.62-10c4.2,2.63,10.87,6,15.89,6,2.8,0,5.35-1.56,5.35-4.61,0-7.24-22.8-.91-22.8-19.51,0-7.24,5.85-17.7,13.5-19.18a26.19,26.19,0,0,1,5.1-.41A30.06,30.06,0,0,1,713,83.3Z"/></g></g></g></svg>