<svg width="152" height="181" viewBox="0 0 152 181" fill="none" xmlns="http://www.w3.org/2000/svg">
<path fill-rule="evenodd" clip-rule="evenodd" d="M12.9529 153.585L107.059 99.9282C109.374 98.6088 112.212 98.6078 114.527 99.9257L150.475 120.391C151.923 121.215 152.429 123.058 151.604 124.506C151.343 124.965 150.965 125.348 150.508 125.616L58.1998 179.727C55.8979 181.077 53.0544 181.109 50.7221 179.813L12.9819 158.843C11.5254 158.034 11.0007 156.197 11.81 154.741C12.0781 154.258 12.4734 153.858 12.9529 153.585Z" fill="#FFC65D"/>
<path fill-rule="evenodd" clip-rule="evenodd" d="M33.1868 107.601V110.143L45.1472 100.497V98.4845L34.5356 106.573L33.1868 107.601Z" fill="#393939"/>
<path fill-rule="evenodd" clip-rule="evenodd" d="M41.3626 100.875L42.5932 101.108L33.1374 107.878L31.6556 107.255L41.3626 100.875Z" fill="#575757"/>
<path fill-rule="evenodd" clip-rule="evenodd" d="M31.1818 106.644L30.4113 108.066L14.3304 100.875L16.2014 100.429L31.1818 106.644Z" fill="#575757"/>
<path fill-rule="evenodd" clip-rule="evenodd" d="M14.3308 100.875V103.472L30.61 110.192L30.3351 107.919L14.3308 100.875Z" fill="#393939"/>
<path d="M30.1562 87.9945H33.9603V110.888C33.6632 111.397 33.0287 111.651 32.0568 111.651C31.0849 111.651 30.4514 111.397 30.1562 110.888V87.9945Z" fill="url(#paint0_linear_410_24341)"/>
<path d="M30.1562 87.9945H33.9603V110.888C33.6632 111.397 33.0287 111.651 32.0568 111.651C31.0849 111.651 30.4514 111.397 30.1562 110.888V87.9945Z" fill="url(#paint1_linear_410_24341)"/>
<path fill-rule="evenodd" clip-rule="evenodd" d="M51.819 68.2186L30.1699 55.3379L33.031 54.0535L54.6984 66.7395L51.819 68.2186Z" fill="#A7A7A7"/>
<path fill-rule="evenodd" clip-rule="evenodd" d="M51.0185 69.2267L30.1699 57.1184L30.1699 55.337L51.0185 67.548V69.2267Z" fill="#636264"/>
<path fill-rule="evenodd" clip-rule="evenodd" d="M34.6951 58.579L39.2284 56.3113L55.8034 64.6202L51.2967 67.6414L34.6951 58.579Z" fill="#525252"/>
<path fill-rule="evenodd" clip-rule="evenodd" d="M51.2966 67.6414L55.8033 64.6391V66.8685L51.2966 69.89V67.6414Z" fill="#BDBDBD"/>
<path fill-rule="evenodd" clip-rule="evenodd" d="M34.6951 58.579L51.2967 67.6444L51.2831 69.8901L34.6951 60.8396L34.6951 58.579Z" fill="#919191"/>
<path fill-rule="evenodd" clip-rule="evenodd" d="M3.77124 38.868L31.3566 23.1295L35.643 69.6368L7.03406 86.486L3.77124 38.868Z" fill="#38373A"/>
<path fill-rule="evenodd" clip-rule="evenodd" d="M9.80542 91.5414C16.6245 87.9962 21.7435 85.2196 25.1627 83.2116C28.5818 81.2036 32.3254 78.7753 36.3934 75.9266C42.0589 77.467 46.3901 79.0021 49.3873 80.5319C52.3845 82.0617 56.3499 84.7614 61.2836 88.631C56.5938 93.0991 52.7436 96.2059 49.7331 97.9513C46.7226 99.6967 41.6887 101.741 34.6314 104.083L9.80542 91.5414Z" fill="#A19F9F"/>
<path fill-rule="evenodd" clip-rule="evenodd" d="M9.80542 87.0444L34.5483 98.8304V104.124L9.80542 91.4339V87.0444Z" fill="#636264"/>
<path fill-rule="evenodd" clip-rule="evenodd" d="M34.6086 99.5938L61.2821 84.107V88.6154C57.8769 92.1913 54.5597 94.9196 51.3304 96.8005C48.1011 98.6814 42.5272 101.132 34.6086 104.151V99.5938Z" fill="#4A4A4A"/>
<path fill-rule="evenodd" clip-rule="evenodd" d="M9.80542 87.0159C16.6245 83.4707 21.7435 80.6941 25.1627 78.6861C28.5818 76.6781 32.3254 74.2498 36.3934 71.4012C42.0589 72.9415 46.3901 74.4766 49.3873 76.0064C52.3845 77.5362 56.3499 80.2359 61.2836 84.1055C56.5938 88.5737 52.7436 91.6804 49.7331 93.4258C46.7226 95.1712 41.6887 97.2151 34.6314 99.5574L9.80542 87.0159Z" fill="#3E3C41"/>
<path fill-rule="evenodd" clip-rule="evenodd" d="M0.754395 36.6053L28.3398 20.8668L31.507 23.2815L3.73243 38.9184L0.754395 36.6053Z" fill="#7D7D7D"/>
<path fill-rule="evenodd" clip-rule="evenodd" d="M2.23781 82.2546L0.754395 36.7059L3.77137 39.0123L7.03224 86.486L2.23781 82.2546Z" fill="#4A4A4A"/>
<path fill-rule="evenodd" clip-rule="evenodd" d="M21.6491 84.812L0 71.9312L2.86113 70.6469L24.5285 83.3328L21.6491 84.812Z" fill="#A7A7A7"/>
<path fill-rule="evenodd" clip-rule="evenodd" d="M21.6804 86.3254L0 73.7119L0 71.9304L21.6804 84.8121V86.3254Z" fill="#E1D8E4"/>
<path fill-rule="evenodd" clip-rule="evenodd" d="M5.27954 75.1724L9.81285 72.9048L26.3879 81.2136L21.8812 84.2348L5.27954 75.1724Z" fill="#525252"/>
<path fill-rule="evenodd" clip-rule="evenodd" d="M5.27954 75.1724L21.8812 84.2378L21.8676 86.4835L5.27954 77.433L5.27954 75.1724Z" fill="#F0F0F0"/>
<path fill-rule="evenodd" clip-rule="evenodd" d="M21.8811 84.2348L26.3878 81.2325V83.4619L21.8811 86.4835V84.2348Z" fill="#919191"/>
<path fill-rule="evenodd" clip-rule="evenodd" d="M33.9607 107.575L57.0214 110.781V111.799L33.803 108.359C33.887 108.288 33.9395 108.2 33.9607 108.095C33.9818 107.99 33.9818 107.816 33.9607 107.575Z" fill="#575757"/>
<path fill-rule="evenodd" clip-rule="evenodd" d="M9.80542 117.406V120.707L31.4276 111.434L31.5071 108.359L9.80542 117.406Z" fill="#393939"/>
<path fill-rule="evenodd" clip-rule="evenodd" d="M31.8312 112.066L33.5719 127.825V124.198L31.6553 108.359L31.8312 112.066Z" fill="#393939"/>
<path fill-rule="evenodd" clip-rule="evenodd" d="M33.8208 108.359L33.8562 110.937L56.7903 114.318L57.0212 111.717L33.8208 108.359Z" fill="#393939"/>
<path fill-rule="evenodd" clip-rule="evenodd" d="M8.29663 116.25V119.064L9.80512 120.707V117.451L8.29663 116.25Z" fill="#232222"/>
<path fill-rule="evenodd" clip-rule="evenodd" d="M33.5723 124.198V127.825H36.9603V124.198H33.5723Z" fill="#232222"/>
<path fill-rule="evenodd" clip-rule="evenodd" d="M30.1699 108.062C30.3138 108.167 30.4605 108.239 30.6099 108.277C30.7593 108.316 31.0717 108.343 31.5469 108.359L9.80528 117.449L8.29679 116.249L30.1699 108.062Z" fill="#575757"/>
<path fill-rule="evenodd" clip-rule="evenodd" d="M31.662 108.359C32.008 108.378 32.2674 108.388 32.4399 108.388C32.6125 108.388 32.9425 108.388 33.4299 108.388L36.9601 124.194L33.5721 124.222L31.662 108.359Z" fill="#575757"/>
<path fill-rule="evenodd" clip-rule="evenodd" d="M66.4568 117.41L65.6194 121.654L71.1892 124.662L72.2296 128.353L76.0994 130.659C78.1327 131.578 79.6253 131.69 80.5774 130.994C81.5295 130.298 81.5295 128.915 80.5774 126.845L78.2801 122.627L75.7652 119.509L75.4043 117.41L71.1892 118.392L66.4568 117.41Z" fill="#120C08"/>
<path fill-rule="evenodd" clip-rule="evenodd" d="M58.0767 120.427H66.3734V126.461C64.5507 126.964 63.168 127.215 62.225 127.215C61.2821 127.215 59.8993 126.964 58.0767 126.461V120.427Z" fill="#D8D8D8"/>
<path fill-rule="evenodd" clip-rule="evenodd" d="M36.6226 73.6639C37.0251 80.2901 38.9903 84.5238 42.5182 86.3649C46.0462 88.2059 53.5014 91.6642 64.8839 96.7398L66.7447 119.806C68.4296 119.806 70.3047 119.806 72.3699 119.806C74.4351 119.806 76.2074 118.688 77.687 116.451L76.4605 92.7875L63.3641 80.0855L51.7359 73.6639H36.6226Z" fill="#414141"/>
<path fill-rule="evenodd" clip-rule="evenodd" d="M36.6226 73.6639C37.0249 80.2901 38.9889 84.5238 42.5147 86.3649C46.0405 88.2059 53.4913 91.6642 64.867 96.7398L66.7267 119.806C66.1982 119.806 66.9659 119.806 69.0298 119.806C71.0938 119.806 70.745 111.336 67.9836 94.3957L57.1425 86.3649L45.3152 80.0855L36.6226 73.6639Z" fill="#1C1B1B"/>
<path fill-rule="evenodd" clip-rule="evenodd" d="M26.3984 75.7332C26.801 82.4765 28.7662 86.7848 32.2941 88.6584C35.822 90.532 43.2773 94.0513 54.6598 99.2164L56.658 125.532C58.5482 126.168 60.5259 126.485 62.591 126.485C64.6562 126.485 66.6243 125.898 68.4954 124.722L66.2364 95.1945C63.3763 91.8377 59.3546 88.1872 54.1712 84.243C48.9878 80.2989 43.5777 76.7725 37.9409 73.6639L26.3984 75.7332Z" fill="#414141"/>
<path fill-rule="evenodd" clip-rule="evenodd" d="M26.3984 75.9267C26.8007 82.76 28.7648 87.1259 32.2906 89.0245C35.8164 90.9231 43.2671 94.4895 54.6429 99.7236L56.8263 125.488L59.1746 126.225L57.7595 97.3063L46.9183 89.0245L35.0911 82.5489L26.3984 75.9267Z" fill="#1C1B1B"/>
<path fill-rule="evenodd" clip-rule="evenodd" d="M58.1602 125.707L57.3228 129.951L60.89 131.891C61.5288 133.884 62.1963 135.277 62.8925 136.071C63.5887 136.865 65.1141 137.908 67.4685 139.199C70.3122 139.795 71.8993 140.104 72.2297 140.126C72.5601 140.148 72.8424 139.964 73.0767 139.575C73.4783 137.002 73.5787 135.437 73.3779 134.88C73.1771 134.324 72.2189 133.327 70.5034 131.891L67.4685 127.806L67.1077 125.707L62.8925 126.689L58.1602 125.707Z" fill="#120C08"/>
<path fill-rule="evenodd" clip-rule="evenodd" d="M50.7089 30.5937C49.0489 30.9066 47.6731 32.0746 46.5815 34.0978L48.1849 55.9567C48.4029 57.5573 48.9396 58.7203 49.795 59.4457C50.6504 60.1711 51.4108 61.4081 52.0761 63.1566L55.2335 68.6465C56.8061 67.0853 58.118 66.1983 59.1692 65.9854C60.2204 65.7725 61.3445 66.1662 62.5416 67.1664L56.7387 53.2109L55.015 39.6146L54.1351 32.6741C53.511 30.9743 52.3689 30.2808 50.7089 30.5937Z" fill="#F2F2F2"/>
<path fill-rule="evenodd" clip-rule="evenodd" d="M50.5902 54.9063C49.1894 57.2561 48.9034 58.7982 49.7322 59.5327C50.561 60.2671 52.2165 63.0008 54.6988 67.734L52.4894 58.6662L54.9804 55.7397L52.5314 56.8778L50.5902 54.9063Z" fill="#E6E4E4"/>
<path fill-rule="evenodd" clip-rule="evenodd" d="M27.6294 34.5344C31.7991 30.9538 35.0872 29.1635 37.4938 29.1635C39.9005 29.1635 44.2165 29.4065 50.4421 29.8926L52.5897 36.2126L50.4421 67.0256C50.8499 72.6535 50.0378 75.4674 48.0055 75.4674C44.9572 75.4674 34.1612 77.4351 31.4481 77.4351C29.6393 77.4351 28.1037 76.7792 26.8413 75.4674L27.6294 34.5344Z" fill="white"/>
<path fill-rule="evenodd" clip-rule="evenodd" d="M26.8413 34.5785C28.2855 33.0692 29.9797 31.7894 31.924 30.739C33.8684 29.6886 36.2482 29.1635 39.0635 29.1635C36.749 34.0065 35.6156 37.5176 35.6632 39.6969C35.7941 45.6917 38.6389 50.9373 39.0635 55.4237C40.2474 67.9336 39.5511 74.5816 39.0635 75.4249C37.9266 77.3908 33.837 77.048 31.924 77.3908C30.6487 77.6193 29.4805 76.964 28.4192 75.4249L26.8413 34.5785Z" fill="#F2F2F2"/>
<path fill-rule="evenodd" clip-rule="evenodd" d="M27.601 35.0145C31.1877 41.1375 33.2246 46.4527 33.7118 50.9603C34.8287 61.2937 32.3359 77.4351 31.282 77.4351C29.5384 77.4351 28.0582 76.7865 26.8413 75.4894L27.601 35.0145Z" fill="#E6E4E4"/>
<path fill-rule="evenodd" clip-rule="evenodd" d="M27.2633 33.5518C25.4438 33.5518 23.8125 34.5865 22.3695 36.6559L21.1194 61.8898C21.1355 63.7592 21.5522 65.1986 22.3695 66.2082C23.1867 67.2177 24.818 68.5196 27.2633 70.1138L46.8514 74.5095V71.3383L48.2982 70.1138L30.6487 60.5991V44.7476V36.6559C30.2113 34.5865 29.0829 33.5518 27.2633 33.5518Z" fill="white"/>
<path fill-rule="evenodd" clip-rule="evenodd" d="M25.2614 35.0145C23.5831 35.0145 22.5868 36.6471 22.2725 39.9123L21.1194 62.2592C21.1342 63.9147 21.5186 65.1895 22.2725 66.0835C23.0263 66.9776 24.531 68.1305 26.7866 69.5423L47.1354 74.5095V72.2186L48.2982 71.2534L26.1166 60.9466L26.7866 38.3602C27.4481 36.1298 26.9397 35.0145 25.2614 35.0145Z" fill="#F2F2F2"/>
<path fill-rule="evenodd" clip-rule="evenodd" d="M43.5008 27.6549L44.6835 29.6585L46.944 34.8265L44.1326 31.9981L43.5008 27.6549Z" fill="#F2F2F2"/>
<path fill-rule="evenodd" clip-rule="evenodd" d="M44.2552 28.4092L44.8889 29.1296L46.9849 34.8555L44.4698 31.4353L44.2552 28.4092Z" fill="#FEFFFF"/>
<path fill-rule="evenodd" clip-rule="evenodd" d="M36.8804 20.7507H44.1627V34.1037L36.9927 30.9796L36.8804 20.7507Z" fill="#DD986F"/>
<path fill-rule="evenodd" clip-rule="evenodd" d="M35.7317 27.6549L36.9609 27.1729L36.9609 30.8378L35.7317 27.6549Z" fill="#F2F2F2"/>
<path fill-rule="evenodd" clip-rule="evenodd" d="M34.611 30.0482L35.7059 27.6549L41.4686 33.8474L40.0357 36.5055L34.611 30.0482Z" fill="#FEFFFF"/>
<path d="M44.2127 28.718C48.6122 28.2556 51.6695 23.0368 51.0415 17.0616C50.4135 11.0863 46.3379 6.61727 41.9384 7.07967C37.5389 7.54208 34.4815 12.7608 35.1096 18.7361C35.7376 24.7113 39.8132 29.1804 44.2127 28.718Z" fill="#F1B086"/>
<path fill-rule="evenodd" clip-rule="evenodd" d="M36.2329 22.4392C33.7516 20.03 32.511 18.0477 32.511 16.4921C32.511 14.9366 32.511 12.3735 32.511 8.80287L35.0784 5.35963L37.314 4.79547L40.8042 10.6313L39.3883 16.4921L38.9077 18.6461H37.4958L35.0784 17.759L36.2329 22.4392Z" fill="#261406"/>
<path fill-rule="evenodd" clip-rule="evenodd" d="M52.9932 13.5258C54.1623 9.99034 52.9041 9.19256 48.0722 5.22884C43.2403 1.26512 38.3755 0.917946 37.2064 4.45341C36.0372 7.98887 37.2955 8.78666 42.1273 12.7504C46.9592 16.7141 51.824 17.0613 52.9932 13.5258Z" fill="#351E0E"/>
<path d="M35.5379 19.2973C36.3412 19.2552 36.9413 18.2483 36.8785 17.0483C36.8156 15.8483 36.1134 14.9097 35.3102 14.9518C34.5069 14.9939 33.9067 16.0008 33.9696 17.2007C34.0325 18.4007 34.7346 19.3394 35.5379 19.2973Z" fill="#F1B086"/>
<path fill-rule="evenodd" clip-rule="evenodd" d="M20.7493 154.265L57.5791 175.729C58.0034 176.879 57.6273 177.802 56.4509 178.497C55.2746 179.192 53.899 179.324 52.3242 178.893L14.4559 156.568C14.0526 155.033 14.6209 154.027 16.161 153.55C17.7011 153.074 19.2305 153.312 20.7493 154.265Z" fill="#4A4A4A"/>
<path fill-rule="evenodd" clip-rule="evenodd" d="M20.7493 153.502L57.5791 174.966C58.0034 176.116 57.6273 177.039 56.4509 177.734C55.2746 178.429 53.899 178.561 52.3242 178.13L14.4559 155.805C14.0526 154.27 14.6209 153.264 16.161 152.787C17.7011 152.311 19.2305 152.549 20.7493 153.502Z" fill="white"/>
<path d="M31.0679 137.287H37.1543V163.873C36.679 164.463 35.6638 164.759 34.1088 164.759C32.5538 164.759 31.5401 164.463 31.0679 163.873V137.287Z" fill="white"/>
<path d="M31.0679 137.287H37.1543V163.873C36.679 164.463 35.6638 164.759 34.1088 164.759C32.5538 164.759 31.5401 164.463 31.0679 163.873V137.287Z" fill="url(#paint2_linear_410_24341)"/>
<path d="M34.1111 138.813C35.7918 138.813 37.1543 138.13 37.1543 137.287C37.1543 136.444 35.7918 135.76 34.1111 135.76C32.4304 135.76 31.0679 136.444 31.0679 137.287C31.0679 138.13 32.4304 138.813 34.1111 138.813Z" fill="#F5F5F5"/>
<path d="M34.1113 138.431C35.3718 138.431 36.3937 137.919 36.3937 137.287C36.3937 136.654 35.3718 136.142 34.1113 136.142C32.8507 136.142 31.8289 136.654 31.8289 137.287C31.8289 137.919 32.8507 138.431 34.1113 138.431Z" fill="#4A4A4A"/>
<path d="M32.2092 114.393H36.0132V137.287C35.7162 137.795 35.0817 138.05 34.1098 138.05C33.1379 138.05 32.5044 137.795 32.2092 137.287V114.393Z" fill="url(#paint3_linear_410_24341)"/>
<path d="M32.2092 114.393H36.0132V137.287C35.7162 137.795 35.0817 138.05 34.1098 138.05C33.1379 138.05 32.5044 137.795 32.2092 137.287V114.393Z" fill="url(#paint4_linear_410_24341)"/>
<path fill-rule="evenodd" clip-rule="evenodd" d="M112.593 103.024L148.422 123.897C148.835 125.016 148.469 125.913 147.324 126.589C146.18 127.265 144.842 127.394 143.31 126.974L106.471 105.263C106.078 103.77 106.631 102.792 108.129 102.329C109.628 101.865 111.115 102.097 112.593 103.024Z" fill="#4A4A4A"/>
<path fill-rule="evenodd" clip-rule="evenodd" d="M112.593 102.251L148.422 123.125C148.835 124.243 148.469 125.14 147.324 125.816C146.18 126.492 144.842 126.621 143.31 126.202L106.471 104.491C106.078 102.997 106.631 102.019 108.129 101.556C109.628 101.093 111.115 101.324 112.593 102.251Z" fill="#E7E6E6"/>
<path d="M122.624 86.6396H128.436V112.443C127.982 113.017 127.013 113.304 125.528 113.304C124.043 113.304 123.075 113.017 122.624 112.443V86.6396Z" fill="#DFDFDF"/>
<path d="M122.624 86.6396H128.436V112.443C127.982 113.017 127.013 113.304 125.528 113.304C124.043 113.304 123.075 113.017 122.624 112.443V86.6396Z" fill="url(#paint5_linear_410_24341)"/>
<path d="M125.53 88.1854C127.135 88.1854 128.436 87.4933 128.436 86.6396C128.436 85.786 127.135 85.0939 125.53 85.0939C123.925 85.0939 122.624 85.786 122.624 86.6396C122.624 87.4933 123.925 88.1854 125.53 88.1854Z" fill="#F5F5F5"/>
<path d="M125.53 87.799C126.707 87.799 127.661 87.2799 127.661 86.6397C127.661 85.9994 126.707 85.4804 125.53 85.4804C124.353 85.4804 123.399 85.9994 123.399 86.6397C123.399 87.2799 124.353 87.799 125.53 87.799Z" fill="#4A4A4A"/>
<path d="M123.786 64.6129H127.661V86.677C127.358 87.1674 126.712 87.4125 125.722 87.4125C124.732 87.4125 124.086 87.1674 123.786 86.677V64.6129Z" fill="url(#paint6_linear_410_24341)"/>
<path d="M123.786 64.6129H127.661V86.677C127.358 87.1674 126.712 87.4125 125.722 87.4125C124.732 87.4125 124.086 87.1674 123.786 86.677V64.6129Z" fill="url(#paint7_linear_410_24341)"/>
<path fill-rule="evenodd" clip-rule="evenodd" d="M12.9529 100.034L107.059 46.3768C109.374 45.0574 112.212 45.0565 114.527 46.3744L150.475 66.8398C151.923 67.6641 152.429 69.5063 151.604 70.9543C151.343 71.414 150.965 71.7969 150.508 72.0644L58.1998 126.176C55.8979 127.525 53.0544 127.558 50.7221 126.262L12.9819 105.292C11.5254 104.482 11.0007 102.646 11.81 101.189C12.0781 100.707 12.4734 100.307 12.9529 100.034Z" fill="#D8D8D8"/>
<path fill-rule="evenodd" clip-rule="evenodd" d="M12.9529 98.5252L107.059 44.8683C109.374 43.5489 112.212 43.548 114.527 44.8659L150.475 65.3313C151.923 66.1557 152.429 67.9978 151.604 69.4458C151.343 69.9055 150.965 70.2884 150.508 70.5559L58.1998 124.667C55.8979 126.017 53.0544 126.05 50.7221 124.754L12.9819 103.783C11.5254 102.974 11.0007 101.137 11.81 99.6807C12.0781 99.1983 12.4734 98.7986 12.9529 98.5252Z" fill="white"/>
<path fill-rule="evenodd" clip-rule="evenodd" d="M46.7632 71.9056C47.1298 71.0665 48.0099 70.6469 49.4037 70.6469C50.7975 70.6469 53.0443 72.3219 56.1441 75.6719L53.7574 77.9396L46.7632 74.1684V71.9056Z" fill="#F1B086"/>
<path fill-rule="evenodd" clip-rule="evenodd" d="M58.8789 66.0125C59.6913 65.7812 60.6811 65.9078 61.8482 66.3922L61.6308 72.1554L62.8272 71.8105L58.4974 73.6639L55.8037 68.1127C57.0415 66.9438 58.0665 66.2437 58.8789 66.0125Z" fill="#F1B086"/>
<path fill-rule="evenodd" clip-rule="evenodd" d="M57.7249 53.1827L91.9014 33.6257C92.6244 33.2119 93.5461 33.4626 93.9599 34.1857C94.1145 34.456 94.1817 34.7674 94.1523 35.0774L91.919 58.6263C91.6882 61.0609 90.2912 63.2324 88.1715 64.4519L53.9072 84.1647C53.1851 84.5801 52.2629 84.3315 51.8474 83.6094C51.6844 83.326 51.6179 82.9974 51.6578 82.6729L54.7329 57.6828C54.9652 55.7951 56.074 54.1273 57.7249 53.1827Z" fill="#4A4A4A"/>
<path fill-rule="evenodd" clip-rule="evenodd" d="M58.2166 53.6719L92.3931 34.1149C93.1161 33.7012 94.0378 33.9519 94.4515 34.675C94.6062 34.9452 94.6734 35.2567 94.644 35.5666L92.4107 59.1156C92.1798 61.5501 90.7829 63.7216 88.6632 64.9412L54.3989 84.6539C53.6768 85.0694 52.7546 84.8208 52.3391 84.0987C52.1761 83.8153 52.1096 83.4866 52.1495 83.1622L55.2246 58.1721C55.4569 56.2843 56.5657 54.6166 58.2166 53.6719Z" fill="#E5E5ED"/>
<path d="M75.8185 58.9879C76.601 59.2123 77.477 58.5517 77.775 57.5124C78.0731 56.4731 77.6802 55.4487 76.8977 55.2243C76.1151 54.9999 75.2391 55.6605 74.9411 56.6998C74.6431 57.7391 75.0359 58.7635 75.8185 58.9879Z" fill="#B4B4CE"/>
<g filter="url(#filter0_f_410_24341)">
<path fill-rule="evenodd" clip-rule="evenodd" d="M73.8417 62.3496L79.0075 59.5778L78.4307 70.7022L69.967 75.6531L73.8417 62.3496Z" fill="url(#paint8_linear_410_24341)"/>
</g>
<path fill-rule="evenodd" clip-rule="evenodd" d="M69.4433 79.0335L75.6905 75.0517L86.6625 78.3472L77.4565 83.7541L69.5513 80.3627C69.1685 80.1984 68.9913 79.755 69.1555 79.3721C69.2153 79.2329 69.3155 79.1149 69.4433 79.0335Z" fill="#4A4A4A"/>
<path fill-rule="evenodd" clip-rule="evenodd" d="M69.723 78.6484L76.475 74.4978L86.6626 78.4262L77.5657 83.2192L69.8273 79.9869C69.4429 79.8264 69.2614 79.3846 69.422 79.0002C69.483 78.8543 69.5882 78.7312 69.723 78.6484Z" fill="#E5E5ED"/>
<path fill-rule="evenodd" clip-rule="evenodd" d="M78.5502 60.0875L86.1661 78.4321L77.2792 83.6092L73.8362 62.8629L78.5502 60.0875ZM79.2945 68.7764C78.1983 68.7764 77.3097 69.6408 77.3097 70.7072C77.3097 71.7736 78.1983 72.6381 79.2945 72.6381C80.3907 72.6381 81.2794 71.7736 81.2794 70.7072C81.2794 69.6408 80.3907 68.7764 79.2945 68.7764Z" fill="#4A4A4A"/>
<path fill-rule="evenodd" clip-rule="evenodd" d="M79.0468 60.0875L86.6626 78.4321L77.7758 83.6092L74.3328 62.8629L79.0468 60.0875ZM79.7911 68.7764C78.6949 68.7764 77.8063 69.6408 77.8063 70.7072C77.8063 71.7736 78.6949 72.6381 79.7911 72.6381C80.8873 72.6381 81.776 71.7736 81.776 70.7072C81.776 69.6408 80.8873 68.7764 79.7911 68.7764Z" fill="#E5E5ED"/>
<path fill-rule="evenodd" clip-rule="evenodd" d="M73.8362 62.8629L78.5453 60.0875H79.0512L74.3324 62.9114L73.8362 62.8629Z" fill="url(#paint9_linear_410_24341)"/>
<defs>
<filter id="filter0_f_410_24341" x="69.467" y="59.0778" width="10.0405" height="17.0753" filterUnits="userSpaceOnUse" color-interpolation-filters="sRGB">
<feFlood flood-opacity="0" result="BackgroundImageFix"/>
<feBlend mode="normal" in="SourceGraphic" in2="BackgroundImageFix" result="shape"/>
<feGaussianBlur stdDeviation="0.25" result="effect1_foregroundBlur_410_24341"/>
</filter>
<linearGradient id="paint0_linear_410_24341" x1="30.1562" y1="94.9635" x2="33.9603" y2="94.9635" gradientUnits="userSpaceOnUse">
<stop stop-color="#525151"/>
<stop offset="1" stop-color="#222222"/>
</linearGradient>
<linearGradient id="paint1_linear_410_24341" x1="32.0583" y1="99.8228" x2="32.0583" y2="88.1978" gradientUnits="userSpaceOnUse">
<stop stop-color="white" stop-opacity="0.0463372"/>
<stop offset="1" stop-opacity="0.27992"/>
</linearGradient>
<linearGradient id="paint2_linear_410_24341" x1="31.0679" y1="145.38" x2="37.1543" y2="145.38" gradientUnits="userSpaceOnUse">
<stop stop-color="#EEEEEE" stop-opacity="0.448822"/>
<stop offset="1" stop-color="#D8D8D8" stop-opacity="0.578068"/>
</linearGradient>
<linearGradient id="paint3_linear_410_24341" x1="32.2092" y1="121.362" x2="36.0132" y2="121.362" gradientUnits="userSpaceOnUse">
<stop stop-color="#EEEEEE"/>
<stop offset="1" stop-color="#D8D8D8"/>
</linearGradient>
<linearGradient id="paint4_linear_410_24341" x1="34.1112" y1="126.221" x2="34.1112" y2="114.596" gradientUnits="userSpaceOnUse">
<stop stop-color="white" stop-opacity="0.0463372"/>
<stop offset="1" stop-opacity="0.27992"/>
</linearGradient>
<linearGradient id="paint5_linear_410_24341" x1="122.624" y1="94.4945" x2="128.436" y2="94.4945" gradientUnits="userSpaceOnUse">
<stop stop-color="#EEEEEE" stop-opacity="0.448822"/>
<stop offset="1" stop-color="#D8D8D8" stop-opacity="0.578068"/>
</linearGradient>
<linearGradient id="paint6_linear_410_24341" x1="123.786" y1="71.3294" x2="127.661" y2="71.3294" gradientUnits="userSpaceOnUse">
<stop stop-color="#EEEEEE"/>
<stop offset="1" stop-color="#D8D8D8"/>
</linearGradient>
<linearGradient id="paint7_linear_410_24341" x1="125.723" y1="76.0127" x2="125.723" y2="64.8088" gradientUnits="userSpaceOnUse">
<stop stop-color="white" stop-opacity="0.0463372"/>
<stop offset="1" stop-opacity="0.27992"/>
</linearGradient>
<linearGradient id="paint8_linear_410_24341" x1="74.0952" y1="72.4953" x2="77.5948" y2="67.6773" gradientUnits="userSpaceOnUse">
<stop stop-color="#818181" stop-opacity="0.0467052"/>
<stop offset="1" stop-color="#4A4A4A" stop-opacity="0.317906"/>
</linearGradient>
<linearGradient id="paint9_linear_410_24341" x1="76.772" y1="61.5829" x2="76.5182" y2="61.2028" gradientUnits="userSpaceOnUse">
<stop stop-color="#FBFBFD"/>
<stop offset="1" stop-color="#E3E3EC"/>
</linearGradient>
</defs>
</svg>
