<svg fill="currentColor" viewBox="0 0 38 36" xmlns="http://www.w3.org/2000/svg"><path d="m30.606 22.659c-1.8 0-3.424.747-4.586 1.943l-13.268-6.209c.022-.22.035-.443.035-.67s-.013-.45-.035-.67l13.268-6.208c1.162 1.197 2.787 1.944 4.587 1.944 3.53 0 6.394-2.862 6.394-6.395 0-3.531-2.863-6.394-6.394-6.394-3.532 0-6.394 2.863-6.394 6.394 0 .227.012.45.035.671l-13.269 6.208c-1.162-1.197-2.786-1.943-4.586-1.943-3.53-.001-6.393 2.862-6.393 6.393 0 3.532 2.863 6.394 6.394 6.394 1.8 0 3.425-.747 4.587-1.944l13.268 6.208c-.022.221-.035.444-.035.671 0 3.531 2.861 6.394 6.394 6.394 3.53 0 6.394-2.863 6.394-6.394s-2.865-6.393-6.396-6.393z" transform="translate(.5 .277)"/></svg>
