<svg fill="currentColor" height="52" viewBox="0 0 64 64" width="52" xmlns="http://www.w3.org/2000/svg"><path d="m32 1.8c-17 0-31 13.8-31 31 0 13.6 8.9 25.2 21.3 29.4 1.6.3 2.1-.7 2.1-1.4s0-2.7-.1-5.4c-8.6 2-10.4-4.2-10.4-4.2-1.4-3.5-3.5-4.5-3.5-4.5-2.8-2 .1-2 .1-2 3.1.1 4.8 3.2 4.8 3.2 2.7 4.8 7.3 3.4 9 2.5.3-2 1.1-3.4 2-4.2-6.8-.7-14.1-3.4-14.1-15.2 0-3.4 1.3-6.1 3.2-8.2-.3-.7-1.4-3.9.3-8.2 0 0 2.7-.8 8.6 3.2 2.5-.7 5.1-1.1 7.8-1.1s5.4.3 7.8 1.1c5.9-3.9 8.5-3.2 8.5-3.2 1.7 4.2.7 7.5.3 8.2 2 2.1 3.2 4.9 3.2 8.2 0 11.8-7.3 14.5-14.1 15.2 1.1 1 2.1 3 2.1 5.8 0 4.2-.1 7.5-.1 8.5 0 .8.6 1.7 2.1 1.4 12.2-4.1 21.1-15.6 21.1-29.3-.1-17-14-30.8-31-30.8z"/></svg>
