<svg height="55" viewBox="0 0 55 55" width="55" fill="currentColor" xmlns="http://www.w3.org/2000/svg"><g><path d="m27.5 13.4174553c-7.7578947 0-14.0684211 6.3038907-14.0684211 14.0536278s6.3105264 14.0536277 14.0684211 14.0536277 14.0684211-6.3038906 14.0684211-14.0536277-6.3105264-14.0536278-14.0684211-14.0536278z"/><path d="m27.5 9.83175605c1.5052632 0 2.7210526-1.21451104 2.7210526-2.71819138v-4.39537329c0-1.50368034-1.2157894-2.71819138-2.7210526-2.71819138s-2.7210526 1.21451104-2.7210526 2.71819138v4.45320715c0 1.44584648 1.2157894 2.66035752 2.7210526 2.66035752z"/><path d="m11.1736842 15.0368034c.5210526.5205047 1.2157895.809674 1.9105263.809674.6947369 0 1.3894737-.2891693 1.9105263-.809674 1.0421053-1.0410095 1.0421053-2.7760253 0-3.8170347l-3.1263157-3.18086229c-1.0421053-1.04100946-2.77894742-1.04100946-3.82105268 0-1.04210526 1.04100947-1.04210526 2.77602529 0 3.81703469z"/><path d="m9.84210526 27.4710831c0-1.5036804-1.21578947-2.7181914-2.72105263-2.7181914h-4.4c-1.50526316 0-2.72105263 1.214511-2.72105263 2.7181914 0 1.5036803 1.21578947 2.7181913 2.72105263 2.7181913h4.45789474c1.44736842 0 2.66315789-1.214511 2.66315789-2.7181913z"/><path d="m11.1736842 39.9053628-3.12631578 3.1808622c-1.04210526 1.0410095-1.04210526 2.7760253 0 3.8170347.52105263.5205048 1.21578947.8096741 1.91052632.8096741.69473686 0 1.38947366-.2891693 1.91052636-.8096741l3.1263157-3.1230284c1.0421053-1.0410094 1.0421053-2.7760252 0-3.8170347-1.0421052-1.0988433-2.7210526-1.0988433-3.8210526-.0578338z"/><path d="m27.5 45.1104101c-1.5052632 0-2.7210526 1.214511-2.7210526 2.7181914v4.4532071c0 1.5036804 1.2157894 2.7181914 2.7210526 2.7181914s2.7210526-1.214511 2.7210526-2.7181914v-4.4532071c0-1.5036804-1.2157894-2.7181914-2.7210526-2.7181914z"/><path d="m43.8263158 39.9053628c-1.0421053-1.0410095-2.7789474-1.0410095-3.8210526 0-1.0421053 1.0410094-1.0421053 2.7760252 0 3.8170347l3.1263157 3.1230284c.5210527.5205047 1.2157895.809674 1.9105264.809674.6947368 0 1.3894736-.2891693 1.9105263-.809674 1.0421052-1.0410095 1.0421052-2.7760253 0-3.8170347z"/><path d="m52.2789474 24.7528917h-4.4578948c-1.5052631 0-2.7210526 1.214511-2.7210526 2.7181914 0 1.5036803 1.2157895 2.7181913 2.7210526 2.7181913h4.4578948c1.5052631 0 2.7210526-1.214511 2.7210526-2.7181913 0-1.5036804-1.2157895-2.7181914-2.7210526-2.7181914z"/><path d="m41.9157895 15.7886435c.6947368 0 1.3894737-.2891693 1.9105263-.809674l3.1263158-3.1230284c1.0421052-1.0410094 1.0421052-2.77602522 0-3.81703469-1.0421053-1.04100946-2.7789474-1.04100946-3.8210527 0l-3.1263157 3.12302839c-1.0421053 1.0410095-1.0421053 2.7760252 0 3.8170347.5210526.5783386 1.2157894.809674 1.9105263.809674z"/></g></svg>
