<svg viewBox="0 0 576 173.47" xmlns="http://www.w3.org/2000/svg"><path d="m75.03 63.34.25-.16 44.91-26.65 45.28 25.33.27.17-.03 8.18-45.17 26.81-45.58-25.6" fill="#101010"/><path d="m120.53 106.79 45.16-26.92-.03 8.51-45.18 26.81z" fill="#101010"/><path d="m74.92 89.61 45.56 25.58.05-8.4-45.57-25.59z" fill="#101010"/><path d="m120.39 124.71 45.17-26.92-.03 8.51-45.18 26.81z" fill="#df4326"/><path d="m41 88.58 79.35 44.53.04-8.4-79.35-44.53z" fill="#df4326"/><g fill="#101010"><path d="m214.93 105a23.11 23.11 0 0 1 -7.32-5.82v7.46h-8.53v-64.35h8.53v22.87a18.64 18.64 0 0 1 6.39-5.33 19.84 19.84 0 0 1 9.74-2.32 24.44 24.44 0 0 1 17.35 7.27 25.51 25.51 0 0 1 5.28 8 25 25 0 0 1 0 19.09 25.55 25.55 0 0 1 -5.28 8 24.44 24.44 0 0 1 -17.35 7.27 19.2 19.2 0 0 1 -8.81-2.14zm2.61-37.46a14.56 14.56 0 0 0 -5.08 3.46 17.05 17.05 0 0 0 -3.4 5.18 15.61 15.61 0 0 0 -1.26 6.16 15.86 15.86 0 0 0 4.66 11.34 15.25 15.25 0 0 0 5.08 3.49 15.61 15.61 0 0 0 6.16 1.26 15.23 15.23 0 0 0 6.11-1.26 15.45 15.45 0 0 0 5-3.49 15.82 15.82 0 0 0 4.66-11.34 15.61 15.61 0 0 0 -1.26-6.16 17.05 17.05 0 0 0 -3.4-5.18 14.74 14.74 0 0 0 -5-3.44 15.71 15.71 0 0 0 -6.11-1.21 16.1 16.1 0 0 0 -6.16 1.19z"/><path d="m293.77 106.64v-7.36a24.44 24.44 0 0 1 -7.17 5.72 18.34 18.34 0 0 1 -8.63 2.13 24.23 24.23 0 0 1 -9.45-1.84 23.92 23.92 0 0 1 -7.8-5.24 23.2 23.2 0 0 1 -5.28-7.8 24.57 24.57 0 0 1 0-18.9 24.56 24.56 0 0 1 5.28-7.9 24 24 0 0 1 17.28-7.07 20.5 20.5 0 0 1 15.8 7.36v-6.39h8.72v47.29zm-21.95-38.42a15 15 0 0 0 -8.43 8.43 16 16 0 0 0 -1.21 6.15 15.71 15.71 0 0 0 1.21 6.11 15.09 15.09 0 0 0 8.43 8.38 16 16 0 0 0 6.18 1.21 15.67 15.67 0 0 0 6.11-1.21 15.21 15.21 0 0 0 8.38-8.38 15.71 15.71 0 0 0 1.21-6.11 16 16 0 0 0 -1.21-6.15 15.09 15.09 0 0 0 -8.38-8.43 15.68 15.68 0 0 0 -6.11-1.22 16 16 0 0 0 -6.18 1.22z"/><path d="m332.93 69.33c-1.23-2.13-3.66-3.2-7.27-3.2a11.55 11.55 0 0 0 -4.46.68 6.3 6.3 0 0 0 -3.05 2.19 5.46 5.46 0 0 0 -1 3.2 5.69 5.69 0 0 0 1.55 3.88c1.1 1.22 2.87 1.87 5.33 1.93a43.36 43.36 0 0 1 10.52 1.55 11.54 11.54 0 0 1 6.2 4.37q2.17 3.09 2.18 8.72a13.19 13.19 0 0 1 -4.36 9.88 17.21 17.21 0 0 1 -5 3.3 14.66 14.66 0 0 1 -6 1.26h-1.46q-7.75 0-12.5-4.46-3.88-3.58-4.85-10.08h8.63a7.28 7.28 0 0 0 1.94 3.78 8.6 8.6 0 0 0 6.2 2.13 9.42 9.42 0 0 0 1.55-.09 8.61 8.61 0 0 0 5.33-1.89 5.39 5.39 0 0 0 1.94-4.22c0-2.33-.71-3.84-2.13-4.55s-4.17-1.07-8.24-1.07q-7.65 0-11.73-4.85a13.44 13.44 0 0 1 -3.29-9.3 15.77 15.77 0 0 1 .09-1.94 13.59 13.59 0 0 1 5.22-9.55q4.41-3.35 11.68-3.35a18.09 18.09 0 0 1 9.3 2.33 15.68 15.68 0 0 1 4.85 4.85 18.94 18.94 0 0 1 2.52 7.75l-.2.1h-8.23a9.11 9.11 0 0 0 -1.26-3.35z"/><path d="m357.54 86.1a8.72 8.72 0 0 0 1.7 4.84 18.69 18.69 0 0 0 3.92 4.27 15 15 0 0 0 9.5 3.2q8.63 0 14.06-8.34l7.36 4.36a27.53 27.53 0 0 1 -9.3 9.4 23.21 23.21 0 0 1 -12.12 3.3 23.85 23.85 0 0 1 -9.4-1.89 24.63 24.63 0 0 1 -13.13-13.13 23.85 23.85 0 0 1 -1.89-9.4 24.58 24.58 0 0 1 7.17-17.35 22.86 22.86 0 0 1 7.8-5.24 25.19 25.19 0 0 1 18.9 0 22.67 22.67 0 0 1 7.8 5.24 23.68 23.68 0 0 1 7.18 17 25.38 25.38 0 0 1 -.29 3.69zm7.66-18.1a15.11 15.11 0 0 0 -5.57 4.61 10.09 10.09 0 0 0 -2.09 6.06h30.24a10.08 10.08 0 0 0 -2.08-6.06 15.19 15.19 0 0 0 -5.57-4.61 16.88 16.88 0 0 0 -14.93 0z"/><path d="m405.32 106.64v-64.45h7.76v64.45z"/><path d="m423.59 49.9a4.44 4.44 0 1 1 3.15 1.31 4.3 4.3 0 0 1 -3.15-1.31zm-.82 56.74v-48.45h8.14v48.45z"/><path d="m470.36 106.64v-29.07a10.69 10.69 0 0 0 -18.36-7.46 11.06 11.06 0 0 0 -2.33 3.44 9.91 9.91 0 0 0 -.87 4v29.07h-8.43v-47.27h8.43v4a14.22 14.22 0 0 1 4.85-3.68 13.46 13.46 0 0 1 5.91-1.45 18.8 18.8 0 0 1 7.41 1.5 19.68 19.68 0 0 1 6.25 4.21 19.33 19.33 0 0 1 5.62 13.67v29.07z"/><path d="m495.46 86.1a8.7 8.7 0 0 0 1.69 4.84 18.5 18.5 0 0 0 3.93 4.27 14.94 14.94 0 0 0 9.5 3.2q8.63 0 14.05-8.34l7.37 4.36a27.55 27.55 0 0 1 -9.31 9.4 23.17 23.17 0 0 1 -12.11 3.3 23.81 23.81 0 0 1 -9.4-1.89 24.69 24.69 0 0 1 -13.18-13.13 23.85 23.85 0 0 1 -1.89-9.4 24.54 24.54 0 0 1 7.18-17.35 22.67 22.67 0 0 1 7.8-5.24 25.19 25.19 0 0 1 18.9 0 22.86 22.86 0 0 1 7.8 5.24 23.71 23.71 0 0 1 7.17 17 25.38 25.38 0 0 1 -.29 3.69zm7.65-18.1a15.19 15.19 0 0 0 -5.57 4.61 10.08 10.08 0 0 0 -2.08 6.06h30.24a10.09 10.09 0 0 0 -2.09-6.06 15.11 15.11 0 0 0 -5.61-4.61 16.88 16.88 0 0 0 -14.93 0z"/></g></svg>