<?xml version="1.0" standalone="no"?>
<!DOCTYPE svg PUBLIC "-//W3C//DTD SVG 20010904//EN"
 "http://www.w3.org/TR/2001/REC-SVG-20010904/DTD/svg10.dtd">
<svg version="1.0" xmlns="http://www.w3.org/2000/svg"
 width="1000.000000pt" height="1000.000000pt" viewBox="0 0 1000.000000 1000.000000"
 preserveAspectRatio="xMidYMid meet">
<metadata>
Created by potrace 1.14, written by Peter Selinger 2001-2017
</metadata>
<g transform="translate(0.000000,1000.000000) scale(0.100000,-0.100000)"
fill="#000000" stroke="none">
<path d="M6320 8869 c-8 -5 -64 -39 -125 -75 -60 -37 -126 -75 -145 -86 -82
-46 -156 -92 -174 -107 -10 -9 -20 -15 -22 -13 -3 2 -37 -17 -77 -41 -144 -88
-280 -167 -288 -167 -5 0 -9 -4 -9 -10 0 -5 -5 -10 -10 -10 -6 0 -47 -22 -91
-50 -44 -27 -83 -50 -85 -50 -2 0 -41 -23 -87 -50 -45 -28 -89 -55 -97 -60
-217 -129 -280 -166 -305 -179 -16 -9 -35 -21 -41 -27 -7 -6 -26 -17 -43 -24
-17 -7 -31 -16 -31 -21 0 -5 -4 -9 -9 -9 -7 0 -315 -179 -416 -242 -16 -10
-38 -21 -47 -24 -10 -4 -18 -10 -18 -15 0 -5 -4 -9 -9 -9 -5 0 -63 -33 -130
-72 -66 -40 -129 -78 -138 -83 -51 -29 -158 -92 -181 -106 -145 -87 -235 -139
-243 -139 -5 0 -9 -4 -9 -9 0 -5 -14 -14 -31 -21 -17 -7 -36 -18 -42 -24 -7
-6 -38 -24 -70 -41 -31 -16 -57 -33 -57 -36 0 -4 -15 -12 -32 -20 -18 -7 -35
-16 -38 -19 -3 -4 -25 -17 -50 -31 -25 -13 -50 -29 -56 -34 -6 -6 -30 -19 -53
-29 -22 -11 -41 -23 -41 -28 0 -4 -4 -8 -9 -8 -9 0 -131 -69 -141 -80 -5 -5
-39 -24 -100 -57 -19 -10 -38 -22 -41 -27 -4 -5 -6 -42 -5 -83 0 -41 -2 -77
-6 -79 -4 -3 -4 -14 1 -26 4 -11 4 -40 1 -64 -4 -24 -3 -44 2 -44 5 0 6 -5 3
-11 -6 -8 -10 -286 -6 -335 1 -6 18 -19 39 -30 20 -10 39 -21 42 -24 3 -3 34
-20 70 -39 36 -19 67 -37 70 -40 3 -3 28 -18 55 -32 28 -15 104 -57 170 -94
66 -38 138 -78 160 -89 22 -12 42 -24 43 -28 2 -5 7 -8 12 -8 7 0 35 -15 187
-101 21 -12 61 -35 90 -50 28 -16 106 -60 174 -99 67 -38 128 -70 136 -70 7 0
13 -4 13 -9 0 -5 19 -18 43 -30 23 -11 69 -36 102 -55 33 -20 77 -43 98 -53
20 -10 37 -21 37 -25 0 -5 4 -8 10 -8 5 0 48 -22 96 -50 48 -28 88 -50 90 -50
2 0 27 -14 56 -32 29 -17 73 -42 98 -55 25 -13 52 -28 60 -33 36 -24 213 -120
221 -120 5 0 9 -4 9 -10 0 -5 4 -10 9 -10 5 0 46 -21 92 -47 46 -26 98 -55
114 -64 17 -10 47 -26 68 -36 20 -10 37 -21 37 -25 0 -5 9 -8 19 -8 11 0 21
-4 23 -8 2 -5 89 -56 193 -114 105 -58 233 -130 287 -161 53 -30 110 -61 127
-68 17 -8 31 -17 31 -20 0 -4 15 -12 33 -20 17 -7 34 -15 37 -18 6 -7 83 -50
117 -66 13 -5 23 -14 23 -18 0 -5 4 -6 9 -3 5 3 14 -1 21 -9 7 -8 16 -15 20
-15 5 0 52 -25 105 -56 l96 -55 70 40 c39 23 75 41 80 41 5 0 9 5 9 10 0 6 7
10 15 10 8 0 15 3 15 8 0 4 15 13 33 21 17 8 34 17 37 20 3 4 43 28 90 55 47
27 87 52 90 55 3 3 19 13 35 21 17 8 57 32 90 52 33 21 65 38 72 38 6 0 13 4
15 8 2 5 48 35 103 67 55 33 114 67 130 77 17 10 41 24 55 30 14 7 34 21 44
30 11 10 24 18 30 18 5 0 26 11 45 24 32 21 403 243 456 272 11 6 45 26 75 44
30 18 64 38 75 44 49 27 425 252 472 282 29 19 55 34 58 34 3 0 24 12 48 27
46 30 74 46 142 82 25 14 45 28 45 33 0 4 4 8 10 8 5 0 116 64 247 142 131 78
252 148 268 157 17 9 32 19 33 24 2 4 7 7 12 7 4 0 55 29 114 65 58 36 108 65
111 65 2 0 29 16 59 35 30 19 59 35 65 35 5 0 11 4 13 8 2 5 26 21 53 36 28
16 84 49 126 74 l76 47 1 327 0 327 -66 38 c-37 21 -76 43 -87 50 -11 7 -27
15 -35 19 -8 4 -174 97 -369 206 -194 109 -357 198 -362 198 -5 0 -9 5 -9 10
0 6 -5 10 -12 10 -6 0 -45 20 -87 44 -42 24 -103 58 -136 76 -33 18 -114 64
-179 102 -66 37 -123 68 -128 68 -5 0 -14 5 -21 10 -18 16 -169 100 -179 100
-4 0 -8 5 -8 10 0 6 -9 10 -20 10 -11 0 -20 4 -20 8 0 4 -15 15 -32 23 -56 26
-103 54 -106 62 -2 4 -8 7 -14 7 -8 0 -111 56 -230 125 -9 6 -45 25 -80 44
-35 18 -74 41 -88 50 -14 10 -54 32 -90 50 -36 19 -72 40 -81 47 -8 8 -19 14
-23 14 -4 0 -41 20 -84 44 -92 52 -127 72 -207 116 -33 18 -109 61 -170 95
-60 34 -137 77 -170 95 -33 19 -78 44 -100 56 -22 13 -51 29 -65 37 -14 7
-104 57 -200 111 -96 54 -177 99 -180 101 -3 1 -12 -1 -20 -6z"/>
<path d="M9940 5391 c-14 -9 -26 -19 -28 -23 -2 -5 -8 -8 -13 -8 -5 0 -100
-55 -211 -121 -112 -67 -223 -133 -248 -147 -25 -13 -52 -31 -61 -38 -8 -8
-18 -14 -21 -14 -3 0 -52 -28 -109 -63 -57 -35 -187 -112 -289 -172 -102 -60
-186 -112 -188 -117 -2 -4 -8 -8 -14 -8 -5 0 -83 -44 -171 -97 -89 -54 -171
-103 -182 -109 -11 -6 -89 -52 -173 -103 -84 -50 -157 -91 -162 -91 -5 0 -10
-3 -12 -8 -4 -10 -244 -152 -257 -152 -6 0 -11 -3 -11 -8 0 -4 -17 -16 -37
-27 -21 -11 -57 -32 -79 -47 -23 -16 -45 -28 -48 -28 -3 0 -32 -17 -63 -37
-32 -20 -60 -37 -63 -37 -3 0 -9 -4 -15 -9 -21 -17 -121 -77 -157 -93 -21 -9
-38 -20 -38 -24 0 -4 -12 -13 -27 -19 -16 -6 -40 -19 -55 -29 -50 -32 -556
-334 -624 -373 -62 -34 -78 -44 -88 -52 -37 -28 -142 -84 -146 -78 -5 8 -45
31 -160 94 -30 16 -59 33 -65 37 -9 7 -32 20 -175 98 -25 14 -49 28 -55 32 -5
4 -35 21 -65 37 -84 46 -152 84 -185 103 -16 10 -50 29 -75 42 -98 55 -149 83
-238 134 -52 30 -95 54 -97 54 -2 0 -42 22 -90 50 -48 28 -91 50 -96 50 -5 0
-9 5 -9 10 0 6 -5 10 -11 10 -5 0 -76 38 -157 83 -81 46 -174 99 -207 117 -33
18 -64 36 -70 40 -5 4 -35 21 -65 37 -30 17 -84 47 -120 67 -36 21 -77 43 -92
49 -16 6 -28 15 -28 19 0 4 -4 8 -9 8 -6 0 -38 17 -73 37 -35 20 -64 35 -64
32 -1 -2 -10 3 -20 12 -11 9 -46 31 -79 49 -72 39 -76 41 -385 215 -135 76
-263 148 -285 160 -22 12 -133 74 -247 138 -113 64 -211 117 -217 117 -6 0
-11 5 -11 10 0 6 -4 10 -10 10 -5 0 -38 17 -72 38 -70 43 -98 55 -99 44 -1 -4
-2 -154 -3 -334 l-2 -327 95 -53 c53 -28 98 -55 101 -58 3 -3 19 -12 35 -20
17 -8 67 -36 113 -62 46 -27 88 -48 93 -48 5 0 9 -4 9 -10 0 -5 4 -10 10 -10
8 0 106 -54 395 -217 33 -19 68 -37 78 -40 9 -3 17 -9 17 -14 0 -5 4 -9 9 -9
9 0 188 -97 221 -120 8 -6 26 -16 40 -23 28 -14 224 -123 255 -142 11 -7 25
-13 30 -15 6 -1 22 -11 37 -21 14 -10 31 -19 37 -19 6 0 11 -3 11 -8 0 -4 15
-13 33 -21 17 -8 48 -24 67 -36 34 -21 72 -42 215 -120 39 -21 82 -47 97 -57
14 -10 33 -18 42 -18 9 0 16 -4 16 -8 0 -5 18 -17 40 -27 22 -10 40 -22 40
-27 0 -4 9 -8 19 -8 11 0 21 -3 23 -7 3 -7 84 -54 135 -78 13 -5 23 -13 23
-17 0 -5 4 -8 9 -8 8 0 35 -14 188 -101 21 -12 63 -36 93 -52 30 -17 73 -41
95 -54 22 -13 48 -26 58 -30 9 -3 17 -9 17 -14 0 -5 5 -9 12 -9 6 0 47 -21 92
-47 129 -75 199 -113 229 -126 15 -6 27 -15 27 -19 0 -4 4 -8 9 -8 6 0 36 -15
68 -34 32 -18 78 -45 103 -58 80 -44 124 -70 155 -88 68 -39 147 -80 157 -80
6 0 19 6 27 14 9 8 23 16 31 18 8 2 17 5 20 8 11 11 213 130 221 130 5 0 9 5
9 10 0 6 4 10 9 10 4 0 41 19 80 43 40 23 88 51 107 62 19 11 98 58 176 105
78 47 147 87 152 89 6 2 13 7 16 11 3 4 30 20 60 36 30 16 57 32 60 35 3 3 36
23 73 45 38 21 76 44 85 49 10 6 85 50 167 98 83 49 162 97 177 108 15 10 34
19 43 19 8 0 15 4 15 8 0 5 19 19 43 32 23 13 98 57 167 98 69 42 134 81 145
86 16 9 251 149 340 203 11 7 27 15 35 19 13 7 48 27 135 81 11 7 49 29 85 49
36 21 67 41 68 46 2 4 8 8 13 8 5 0 66 34 137 76 70 43 142 85 160 95 27 16
178 106 232 138 107 66 273 161 280 161 5 0 10 4 12 8 2 5 30 23 63 42 33 18
62 36 65 39 3 3 26 17 53 31 26 13 47 31 48 40 4 64 3 662 -1 665 -3 1 -16 -5
-30 -14z"/>
<path d="M2 5051 l-2 -338 57 -31 c32 -18 81 -45 108 -60 164 -93 442 -249
455 -255 8 -4 31 -17 50 -28 19 -12 64 -37 100 -57 36 -20 87 -48 113 -64 26
-15 52 -28 57 -28 6 0 10 -4 10 -8 0 -5 16 -14 35 -22 19 -8 35 -17 35 -22 0
-4 5 -8 10 -8 6 0 67 -32 138 -72 70 -39 145 -81 167 -92 22 -12 42 -24 43
-28 2 -5 7 -8 12 -8 5 0 47 -23 95 -50 48 -28 88 -50 90 -50 2 0 42 -22 90
-50 48 -28 89 -50 92 -50 3 0 17 -8 31 -19 25 -17 157 -90 209 -115 13 -6 23
-14 23 -18 0 -5 4 -8 9 -8 5 0 48 -22 96 -50 48 -27 88 -50 89 -50 1 0 98 -54
216 -120 117 -66 216 -120 221 -120 4 0 9 -3 11 -7 2 -5 23 -19 48 -32 86 -45
175 -95 212 -118 21 -13 42 -23 47 -23 5 0 11 -3 13 -7 3 -7 98 -60 155 -87
13 -6 23 -14 23 -18 0 -5 5 -8 10 -8 6 0 74 -36 151 -80 76 -44 141 -80 143
-80 5 0 251 -141 264 -152 6 -6 12 -7 12 -3 0 5 8 1 17 -7 10 -8 25 -18 33
-21 8 -4 38 -20 65 -36 28 -17 66 -39 85 -49 19 -10 71 -39 115 -64 44 -25
107 -60 140 -78 62 -34 99 -55 160 -90 63 -36 99 -56 160 -90 33 -18 65 -36
70 -40 6 -4 42 -24 80 -45 136 -75 150 -83 185 -101 19 -11 37 -21 40 -24 3
-3 16 -11 30 -17 14 -7 52 -28 85 -47 55 -32 107 -61 250 -141 49 -28 162 -91
240 -135 22 -13 59 -33 83 -46 23 -13 61 -35 85 -48 23 -13 66 -37 95 -55 29
-17 55 -31 57 -31 2 0 42 -23 90 -50 48 -28 88 -50 91 -50 2 0 33 -18 69 -40
36 -22 69 -40 73 -40 4 0 23 -11 42 -24 19 -12 65 -39 102 -59 l67 -35 57 34
c31 19 60 34 65 34 5 0 9 5 9 10 0 6 5 10 10 10 6 0 35 15 64 34 29 18 62 37
74 40 12 4 22 11 22 16 0 5 16 14 35 21 19 7 35 17 35 21 0 4 5 8 11 8 6 0 30
13 54 30 24 16 48 30 54 30 6 0 11 5 11 12 0 6 3 9 6 6 5 -5 52 21 89 49 6 5
24 15 40 23 17 8 53 29 82 47 29 18 57 33 63 33 5 0 10 4 10 10 0 5 11 12 25
16 14 3 25 10 25 15 0 5 5 9 10 9 6 0 28 12 50 26 38 25 77 48 130 76 14 7 30
16 35 21 10 8 269 163 283 169 7 3 96 56 605 360 110 65 201 118 204 118 3 0
19 10 36 22 18 13 34 23 37 23 3 1 23 12 45 26 22 14 62 39 90 55 27 16 59 34
70 41 11 7 27 15 35 19 8 4 17 10 20 13 3 3 18 13 33 21 15 8 152 89 305 179
152 91 286 169 297 175 11 6 22 14 25 17 3 4 23 16 45 28 22 12 47 26 55 31
31 21 232 140 236 140 3 0 113 68 123 76 8 7 6 674 -2 674 -5 0 -28 -14 -52
-30 -24 -17 -46 -30 -49 -30 -6 0 -130 -73 -136 -80 -3 -4 -12 -9 -20 -13 -8
-4 -33 -18 -55 -32 -22 -14 -47 -28 -55 -32 -28 -15 -415 -245 -451 -269 -19
-13 -40 -24 -47 -24 -7 0 -12 -4 -12 -10 0 -5 -4 -10 -8 -10 -9 0 -259 -146
-299 -175 -12 -8 -27 -15 -32 -15 -6 0 -11 -4 -11 -9 0 -5 -9 -13 -20 -16 -11
-4 -48 -24 -83 -45 -34 -22 -80 -49 -102 -61 -22 -11 -59 -34 -83 -50 -24 -16
-45 -29 -48 -29 -2 0 -23 -12 -47 -27 -23 -15 -51 -32 -62 -38 -48 -26 -675
-400 -722 -431 -29 -19 -55 -34 -57 -34 -4 0 -107 -61 -186 -110 -8 -5 -40
-24 -70 -42 -64 -37 -648 -384 -670 -398 -196 -121 -243 -143 -260 -122 -5 8
-29 21 -105 62 -27 15 -102 57 -165 92 -116 65 -170 96 -257 144 -46 26 -152
85 -238 134 -22 13 -60 34 -85 48 -25 13 -58 32 -75 42 -16 10 -51 29 -77 44
-111 61 -146 80 -201 112 -32 19 -59 34 -61 34 -2 0 -42 22 -90 50 -48 27 -91
50 -96 50 -6 0 -10 4 -10 9 0 5 -8 11 -18 14 -18 6 -91 46 -211 117 -38 22
-73 40 -76 40 -4 0 -26 12 -49 28 -23 15 -64 38 -91 52 -28 14 -51 28 -53 33
-2 4 -7 7 -12 7 -5 0 -51 25 -104 55 -52 30 -100 55 -105 55 -6 0 -11 3 -11 8
0 4 -19 16 -43 27 -23 11 -44 22 -47 25 -3 3 -21 14 -40 23 -19 10 -48 26 -65
36 -16 10 -52 30 -80 45 -229 128 -270 152 -273 158 -2 5 -12 8 -22 8 -10 0
-20 4 -22 8 -1 5 -41 29 -88 54 -47 25 -114 62 -148 82 -35 20 -68 36 -73 36
-5 0 -9 5 -9 10 0 6 -4 10 -9 10 -13 0 -175 92 -179 102 -2 4 -9 8 -17 8 -7 0
-63 29 -125 65 -62 36 -116 65 -121 65 -5 0 -9 5 -9 10 0 6 -6 10 -14 10 -7 0
-30 11 -50 25 -20 13 -36 22 -36 19 0 -3 -12 3 -27 14 -16 11 -50 32 -78 46
-27 15 -63 35 -80 45 -16 10 -59 34 -95 53 -72 40 -167 93 -190 108 -8 5 -35
20 -60 32 -25 13 -47 25 -50 28 -3 3 -23 15 -45 27 -48 25 -101 55 -152 85
-21 12 -54 30 -73 40 -19 10 -42 22 -50 27 -77 47 -120 70 -120 63 0 -4 -4 -2
-8 4 -4 6 -34 26 -67 44 -33 18 -127 71 -210 118 -82 47 -172 97 -200 112 -27
14 -124 68 -214 119 -90 51 -180 102 -200 113 -20 10 -49 27 -66 37 -16 10
-97 55 -180 101 -165 92 -198 110 -250 140 -90 52 -114 65 -165 92 -30 17 -60
34 -66 39 -7 6 -11 -93 -12 -330z"/>
</g>
</svg>
