<svg width="177" height="46" viewBox="0 0 177 46" fill="none" xmlns="http://www.w3.org/2000/svg">
<g clip-path="url(#clip0)">
<path fill-rule="evenodd" clip-rule="evenodd" d="M19.8064 45.87L-0.00330945 34.4451L0.0274658 23.5031L29.2056 40.3312L19.8064 45.87Z" fill="url(#paint0_linear)"/>
<path fill-rule="evenodd" clip-rule="evenodd" d="M0.0113025 34.5022L0.0160796 11.6512L9.50708 6.20416L9.50004 39.862L0.0113025 34.5022Z" fill="url(#paint1_linear)"/>
<path fill-rule="evenodd" clip-rule="evenodd" d="M-0.0414061 11.6578L19.7713 0.230355L29.2395 5.72226L0.0568941 22.554L-0.0414061 11.6578Z" fill="url(#paint2_linear)"/>
<path fill-rule="evenodd" clip-rule="evenodd" d="M19.7076 0.175712L39.5173 11.6007L39.4866 22.5427L10.3084 5.71459L19.7076 0.175712Z" fill="url(#paint3_linear)"/>
<path fill-rule="evenodd" clip-rule="evenodd" d="M39.7664 11.6803L39.7616 34.5313L30.2706 39.9783L30.2777 6.3205L39.7664 11.6803Z" fill="url(#paint4_linear)"/>
<path fill-rule="evenodd" clip-rule="evenodd" d="M39.8191 34.5246L20.0064 45.952L10.5382 40.4601L39.7208 23.6284L39.8191 34.5246Z" fill="url(#paint5_linear)"/>
<mask id="mask0" mask-type="alpha" maskUnits="userSpaceOnUse" x="9" y="29" width="21" height="18">
<path d="M9.72302 29.0956L29.4208 40.4556L20.1247 46.0725L9.71686 40.0702L9.72302 29.0956Z" fill="white"/>
</mask>
<g mask="url(#mask0)">
<path fill-rule="evenodd" clip-rule="evenodd" d="M20.0216 45.9932L0.211549 34.5685L0.24231 23.6268L29.421 40.4544L20.0216 45.9932Z" fill="url(#paint6_linear)"/>
</g>
<path fill-rule="evenodd" clip-rule="evenodd" d="M60.2536 11.5655C63.7994 11.5655 66.3816 12.253 68.0003 13.628C69.6191 15.003 70.4284 17.115 70.4284 19.964C70.4284 22.813 69.597 24.8975 67.9343 26.2175C66.2715 27.5375 63.7333 28.1975 60.3197 28.1975H57.2474V34.6325H52.094V11.5655H60.2536ZM60.7161 23.7425C62.434 23.7425 63.6012 23.396 64.2178 22.703C64.8345 22.01 65.1428 20.998 65.1428 19.667C65.1428 18.336 64.7409 17.39 63.937 16.829C63.1332 16.268 61.8834 15.9875 60.1876 15.9875H57.2474V23.7425H60.7161ZM83.5185 21.2345C82.043 21.2345 80.9418 21.757 80.215 22.802C79.4883 23.847 79.1249 25.2275 79.1249 26.9435V34.6325H74.1696V16.8785H79.1249V19.2215C79.7635 18.4955 80.5619 17.8795 81.5199 17.3735C82.4779 16.8675 83.4524 16.6035 84.4435 16.5815L84.4765 21.2345H83.5185ZM91.6534 25.7555C91.6534 27.2075 92.0663 28.39 92.8922 29.303C93.7181 30.216 94.7752 30.6725 96.0636 30.6725C97.3519 30.6725 98.409 30.216 99.2349 29.303C100.061 28.39 100.474 27.2075 100.474 25.7555C100.474 24.3035 100.061 23.1155 99.2349 22.1915C98.409 21.2675 97.3519 20.8055 96.0636 20.8055C94.7752 20.8055 93.7181 21.2675 92.8922 22.1915C92.0663 23.1155 91.6534 24.3035 91.6534 25.7555ZM105.462 25.7555C105.462 28.3295 104.57 30.4965 102.786 32.2565C101.002 34.0165 98.7614 34.8965 96.0636 34.8965C93.3657 34.8965 91.1248 34.0165 89.3409 32.2565C87.557 30.4965 86.6651 28.3295 86.6651 25.7555C86.6651 23.1815 87.557 21.009 89.3409 19.238C91.1248 17.467 93.3657 16.5815 96.0636 16.5815C98.7614 16.5815 101.002 17.467 102.786 19.238C104.57 21.009 105.462 23.1815 105.462 25.7555ZM113.729 34.6325L106.693 16.8455H111.846L116.273 28.0325L120.699 16.8455H125.853L118.816 34.6325H113.729ZM133.459 34.6325H128.504V16.8785H133.459V34.6325ZM128.9 14.6345C128.35 14.0625 128.074 13.3695 128.074 12.5555C128.074 11.7415 128.355 11.054 128.917 10.493C129.478 9.93199 130.167 9.65149 130.982 9.65149C131.796 9.65149 132.485 9.93199 133.046 10.493C133.608 11.054 133.889 11.7415 133.889 12.5555C133.889 13.3695 133.608 14.057 133.046 14.618C132.485 15.179 131.796 15.4595 130.982 15.4595C130.167 15.4595 129.473 15.1845 128.9 14.6345ZM145.459 34.8965C143.367 34.8965 141.495 34.0055 139.843 32.2235C138.191 30.4415 137.366 28.2305 137.366 25.5905C137.366 22.9505 138.169 20.789 139.777 19.106C141.385 17.423 143.268 16.5815 145.426 16.5815C147.584 16.5815 149.346 17.3405 150.712 18.8585V10.1465H155.667V34.6325H150.712V32.2895C149.324 34.0275 147.573 34.8965 145.459 34.8965ZM142.354 25.7885C142.354 27.2185 142.783 28.39 143.642 29.303C144.501 30.216 145.503 30.6725 146.648 30.6725C147.794 30.6725 148.768 30.216 149.572 29.303C150.376 28.39 150.778 27.213 150.778 25.772C150.778 24.331 150.376 23.132 149.572 22.175C148.768 21.218 147.783 20.7395 146.615 20.7395C145.448 20.7395 144.446 21.2235 143.609 22.1915C142.772 23.1595 142.354 24.3585 142.354 25.7885ZM175.959 32.0585C173.955 33.9505 171.604 34.8965 168.906 34.8965C166.208 34.8965 163.978 34.066 162.216 32.405C160.454 30.744 159.573 28.5165 159.573 25.7225C159.573 22.9285 160.471 20.7065 162.266 19.0565C164.061 17.4065 166.18 16.5815 168.625 16.5815C171.069 16.5815 173.145 17.3185 174.852 18.7925C176.559 20.2665 177.412 22.2905 177.412 24.8645V27.5045H164.463C164.617 28.4725 165.123 29.2645 165.982 29.8805C166.841 30.4965 167.81 30.8045 168.889 30.8045C170.629 30.8045 172.061 30.2215 173.184 29.0555L175.959 32.0585ZM172.391 23.9735C172.281 22.9175 171.884 22.1035 171.202 21.5315C170.519 20.9595 169.688 20.6735 168.707 20.6735C167.727 20.6735 166.83 20.9705 166.015 21.5645C165.2 22.1585 164.727 22.9615 164.595 23.9735H172.391Z" fill="#E3EAFA"/>
</g>
<defs>
<linearGradient id="paint0_linear" x1="13.4095" y1="42.1807" x2="16.6611" y2="31.4792" gradientUnits="userSpaceOnUse">
<stop stop-color="#4ECEFF"/>
<stop offset="1" stop-color="#02A2E0"/>
</linearGradient>
<linearGradient id="paint1_linear" x1="0.0128444" y1="27.1232" x2="10.9063" y2="24.5945" gradientUnits="userSpaceOnUse">
<stop stop-color="#4ECEFF"/>
<stop offset="1" stop-color="#02A2E0"/>
</linearGradient>
<linearGradient id="paint2_linear" x1="6.35643" y1="7.96769" x2="13.9889" y2="16.1403" gradientUnits="userSpaceOnUse">
<stop stop-color="#4ECEFF"/>
<stop offset="1" stop-color="#02A2E0"/>
</linearGradient>
<linearGradient id="paint3_linear" x1="26.1045" y1="3.86502" x2="22.8529" y2="14.5666" gradientUnits="userSpaceOnUse">
<stop stop-color="#4ECEFF"/>
<stop offset="1" stop-color="#02A2E0"/>
</linearGradient>
<linearGradient id="paint4_linear" x1="39.7649" y1="19.0592" x2="28.8714" y2="21.5879" gradientUnits="userSpaceOnUse">
<stop stop-color="#4ECEFF"/>
<stop offset="1" stop-color="#02A2E0"/>
</linearGradient>
<linearGradient id="paint5_linear" x1="33.4213" y1="38.2147" x2="25.7889" y2="30.0422" gradientUnits="userSpaceOnUse">
<stop stop-color="#4ECEFF"/>
<stop offset="1" stop-color="#02A2E0"/>
</linearGradient>
<linearGradient id="paint6_linear" x1="13.6246" y1="42.304" x2="16.876" y2="31.6026" gradientUnits="userSpaceOnUse">
<stop stop-color="#4ECEFF"/>
<stop offset="1" stop-color="#02A2E0"/>
</linearGradient>
<clipPath id="clip0">
<rect width="177" height="46" fill="white"/>
</clipPath>
</defs>
</svg>
