<svg height="36" viewBox="0 0 122 36" width="122" xmlns="http://www.w3.org/2000/svg"><path d="m12.9288 21.8023c0 .8019-.1696 1.547-.5088 2.236-.3392.6793-.8198 1.264-1.423 1.736-.6125.4811-1.338.849-2.177 1.113-.8386.2641-1.762.3962-2.761.3962-1.197 0-2.271-.1604-3.213-.4905-.9423-.3208-1.894-.868-2.846-1.623l1.574-2.557c.7538.6321 1.432 1.094 2.045 1.387.6031.2925 1.225.434 1.866.434.7821 0 1.404-.1982 1.885-.6038.4806-.4057.7067-.9434.7067-1.632 0-.2924-.04712-.566-.1319-.8207-.08481-.2548-.245-.5189-.4711-.7925-.2262-.2641-.5465-.566-.9517-.8773-.3958-.3114-.914-.7076-1.555-1.17-.4806-.3396-.9611-.6981-1.423-1.057-.4617-.3679-.8763-.7547-1.263-1.17-.3769-.4151-.6784-.8773-.914-1.396-.2262-.5094-.3486-1.104-.3486-1.755 0-.7547.1602-1.453.4711-2.076s.7444-1.151 1.291-1.594c.5465-.4434 1.197-.783 1.969-1.028.7632-.2453 1.592-.3679 2.497-.3679.9517 0 1.866.1226 2.751.3774.8857.2547 1.706.6226 2.469 1.113l-1.423 2.302c-.9705-.6793-1.998-1.028-3.072-1.028-.6502 0-1.197.1698-1.621.5094s-.6408.7642-.6408 1.283c0 .4906.1885.934.5654 1.321.3769.3962 1.027.934 1.951 1.651.9329.6793 1.706 1.283 2.309 1.792.6125.5094 1.093 1 1.451 1.453.3581.4529.5937.9057.735 1.377.1413.4811.2073.9905.2073 1.557zm16.16-4.311c0 .7075-.0754 1.472-.2261 2.292-.1414.8208-.3958 1.576-.7538 2.274-.3581.6981-.8198 1.274-1.395 1.717-.5748.4528-1.31.6792-2.186.6792-1.47 0-2.629-.5849-3.477-1.764-.8481-1.17-1.272-2.783-1.272-4.83 0-2.104.424-3.764 1.291-5 .8575-1.236 2.026-1.849 3.496-1.849 1.395 0 2.497.5849 3.307 1.736.8104 1.16 1.216 2.745 1.216 4.745zm5.107-.1793c0-1.368-.1979-2.613-.5842-3.726-.3958-1.123-.9423-2.085-1.668-2.896-.7255-.8113-1.574-1.434-2.563-1.887s-2.082-.6792-3.279-.6792c-1.319 0-2.478.2547-3.477.7453-.9988.5-1.932 1.283-2.78 2.358l-.0282-2.67h-4.702v27.44h4.693v-11.59c.4617.5377.9045.9905 1.338 1.358.424.3679.8575.6698 1.3.8962.4428.2264.9045.3962 1.394.4906.49.0943 1.018.1415 1.574.1415 1.244 0 2.412-.2548 3.486-.7453 1.074-.5 2.007-1.198 2.789-2.104s1.395-1.962 1.838-3.16c.4523-1.208.669-2.538.669-3.972zm2.092 9.538h4.824v-26.85h-4.824zm25.4.0094v-18.32h-4.824v9.858c0 .8774-.0377 1.557-.1131 2.038-.0754.4811-.1979.9056-.3675 1.302-.6784 1.509-1.932 2.274-3.75 2.274-1.423 0-2.412-.5094-2.978-1.538-.2261-.3868-.3769-.8302-.4617-1.321-.0848-.4905-.1319-1.198-.1319-2.132v-10.48h-4.824v10.41c0 .7075.0094 1.311.0189 1.792.0094.4811.0471.9245.0942 1.302.0471.3774.1036.717.1696 1.01.0565.2924.1508.5754.2733.8396.4428 1.123 1.15 1.972 2.139 2.547.9894.5754 2.205.8585 3.637.8585 1.291 0 2.431-.2265 3.411-.6793s1.932-1.189 2.855-2.217l.0094 2.453 4.843.0094zm20.79-.0094v-10.39c0-.7076-.0094-1.311-.0189-1.811-.0094-.5-.0376-.9339-.0942-1.302-.0471-.368-.113-.6887-.179-.9623-.0754-.283-.1602-.5566-.2544-.8208-.4429-1.094-1.15-1.943-2.139-2.538s-2.205-.8962-3.647-.8962c-1.291 0-2.431.2264-3.411.6792s-1.932 1.198-2.855 2.217l-.0094-2.453h-4.853v18.28h4.862v-9.868c0-.8491.0283-1.519.0942-1.991.0565-.4717.1791-.9151.3487-1.34.3109-.7359.8009-1.283 1.451-1.66s1.423-.566 2.327-.566c1.423 0 2.412.5094 2.978 1.538.2168.3868.3675.8302.4523 1.311.0848.4812.1319 1.198.1319 2.123v10.43l4.815.0095zm19.96-1.208-7.349-9.142 6.209-6.66-3.656-1.575-6.464 7.5h-.5088v-15.76h-4.862v26.85h4.862v-9.726l7.274 10.09 4.494-1.576zm18.79-6.566v-2.991l-14.62-7.34v3.292l11.33 5.519-11.33 5.594v3.217l14.62-7.292zm-13.2-15.08c-.895 0-1.621.7358-1.621 1.642 0 .9245.726 1.651 1.621 1.651.905 0 1.621-.7264 1.621-1.651 0-.9151-.716-1.642-1.621-1.642zm.01.2547c.725 0 1.309.6226 1.309 1.396 0 .7736-.584 1.396-1.309 1.387-.735 0-1.32-.6132-1.32-1.396 0-.7642.585-1.387 1.32-1.387zm-.311 1.557h.197c.236 0 .349.08491.396.3208.038.2453.085.4057.123.4623h.311c-.029-.0566-.076-.1698-.113-.4528-.038-.2736-.142-.4151-.311-.4434v-.01888c.198-.0566.358-.2075.358-.4434 0-.1698-.057-.3019-.17-.3774-.113-.0849-.292-.1415-.565-.1415-.217 0-.368.01887-.518.04717v1.83h.292v-.783zm0-.8491c.047-.00943.113-.01886.207-.01886.33 0 .443.1604.443.3208 0 .2264-.208.3113-.443.3113h-.207v-.6132z" transform="translate(.0012 -.0023)"/></svg>