<svg height="83" viewBox="0 0 83 83" width="83" xmlns="http://www.w3.org/2000/svg"><g fill="none"><path d="m10 10h67v64h-67z" fill="#000"/><path d="m76.3623728 0h-69.27096332c-3.7835264 0-7.09140948 2.72414691-7.09140948 6.46444387v69.42250583c0 3.7619172 3.30788308 7.1130503 7.09140948 7.1130503h69.24934322c3.8051465 0 6.6591275-3.3727533 6.6591275-7.1130503v-69.42250583c.0214991-3.74029696-2.853981-6.46444387-6.6375074-6.46444387zm-50.6343933 69.1846835h-11.891083v-36.9705652h11.891083zm-5.5347586-42.5918208h-.0864806c-3.8051466 0-6.2698438-2.832248-6.2698438-6.377963 0-3.6105757 2.5295577-6.377963 6.4211848-6.377963 3.8916272 0 6.2698438 2.7457671 6.3563244 6.377963 0 3.545715-2.4646972 6.377963-6.4211848 6.377963zm48.9912618 42.5918208h-11.8910829v-20.2148997c0-4.8429278-1.7296121-8.1508205-6.0320221-8.1508205-3.286263 0-5.2320765 2.226882-6.0968826 4.3889033-.3243022.7783277-.4107828 1.8377182-.4107828 2.9187289v21.058088h-11.891083v-36.9705652h11.891083v5.1456108c1.729612-2.4647044 4.4321309-6.0104194 10.7235948-6.0104194 7.8048744 0 13.7071756 5.1456109 13.7071756 16.2367804z" fill="#fff"/></g></svg>
