<svg height="162" viewBox="0 0 126 162" width="126" xmlns="http://www.w3.org/2000/svg"><g fill="none" transform="translate(.394568 .470669)"><path d="m30.8754323 108.229331c5.78-15.1900002-4-29.5200002-9.83-43.0000002-2.88-6.7-5.09-13.52-3.64-20.78 1.5025012-6.6042275 4.9924687-12.5895218 10-17.15 11.92-11.3 28.73-14.19 44.35-10.5 14.9 3.53 29.7499997 13.93 34.8099997 28.84 1.450867 4.1328985 1.876393 8.5563102 1.24 12.89-.08.4133334-.173333.8266667-.28 1.24.166667-.5933333.136667-.5266666-.09.2-.133333.3933334-.28.7833334-.44 1.17-.73 1.89.65-1.18-.27.62-.38.74-.81 1.45-1.25 2.15s-.46.7 0 .07c-.37.51-.77 1-1.17 1.5-4.07 5-11.0899997 9.65-17.2299997 13.67-13 8.49-30.17 19.36-28.64 37.2800002.24 2.84 2.28 4.36 5 2.87s5-5.16 4.78-8.28c0-.58-.08-1.16-.09-1.74 0-.08.13-1.91 0-.73.06-.54.17-1.08.28-1.61.36-1.73-.42 1.21.16-.46.1-.29.85-1.92.08-.35.24-.49.51-1 .79-1.43.94-1.59-.88 1.16.22-.36.45-.62.94-1.2 1.44-1.78 2.13-2.48 7.34-6.3800002 11-8.8200002 9.77-6.64 20.5099997-12.7 27.9399997-22.21 9.25-11.88 9.78-26.73 3.32-40.08-7.06-14.57-22.6899997-23.59999998-37.9099997-27.20999998-27-6.39-55 9.30999998-65.19 34.78999998-2.50499859 6.0016838-3.51725607 12.5213083-2.95 19 .69 6.29 2.93 12.15 5.5 17.89s5.48 11.27 7.74 17.12c1.72 4.48 3.39 10.1100002 1.76 14.4100002-.78 2.05-1.2 6.29 2 6.59s5.66-3.28 6.61-5.79" fill="#fff"/><path d="m28.0854323 105.449331c5.78-15.1900002-4-29.5200002-9.83-43.0000002-2.87-6.67-5.09-13.52-3.65-20.78 1.5043932-6.6006289 4.9942179-12.5821884 10-17.14 11.92-11.31 28.74-14.2 44.35-10.5 14.9 3.5 29.75 13.93 34.8199997 28.84 1.449357 4.1227592 1.878259 8.5352954 1.25 12.86-.08.4133334-.173333.8266667-.28 1.24.166667-.5933333.136667-.5266666-.09.2-.133333.3933334-.28.7833334-.44 1.17-.73 1.89.65-1.18-.27.62-.38.74-.81 1.45-1.25 2.15s-.46.7 0 .07c-.37.51-.77 1-1.17 1.5-4.0699997 5-11.0899997 9.65-17.2299997 13.67-13 8.49-30.17 19.36-28.64 37.2800002.24 2.84 2.28 4.36 5 2.87s5-5.16 4.78-8.28c0-.58-.08-1.16-.09-1.74 0-.08.13-1.91 0-.73.06-.54.17-1.08.28-1.61.36-1.73-.42 1.21.16-.46.1-.29.85-1.92.08-.35.24-.49.51-1 .79-1.43.94-1.59-.88 1.16.22-.36.45-.62.94-1.2 1.44-1.7800002 2.13-2.48 7.34-6.38 11-8.82 9.88-6.64 20.62-12.7 28.0499997-22.24 9.25-11.88 9.78-26.73 3.32-40.08-7.18-14.56-22.8099997-23.58999998-38.0799997-27.18999998-27-6.4-55 9.30999998-65.14 34.77999998-2.50499859 6.0016838-3.51725607 12.5213083-2.95 19 .69 6.29 2.93 12.15 5.5 17.89s5.48 11.27 7.74 17.12c1.72 4.48 3.39 10.1100002 1.76 14.4100002-.78 2.05-1.2 6.29 2 6.59s5.66-3.28 6.61-5.79" fill="#242425"/><path d="m67.9254323 121.529331c-9.73-4.76-21.24-7.16-32-7.68-5.47-.27-11 .25-16 2.68-5.14 2.52-8.39 8.06-10 13.34-3.24 11 10 15.61 18.25 17.36 5.585317 1.177586 11.2985049 1.634641 17 1.36 4.47-.21 10.17-.89 13.18-4.66s5.08-8 .58-11.18-10.46-4.22-15.64-5.22c-12.25-2.43-31.35-4.73-38.42 8.53-3.07 5.75-2.77 10 1.85 14.69 3.75 3.81 8.79 6 13.79 7.67 9.91 3.24 23.18 4.71 32.27-1.48 1.6416982-1.315683 2.8591062-3.086142 3.5-5.09.24-.65.87-3.45-.79-2.32-6.11 4.16-14.36 4.12-21.41 3.17s-14.3-3.23-20.1-7.38c-1.5325511-1.138518-2.9344148-2.443123-4.18-3.89-.70983756-.831242-1.28974157-1.765157-1.72-2.77l-.27-.78c-.26666667-1.126667-.26666667-1.336667 0-.63 3.87-3.1 9.25-3.28 14-3.41 9.5969686-.327523 19.1673899 1.193423 28.19 4.48 2.24.85 5.59 2.11 6.7 4.42-1.76-3.68 4.36-5 1.07-3.58-.39.17-.8.3-1.21.43-1.1226835.338888-2.2692446.592936-3.43.76-5.5868912.76536-11.2572202.684452-16.82-.24-6.19-.9-24.86-5-21.37-15-.23.67-.59.89.17.2.6619563-.539567 1.3873247-.996281 2.16-1.36 1.8605542-.887599 3.8474941-1.481319 5.89-1.76 4.866323-.727106 9.813677-.727106 14.68 0 8.66 1.07 17.75 3.26 25.62 7.12 1.89.93 6.14-7 4.5-7.8" fill="#fff"/><path d="m65.1354323 118.769331c-9.73-4.76-21.24-7.16-32-7.68-5.47-.27-11 .25-16 2.68-5.14 2.52-8.39 8.06-10 13.34-3.24 11 10 15.61 18.25 17.36 5.585317 1.177586 11.2985049 1.634641 17 1.36 4.47-.21 10.17-.89 13.18-4.66s5.08-8 .58-11.18-10.53-4.21-15.71-5.24c-12.25-2.43-31.35-4.73-38.42 8.53-3.07 5.75-2.77 10 1.85 14.69 3.75 3.81 8.79 6 13.79 7.67 9.91 3.24 23.18 4.71 32.27-1.48 1.6416982-1.315683 2.8591062-3.086142 3.5-5.09.24-.65.87-3.45-.79-2.32-6.11 4.16-14.36 4.12-21.41 3.17s-14.22-3.24-20.02-7.39c-1.53255108-1.138518-2.9344148-2.443123-4.18-3.89-.70983756-.831242-1.28974157-1.765157-1.72-2.77l-.27-.78c-.26666667-1.126667-.26666667-1.336667 0-.63 3.87-3.1 9.25-3.28 14-3.41 9.5802553-.321091 19.133091 1.199759 28.14 4.48 2.24.85 5.59 2.11 6.7 4.42-1.76-3.68 4.36-5 1.07-3.58-.39.17-.8.3-1.21.43-1.1226835.338888-2.2692446.592936-3.43.76-5.5868912.76536-11.2572202.684452-16.82-.24-6.19-.9-24.86-5-21.37-15-.23.67-.59.89.17.2.6619563-.539567 1.3873247-.996281 2.16-1.36 1.8605542-.887599 3.8474941-1.481319 5.89-1.76 4.866323-.727106 9.813677-.727106 14.68 0 8.66 1.13 17.75 3.32 25.59 7.13 1.89.93 6.14-7 4.5-7.8" fill="#242425"/><path d="m32.6054323 56.1593308c6.91 8.48 10.44 19.95 11.37 30.74.43 5 4.69 5.69 8.2 2.64 5-4.38 8.27-10.36 12.68-15.33 4.79-5.4 10.44-10 15.86-14.8 10.56-9.26 21.9999997-17.57 35.9999997-20.38 4.1-.82 7.08-5.88 7.78-9.63.63-3.36-.67-7.26-4.75-6.45-15.05 3.04-28.1399997 11.79-39.7199997 21.58-6 5.11-12 10.36-17.58 16-3.0166233 2.9666776-5.8139705 6.1483676-8.37 9.52-1.73 2.37-3.79 5.64-5.38 7l8.2 2.64c-1.11-12.86-4.84-26.81-13.17-37.04-5.12-6.28-15.46 8.15-11.12 13.51" fill="#fff"/><path d="m117.725432 20.8793308c-15.12 3-28.1899997 11.77-39.7799997 21.58-6 5.11-12 10.36-17.58 16-2.5403558 2.5339396-4.9405886 5.2045742-7.19 8-1.99-9.37-5.57-18.58-11.57-25.93-5.12-6.29-15.46 8.14-11.09 13.51 6.91 8.48 10.44 20 11.37 30.74.43 5 4.69 5.69 8.2 2.64 5-4.38 8.27-10.36 12.68-15.33 4.84-5.36 10.47-10 15.84-14.75 10.56-9.26 21.9999997-17.57 35.9999997-20.38 4.1-.82 7.08-5.88 7.78-9.63.63-3.36-.66-7.26-4.75-6.45" fill="#242425"/></g></svg>